<?xml version="1.0" standalone="no"?>
<!DOCTYPE svg PUBLIC "-//W3C//DTD SVG 1.1//EN" "http://www.w3.org/Graphics/SVG/1.1/DTD/svg11.dtd" >
<svg xmlns="http://www.w3.org/2000/svg" xmlns:xlink="http://www.w3.org/1999/xlink" version="1.1">
<metadata>
Created by FontForge 20200427 at Sat Apr  6 06:50:51 2013
 By www
Copyright (c) 2011 by . All rights reserved.
</metadata>
<defs>
<font id="Hideko" horiz-adv-x="581" >
  <font-face 
    font-family="Hideko"
    font-weight="400"
    font-stretch="normal"
    units-per-em="1000"
    panose-1="2 0 5 3 0 0 0 2 0 3"
    ascent="750"
    descent="-250"
    x-height="431"
    cap-height="700"
    bbox="20 -269 1411 948"
    underline-thickness="50"
    underline-position="-100"
    unicode-range="U+000D-FB06"
  />
<missing-glyph horiz-adv-x="399" 
 />
    <glyph glyph-name="f_f" unicode="ff" horiz-adv-x="926" 
d="M751 377h-140v-372q0 -6 -40 -6q-36 0 -36 6v372h-301v-372q0 -6 -40 -6q-36 0 -36 6v372h-10q-13 -1 -33.5 -19t-21.5 -18q-4 0 -13.5 18.5t-9.5 30.5q0 22 24.5 32t53.5 10h10v61q0 113 48.5 166t121.5 53q48 0 85 -15.5t51.5 -30.5t14.5 -24t-25 -27t-37 -18
q-5 0 -18.5 15t-35.5 30.5t-48 15.5q-50 0 -65.5 -41t-15.5 -124v-61h301v61q0 113 48.5 166t121.5 53q48 0 85 -15.5t51.5 -30.5t14.5 -24t-25 -27t-37 -18q-5 0 -18.5 15t-35.5 30.5t-48 15.5q-50 0 -65.5 -41t-15.5 -124v-61h157z" />
    <glyph glyph-name="f_i" unicode="fi" horiz-adv-x="651" 
d="M465 377h-231v-372q0 -6 -40 -6q-36 0 -36 6v372h-10q-13 -1 -33.5 -19t-21.5 -18q-4 0 -13.5 18.5t-9.5 30.5q0 22 24.5 32t53.5 10h10v61q0 113 48.5 166t121.5 53q48 0 85 -15.5t51.5 -30.5t14.5 -24t-25 -27t-37 -18q-5 0 -18.5 15t-35.5 30.5t-48 15.5
q-50 0 -65.5 -41t-15.5 -124v-61h254q29 0 43 -20.5t14 -47.5v-295q0 -13 18 -33.5t18 -21.5q0 -3 -8 -8t-21.5 -10t-25.5 -5q-29 0 -45 25t-16 53v309z" />
    <glyph glyph-name="f_l" unicode="fl" horiz-adv-x="617" 
d="M511 632v-564q0 -13 18 -33.5t18 -21.5q0 -3 -7.5 -8t-21 -10t-25.5 -5q-28 0 -42 24.5t-14 53.5v538q-1 8 -15 19.5t-43 21.5t-64 10q-50 0 -65.5 -41t-15.5 -124v-61h107l-17 -54h-90v-372q0 -6 -40 -6q-36 0 -36 6v372h-10q-13 -1 -33.5 -19t-21.5 -18
q-4 0 -13.5 18.5t-9.5 30.5q0 22 24.5 32t53.5 10h10v61q0 113 48.5 166t121.5 53q56 0 100.5 -15t63.5 -32.5t19 -31.5z" />
    <glyph glyph-name="f_f_i" unicode="ffi" horiz-adv-x="1018" 
d="M148 377q-13 -1 -33.5 -19t-21.5 -18q-4 0 -13.5 18.5t-9.5 30.5q0 22 24.5 32t53.5 10h10v61q0 113 48.5 166t121.5 53q48 0 85 -15.5t51.5 -30.5t14.5 -24t-25 -27t-37 -18q-5 0 -18.5 15t-35.5 30.5t-48 15.5q-50 0 -65.5 -41t-15.5 -124v-61h291v61q0 113 48.5 166
t121.5 53q48 0 85 -15.5t51.5 -30.5t14.5 -24t-25 -27t-37 -18q-5 0 -18.5 15t-35.5 30.5t-48 15.5q-50 0 -65.5 -41t-15.5 -124v-61h254q29 0 43 -20.5t14 -47.5v-295q0 -13 18 -33.5t18 -21.5q0 -3 -8 -8t-21.5 -10t-25.5 -5q-29 0 -45 25t-16 53v309h-231v-372
q0 -6 -40 -6q-36 0 -36 6v372h-291v-372q0 -6 -40 -6q-36 0 -36 6v372h-10z" />
    <glyph glyph-name="f_f_l" unicode="ffl" horiz-adv-x="984" 
d="M525 5v372h-291v-372q0 -6 -40 -6q-36 0 -36 6v372h-10q-13 -1 -33.5 -19t-21.5 -18q-4 0 -13.5 18.5t-9.5 30.5q0 22 24.5 32t53.5 10h10v61q0 113 48.5 166t121.5 53q48 0 85 -15.5t51.5 -30.5t14.5 -24t-25 -27t-37 -18q-5 0 -18.5 15t-35.5 30.5t-48 15.5
q-50 0 -65.5 -41t-15.5 -124v-61h291v61q0 112 53 165.5t127 53.5q73 0 123 -27t50 -52v-564q0 -13 18 -33.5t18 -21.5q0 -3 -7.5 -8t-21 -10t-25.5 -5q-28 0 -42 24.5t-14 53.5v538q0 7 -15 19t-42 22t-55 10q-51 0 -71 -43t-20 -122v-61h107l-17 -54h-90v-372q0 -6 -40 -6
q-36 0 -36 6z" />
    <glyph glyph-name="s_t" unicode="st" horiz-adv-x="903" 
d="M306 433q-9 11 -9 42q0 64 52.5 109t143.5 45q60 0 106.5 -36.5t46.5 -91.5v-70h179l-17 -54h-162v-169q0 -165 45 -165q26 0 42.5 15t24.5 30.5t13 15.5q12 0 37 -18t25 -27q0 -5 -3.5 -12.5t-13 -17.5t-24.5 -18.5t-41.5 -14.5t-59.5 -6q-73 0 -96 46t-23 172v169h-10
q-13 -1 -33.5 -6.5t-21.5 -5.5q-5 0 -14 13t-9 25v18q0 7 1.5 8.5t8.5 1.5h78v70q0 21 -27.5 41.5t-56.5 20.5q-122 0 -122 -127q0 -12 5 -27t9 -25l5 -9q0 -10 -21.5 -28t-31.5 -18q-4 0 -19.5 15.5t-38.5 30.5t-45 15q-36 0 -58 -21.5t-22 -61.5q0 -28 36.5 -48.5t81 -32
t81 -37.5t36.5 -64q0 -134 -170 -134q-25 0 -49 6t-40.5 15t-29.5 18.5t-19 17.5t-6 12q0 10 21 28t31 18q4 0 19.5 -15t38.5 -30.5t45 -15.5q12 0 20.5 0.5t21 4.5t20 11t13.5 20.5t6 32.5q0 22 -24 37.5t-58 26t-68 22.5t-58 35.5t-24 57.5t11 60.5t28.5 43t40 27.5
t44 15.5t42.5 4.5q42 0 66 -11z" />
    <glyph glyph-name="f_f_j" unicode="ffj" horiz-adv-x="962" 
d="M525 431v61q0 113 48.5 166t121.5 53q48 0 85 -15.5t51.5 -30.5t14.5 -24t-25 -27t-37 -18q-5 0 -18.5 15t-35.5 30.5t-48 15.5t-43 -11.5t-24.5 -36.5t-9.5 -50t-2 -67l-2 -61h234q29 0 43 -20.5t14 -47.5v-404q0 -113 -48 -166t-120 -53q-27 0 -52.5 12.5t-25.5 34.5
q0 12 9.5 28t13.5 16q2 0 12 -9.5t25.5 -18.5t30.5 -9q18 0 31 5t21 17.5t12.5 24t6.5 34t2.5 38.5t0.5 46v418h-210v-372q0 -6 -40 -6q-36 0 -36 6v372h-291v-372q0 -6 -40 -6q-36 0 -36 6v372h-10q-13 -1 -33.5 -19t-21.5 -18q-4 0 -13.5 18.5t-9.5 30.5q0 22 24.5 32
t53.5 10h10v61q0 113 48.5 166t121.5 53q48 0 85 -15.5t51.5 -30.5t14.5 -24t-25 -27t-37 -18q-5 0 -18.5 15t-35.5 30.5t-48 15.5t-43 -11.5t-24.5 -36.5t-9.5 -50t-2 -67l-2 -61h291z" />
    <glyph glyph-name="f_j" unicode="fj" horiz-adv-x="595" 
d="M444 -41l1 418h-211v-372q0 -6 -40 -6q-36 0 -36 6v372h-10q-13 -1 -33.5 -19t-21.5 -18q-4 0 -13.5 18.5t-9.5 30.5q0 22 24.5 32t53.5 10h10v61q0 113 48.5 166t121.5 53q48 0 85 -15.5t51.5 -30.5t14.5 -24t-25 -27t-37 -18q-5 0 -18.5 15t-35.5 30.5t-48 15.5
t-43 -11.5t-24.5 -36.5t-9.5 -50t-2 -67l-2 -61h234q29 0 43 -20.5t14 -47.5v-404q0 -113 -48 -166t-120 -53q-27 0 -52.5 12.5t-25.5 34.5q0 12 9.5 28t13.5 16q2 0 12 -9.5t25.5 -18.5t30.5 -9q18 0 31 5t20.5 17.5t12.5 23.5t7 35t2.5 38t0.5 46z" />
    <glyph glyph-name="f_t" unicode="ft" horiz-adv-x="938" 
d="M607 208v169h-373v-372q0 -6 -40 -6q-36 0 -36 6v372h-10q-13 -1 -33.5 -6.5t-21.5 -5.5q-5 0 -14 13t-9 25v18q0 7 1.5 8.5t8.5 1.5h78v61q0 113 48.5 166t121.5 53q48 0 85 -15.5t51.5 -30.5t14.5 -24t-25 -27t-37 -18q-5 0 -18.5 15t-35.5 30.5t-48 15.5
q-50 0 -65.5 -41t-15.5 -124v-61h373v70q0 13 -19 33.5t-19 21.5q0 3 9 8.5t24 10t27 4.5q28 0 40 -24t12 -54v-70h179l-17 -54h-162v-169q0 -165 45 -165q26 0 42.5 15t24.5 30.5t13 15.5q12 0 37 -18t25 -27q0 -5 -3.5 -12.5t-13 -17.5t-24.5 -18.5t-41.5 -14.5t-59.5 -6
q-73 0 -96 46t-23 172z" />
    <glyph glyph-name="f_u" unicode="fu" horiz-adv-x="932" 
d="M477 431q51 0 51 -65v-149q0 -173 110 -173q34 0 62.5 20.5t39.5 41.5l12 20v303q0 6 37 6t37 -6v-361q0 -13 18 -33.5t18 -21.5q0 -3 -9 -8t-23.5 -10t-26.5 -5q-27 0 -41.5 20t-14.5 34q-4 -6 -11.5 -15t-36 -24t-62.5 -15q-101 0 -142 59.5t-41 166.5v161h-220v-372
q0 -6 -40 -6q-36 0 -36 6v372h-10q-13 -1 -33.5 -19t-21.5 -18q-4 0 -13.5 18.5t-9.5 30.5q0 22 24.5 32t53.5 10h10v61q0 113 48.5 166t121.5 53q48 0 85 -15.5t51.5 -30.5t14.5 -24t-25 -27t-37 -18q-5 0 -18.5 15t-35.5 30.5t-48 15.5q-50 0 -65.5 -41t-15.5 -124v-61
h243z" />
    <glyph glyph-name="c_t" unicode="ct" horiz-adv-x="952" 
d="M358 431q-12 12 -12 44q0 64 52.5 109t143.5 45q60 0 106.5 -36.5t46.5 -91.5v-70h179l-17 -54h-162v-169q0 -165 45 -165q26 0 42.5 15t24.5 30.5t13 15.5q12 0 37 -18t25 -27q0 -5 -3.5 -12.5t-13 -17.5t-24.5 -18.5t-41.5 -14.5t-59.5 -6q-73 0 -96 46t-23 172v169
h-10q-13 -1 -33.5 -6.5t-21.5 -5.5q-5 0 -14 13t-9 25v18q0 7 1.5 8.5t8.5 1.5h78v70q0 21 -27.5 41.5t-56.5 20.5q-122 0 -122 -127q0 -12 7 -27.5t14 -24.5l7 -10q0 -9 -25 -27t-37 -18q-5 0 -23.5 15.5t-45.5 30.5t-53 15q-61 0 -85 -43t-24 -122q0 -78 32.5 -129
t85.5 -51q30 0 55 11.5t38 26t24 26t15 11.5q10 0 26 -20t16 -29q0 -6 -5 -15t-18 -21t-32 -21.5t-50.5 -16.5t-69.5 -7q-103 0 -150 64.5t-47 170.5q0 58 18.5 102t49 68.5t64.5 36.5t70 12q47 0 86 -13z" />
    <glyph glyph-name="u_t" unicode="ut" horiz-adv-x="1013" 
d="M404 126v303q-10 12 -10 47q0 63 58.5 108t150.5 45q60 0 106.5 -36.5t46.5 -91.5v-70h179l-17 -54h-162v-169q0 -165 45 -165q26 0 42.5 15t24.5 30.5t13 15.5q12 0 37 -18t25 -27q0 -5 -3.5 -12.5t-13 -17.5t-24.5 -18.5t-41.5 -14.5t-59.5 -6q-73 0 -96 46t-23 172
v169h-10q-13 -1 -33.5 -6.5t-21.5 -5.5q-5 0 -14 13t-9 25v18q0 7 1.5 8.5t8.5 1.5h78v70q0 21 -27.5 41.5t-56.5 20.5q-56 0 -94 -26t-38 -72q0 -6 6 -15t6 -21v-361q0 -13 18 -33.5t18 -21.5q0 -3 -9 -8t-23.5 -10t-26.5 -5q-27 0 -41.5 20t-14.5 34q-4 -6 -11.5 -15
t-36 -24t-62.5 -15q-101 0 -142 59.5t-41 166.5v150q0 13 -18 33.5t-18 21.5q0 3 9 8t23.5 10t26.5 5q28 0 39.5 -24t11.5 -54v-149q0 -173 110 -173q34 0 62.5 20.5t39.5 41.5z" />
    <glyph glyph-name="t_u" unicode="tu" horiz-adv-x="932" 
d="M454 216v161h-222v-169q0 -165 45 -165q26 0 42.5 15t24.5 30.5t13 15.5q12 0 37 -18t25 -27q0 -5 -3.5 -12.5t-13 -17.5t-24.5 -18.5t-41.5 -14.5t-59.5 -6q-73 0 -96 46t-23 172v169h-10q-13 -1 -33.5 -6.5t-21.5 -5.5q-5 0 -14 13t-9 25v18q0 7 1.5 8.5t8.5 1.5h78v70
q0 13 -19 33.5t-19 21.5q0 3 9 8.5t24 10t27 4.5q28 0 40 -24t12 -54v-70h245q51 0 51 -65v-149q0 -173 110 -173q34 0 62.5 20.5t39.5 41.5l12 20v303q0 6 37 6t37 -6v-361q0 -13 18 -33.5t18 -21.5q0 -3 -9 -8t-23.5 -10t-26.5 -5q-27 0 -41.5 20t-14.5 34
q-4 -6 -11.5 -15t-36 -24t-62.5 -15q-101 0 -142 59.5t-41 166.5z" />
    <glyph glyph-name="o_o" unicode="oo" horiz-adv-x="877" 
d="M439 80q-67 -90 -172 -90q-103 0 -150 64.5t-47 170.5q0 58 18.5 102t49 68.5t64.5 36.5t70 12q117 0 168 -91q26 41 69.5 66t100.5 25q103 0 150 -64.5t47 -170.5q0 -58 -18.5 -102t-49 -68.5t-64.5 -36.5t-70 -12q-120 0 -166 90zM603 390q-114 0 -114 -165
q0 -78 34.5 -129.5t88.5 -51.5q115 0 115 165q0 78 -35 129.5t-89 51.5zM389 209q0 78 -35 129.5t-89 51.5q-114 0 -114 -165q0 -78 34.5 -129.5t88.5 -51.5q115 0 115 165z" />
    <glyph glyph-name="T_h" unicode="Th" horiz-adv-x="1080" 
d="M80 700h545q51 0 51 -68v-249q1 2 4 6.5t13 15t22.5 18.5t32.5 14.5t43 6.5q95 0 139 -61t44 -165v-150q0 -13 18 -33.5t18 -21.5q0 -3 -9 -8t-23.5 -10t-26.5 -5q-28 0 -39.5 24t-11.5 54v149q0 173 -110 173q-34 0 -62.5 -20.5t-39.5 -41.5l-12 -20v-302q0 -6 -36 -6
q-38 0 -38 6v635h-207v-635q0 -6 -42 -6t-42 6v635h-163q-13 -1 -33.5 -6.5t-21.5 -5.5q-4 0 -13.5 15.5t-9.5 27.5v18q0 7 1.5 8.5t8.5 1.5z" />
    <glyph glyph-name="C_o" unicode="Co" horiz-adv-x="1058" 
d="M627 66q-56 -76 -244 -76q-84 0 -146 28.5t-97.5 80.5t-52.5 117.5t-17 146.5q0 91 29.5 161t77.5 109t102.5 58t111.5 19q48 0 90.5 -7.5t71 -18.5t49.5 -24t30.5 -23.5t9.5 -17.5q0 -14 -29.5 -32.5t-48.5 -18.5q-7 0 -32 21t-67.5 42.5t-94.5 21.5q-205 0 -205 -290
q0 -143 57 -229t163 -86q42 0 79 11t59 25t39.5 32t23 26.5t8.5 13.5q-6 33 -6 69q0 58 18.5 102t49 68.5t64.5 36.5t70 12q103 0 150 -64.5t47 -170.5q0 -58 -18.5 -102t-49 -68.5t-64.5 -36.5t-70 -12q-107 0 -158 76zM783 390q-114 0 -114 -165q0 -78 34.5 -129.5
t88.5 -51.5q115 0 115 165q0 78 -35 129.5t-89 51.5z" />
    <glyph glyph-name="f_b" unicode="fb" horiz-adv-x="879" 
d="M511 328v-273q10 -15 77 -15q68 0 105 54.5t37 122.5q0 173 -105 173q-34 0 -62.5 -15.5t-40.5 -30.5zM437 431v175q-1 8 -15 19.5t-43 21.5t-64 10q-50 0 -65.5 -41t-15.5 -124v-61h203zM437 5v372h-203v-372q0 -6 -40 -6q-36 0 -36 6v372h-10q-13 -1 -33.5 -19
t-21.5 -18q-4 0 -13.5 18.5t-9.5 30.5q0 22 24.5 32t53.5 10h10v61q0 113 48.5 166t121.5 53q56 0 100.5 -15t63.5 -32.5t19 -31.5v-232q4 5 12.5 12.5t38.5 19.5t64 12q95 0 139 -61t44 -165q0 -97 -64 -162.5t-157 -65.5q-41 0 -76.5 2.5t-55 5.5t-19.5 7z" />
    <glyph glyph-name="f_k" unicode="fk" horiz-adv-x="874" 
d="M437 377h-203v-372q0 -6 -40 -6q-36 0 -36 6v372h-10q-13 -1 -33.5 -19t-21.5 -18q-4 0 -13.5 18.5t-9.5 30.5q0 22 24.5 32t53.5 10h10v61q0 113 48.5 166t121.5 53q56 0 100 -15t63 -32.5t19 -31.5v-367l179 153q15 13 48 13h17t10.5 -1.5t7.5 -4t2 -7.5
q0 -2 -49 -45.5t-98 -85.5l-49 -42q30 -65 101 -141t105 -76q8 0 14 -7t6 -13q0 -5 -9 -6l-86 -2q-41 0 -98.5 75t-86.5 135l-14 -10v-194q0 -6 -35 -6q-38 0 -38 6v371zM437 431v175q-1 8 -15 19.5t-43 21.5t-64 10q-50 0 -65.5 -41t-15.5 -124v-61h203z" />
    <glyph glyph-name="t_i" unicode="ti" horiz-adv-x="670" 
d="M484 377h-252v-169q0 -165 45 -165q26 0 42.5 15t24.5 30.5t13 15.5q12 0 37 -18t25 -27q0 -5 -3.5 -12.5t-13 -17.5t-24.5 -18.5t-41.5 -14.5t-59.5 -6q-73 0 -96 46t-23 172v169h-10q-13 -1 -33.5 -6.5t-21.5 -5.5q-5 0 -14 13t-9 25v18q0 7 1.5 8.5t8.5 1.5h78v70
q0 13 -19 33.5t-19 21.5q0 3 9 8.5t24 10t27 4.5q28 0 40 -24t12 -54v-70h275q29 0 43 -20.5t14 -47.5v-295q0 -13 18 -33.5t18 -21.5q0 -3 -8 -8t-21.5 -10t-25.5 -5q-29 0 -45 25t-16 53v309zM463 533q0 19 13 32t32 13t32 -13t13 -32t-13 -32t-32 -13t-32 13t-13 32z" />
    <glyph glyph-name="c_h" unicode="ch" horiz-adv-x="986" 
d="M508 267v365q0 13 -18 33.5t-18 21.5q0 3 9 8t23.5 10t26.5 5q28 0 39.5 -24t11.5 -54v-249q1 2 4 6.5t13 15t22.5 18.5t32.5 14.5t43 6.5q95 0 139 -61t44 -165v-150q0 -13 18 -33.5t18 -21.5q0 -3 -9 -8t-23.5 -10t-26.5 -5q-28 0 -39.5 24t-11.5 54v149
q0 173 -110 173q-34 0 -62.5 -20.5t-39.5 -41.5l-12 -20v-302q0 -6 -36 -6q-38 0 -38 6v178q0 -13 -13 -41t-38.5 -64t-76 -62.5t-113.5 -26.5q-103 0 -150 64.5t-47 170.5q0 58 18.5 102t49 68.5t64.5 36.5t70 12q48 0 90 -15t61.5 -31t19.5 -24q0 -9 -25 -27t-37 -18
q-5 0 -23.5 15.5t-45.5 30.5t-53 15q-61 0 -85 -43t-24 -122q0 -78 32.5 -129t85.5 -51q43 0 83 21t67.5 51.5t48.5 63t31 56t10 30.5z" />
    <glyph glyph-name="c_l" unicode="cl" horiz-adv-x="688" 
d="M508 184q0 -13 -13 -41t-38.5 -64t-76 -62.5t-113.5 -26.5q-103 0 -150 64.5t-47 170.5q0 58 18.5 102t49 68.5t64.5 36.5t70 12q48 0 90 -15t61.5 -31t19.5 -24q0 -9 -25 -27t-37 -18q-5 0 -23.5 15.5t-45.5 30.5t-53 15q-61 0 -85 -43t-24 -122q0 -78 32.5 -129
t85.5 -51q43 0 83 21t67.5 51.5t48.5 63t31 56t10 30.5v365q0 13 -18 33.5t-18 21.5q0 3 7.5 8t21 10t25.5 5q28 0 42 -24.5t14 -53.5v-564q0 -13 18 -33.5t18 -21.5q0 -3 -7.5 -8t-21 -10t-25.5 -5q-28 0 -42 24.5t-14 53.5v116z" />
    <glyph glyph-name="c_k" unicode="ck" horiz-adv-x="945" 
d="M508 184q0 -13 -13 -41t-38.5 -64t-76 -62.5t-113.5 -26.5q-103 0 -150 64.5t-47 170.5q0 58 18.5 102t49 68.5t64.5 36.5t70 12q48 0 90 -15t61.5 -31t19.5 -24q0 -9 -25 -27t-37 -18q-5 0 -23.5 15.5t-45.5 30.5t-53 15q-61 0 -85 -43t-24 -122q0 -78 32.5 -129
t85.5 -51q43 0 83 21t67.5 51.5t48.5 63t31 56t10 30.5v365q0 13 -18 33.5t-18 21.5q0 3 6.5 8t19 10t24.5 5q29 0 44 -25t15 -53v-367l179 153q15 13 48 13h17t10.5 -1.5t7.5 -4t2 -7.5q0 -2 -49 -45.5t-98 -85.5l-49 -42q30 -65 101 -141t105 -76q8 0 14 -7t6 -13
q0 -5 -9 -6l-86 -2q-41 0 -98.5 75t-86.5 135l-14 -10v-194q0 -6 -35 -6q-38 0 -38 6v178z" />
    <glyph glyph-name="W_h" unicode="Wh" horiz-adv-x="1482" 
d="M1060 694q17 -21 17 -62v-249q1 2 4 6.5t13 15t22.5 18.5t32.5 14.5t43 6.5q95 0 139 -61t44 -165v-150q0 -13 18 -33.5t18 -21.5q0 -3 -9 -8t-23.5 -10t-26.5 -5q-28 0 -39.5 24t-11.5 54v149q0 173 -110 173q-34 0 -62.5 -20.5t-40.5 -41.5l-11 -20v-302q0 -6 -36 -6
q-38 0 -38 6v539l-205 -540q-3 -5 -23 -5q-19 0 -21 5l-184 525l-195 -525q-3 -5 -23 -5q-19 0 -21 5l-225 627q-5 11 -14 23.5t-15.5 21t-6.5 10.5q0 3 10.5 8.5t27 10t28.5 4.5q14 0 27.5 -19.5t20.5 -38.5l6 -20l168 -468l166 456q0 18 -8 33t-15.5 23.5t-7.5 10.5
q0 3 12.5 8.5t30 10t30.5 4.5q14 0 28 -19.5t22 -38.5l7 -20l158 -468q12 34 32.5 88.5t63 171t70.5 193.5l28 77q7 16 51 16q21 0 34 -16z" />
    <glyph glyph-name="t_h" unicode="th" horiz-adv-x="951" 
d="M473 6v371h-241v-169q0 -165 45 -165q26 0 42.5 15t24.5 30.5t13 15.5q12 0 37 -18t25 -27q0 -5 -3.5 -12.5t-13 -17.5t-24.5 -18.5t-41.5 -14.5t-59.5 -6q-73 0 -96 46t-23 172v169h-10q-13 -1 -33.5 -6.5t-21.5 -5.5q-5 0 -14 13t-9 25v18q0 7 1.5 8.5t8.5 1.5h78v70
q0 13 -19 33.5t-19 21.5q0 3 9 8.5t24 10t27 4.5q28 0 40 -24t12 -54v-70h241v201q0 13 -18 33.5t-18 21.5q0 3 9 8t23.5 10t26.5 5q28 0 39.5 -24t11.5 -54v-249q1 2 4 6.5t13 15t22.5 18.5t32.5 14.5t43 6.5q95 0 139 -61t44 -165v-150q0 -13 18 -33.5t18 -21.5
q0 -3 -9 -8t-23.5 -10t-26.5 -5q-28 0 -39.5 24t-11.5 54v149q0 173 -110 173q-34 0 -62.5 -20.5t-40.5 -41.5l-11 -20v-302q0 -6 -36 -6q-38 0 -38 6z" />
    <glyph glyph-name="i_s" unicode="is" horiz-adv-x="644" 
d="M85 533q0 19 13 32t32 13t32 -13t13 -32t-13 -32t-32 -13t-32 13t-13 32zM312 106q-8 0 -16.5 -9.5t-17.5 -21.5t-31 -21.5t-54 -9.5q-13 0 -13 5v314q0 30 -11.5 54t-39.5 24q-12 0 -26.5 -5t-23.5 -10t-9 -8q0 -1 18 -21.5t18 -33.5v-295q0 -30 21.5 -54t69.5 -24
q26 0 56 9t42 24q11 -11 43.5 -21.5t65.5 -10.5q170 0 170 134q0 38 -36.5 64t-81 37.5t-81 32t-36.5 48.5q0 40 22 61.5t58 21.5q22 0 45 -15t38.5 -30.5t19.5 -15.5q10 0 31 18t21 28q0 4 -6 12t-19 17.5t-29.5 18.5t-40.5 15t-49 6q-21 0 -42.5 -4.5t-44 -15.5t-40 -27.5
t-28.5 -43t-11 -60.5t24 -57.5t58 -35.5t68 -22.5t58 -26t24 -37.5q0 -19 -6 -32.5t-13.5 -20.5t-20 -11t-21 -4.5t-20.5 -0.5q-22 0 -45 15t-38.5 30.5t-19.5 15.5z" />
    <glyph glyph-name="t_t" unicode="tt" horiz-adv-x="804" 
d="M473 431v70q0 13 -19 33.5t-19 21.5q0 3 9 8.5t24 10t27 4.5q28 0 40 -24t12 -54v-70h179l-17 -54h-162v-169q0 -165 45 -165q26 0 42.5 15t24.5 30.5t13 15.5q12 0 37 -18t25 -27q0 -5 -3.5 -12.5t-13 -17.5t-24.5 -18.5t-41.5 -14.5t-59.5 -6q-73 0 -96 46t-23 172v169
h-241v-169q0 -165 45 -165q26 0 42.5 15t24.5 30.5t13 15.5q12 0 37 -18t25 -27q0 -5 -3.5 -12.5t-13 -17.5t-24.5 -18.5t-41.5 -14.5t-59.5 -6q-73 0 -96 46t-23 172v169h-10q-13 -1 -33.5 -6.5t-21.5 -5.5q-5 0 -14 13t-9 25v18q0 7 1.5 8.5t8.5 1.5h78v70q0 13 -19 33.5
t-19 21.5q0 3 9 8.5t24 10t27 4.5q28 0 40 -24t12 -54v-70h241z" />
    <glyph glyph-name="t_o" unicode="to" horiz-adv-x="892" 
d="M232 501v-70q350 13 394 13q103 0 150 -64.5t47 -170.5q0 -58 -18.5 -102t-49 -68.5t-64.5 -36.5t-70 -12q-103 0 -150 64.5t-47 170.5q0 94 50 152h-242v-169q0 -165 45 -165q26 0 42.5 15t24.5 30.5t13 15.5q12 0 37 -18t25 -27q0 -5 -3.5 -12.5t-13 -17.5t-24.5 -18.5
t-41.5 -14.5t-59.5 -6q-73 0 -96 46t-23 172v169h-10q-13 -1 -33.5 -6.5t-21.5 -5.5q-5 0 -14 13t-9 25v18q0 7 1.5 8.5t8.5 1.5h78v70q0 13 -19 33.5t-19 21.5q0 3 9 8.5t24 10t27 4.5q28 0 40 -24t12 -54zM619 390q-114 0 -114 -165q0 -78 34.5 -129.5t88.5 -51.5
q115 0 115 165q0 78 -35 129.5t-89 51.5z" />
    <glyph glyph-name="i_n" unicode="in" horiz-adv-x="795" 
d="M85 533q0 19 13 32t32 13t32 -13t13 -32t-13 -32t-32 -13t-32 13t-13 32zM217 -10q174 0 174 83v232q2 3 5 8.5t13.5 20t22.5 25t32 19.5t41 9q110 0 110 -170v-149q0 -28 16 -53t45 -25q12 0 24 5t18.5 10t6.5 8q0 1 -18 21.5t-18 33.5v150q0 223 -183 223
q-34 0 -61.5 -13.5t-38.5 -27.5l-10 -13q0 14 -14.5 34t-41.5 20q-12 0 -26.5 -5t-23.5 -10t-9 -8q0 -1 18 -21.5t18 -33.5v-260q0 -25 -38.5 -42t-85.5 -17q-13 0 -13 5v314q0 30 -11.5 54t-39.5 24q-12 0 -26.5 -5t-23.5 -10t-9 -8q0 -1 18 -21.5t18 -33.5v-295
q0 -30 24.5 -54t86.5 -24z" />
    <glyph glyph-name=".notdef" horiz-adv-x="399" 
 />
    <glyph glyph-name=".null" horiz-adv-x="0" 
 />
    <glyph glyph-name=".null" horiz-adv-x="0" 
 />
    <glyph glyph-name="nonmarkingreturn" horiz-adv-x="333" 
 />
    <glyph glyph-name="CR" unicode="&#xd;" horiz-adv-x="399" 
 />
    <glyph glyph-name="space" unicode=" " horiz-adv-x="200" 
 />
    <glyph glyph-name="exclam" unicode="!" horiz-adv-x="195" 
d="M40 685h5q0 15 42 15q18 0 30 -4.5t12 -10.5q0 -15 -5.5 -227t-5.5 -233q0 -13 18 -33.5t18 -21.5q0 -3 -6.5 -8t-18.5 -10t-24 -5q-28 0 -39.5 24t-11.5 54q0 23 -7 236.5t-7 223.5zM54 35q0 19 13 32t32 13t32 -13t13 -32t-13 -32t-32 -13t-32 13t-13 32z" />
    <glyph glyph-name="quotedbl" unicode="&#x22;" horiz-adv-x="357" 
d="M157 622q0 -21 -7.5 -67.5t-15.5 -82.5l-7 -35q-1 -6 -15 -6q-12 0 -12 6q0 55 -1.5 101t-2.5 65l-2 19q0 13 -12 33.5t-12 21.5q0 4 18.5 13.5t30.5 9.5q38 0 38 -78zM287 622q0 -21 -7.5 -67.5t-15.5 -82.5l-7 -35q-1 -6 -15 -6q-12 0 -12 6q0 55 -1.5 101t-2.5 65
l-2 19q0 13 -12 33.5t-12 21.5q0 4 18.5 13.5t30.5 9.5q38 0 38 -78z" />
    <glyph glyph-name="numbersign" unicode="#" horiz-adv-x="833" 
d="M241 196l-81 -196h-66l81 196h-49q-13 0 -33.5 -18.5t-21.5 -18.5q-4 0 -13.5 18.5t-9.5 30.5q0 22 24.5 32t53.5 10h72l75 181h-102q-13 0 -33.5 -18.5t-21.5 -18.5q-4 0 -13.5 18.5t-9.5 30.5q0 22 24.5 32t53.5 10h125l61 150q-4 10 -12.5 19.5t-14.5 15t-6 7.5
q0 3 9 8t23.5 10t26.5 5h67l-88 -215h133l61 150q-4 10 -12.5 19.5t-14.5 15t-6 7.5q0 3 9 8t23.5 10t26.5 5h67l-88 -215h118l-17 -54h-124l-75 -181h190l-17 -54h-196l-81 -196h-66l81 196h-133zM264 250h133l75 181h-133z" />
    <glyph glyph-name="dollar" unicode="$" horiz-adv-x="639" 
d="M337 -8q0 -12 16.5 -32.5t16.5 -21.5q0 -3 -9 -8t-23.5 -10t-26.5 -5q-29 0 -45 25.5t-16 53.5q-36 5 -67.5 16t-51 24t-34 26.5t-21 24t-6.5 15.5q0 17 19 33.5t35 16.5q6 0 22.5 -17t36.5 -37.5t54.5 -37.5t72.5 -17q63 0 113.5 36t50.5 102q0 48 -41 81.5t-99.5 53
l-117 39t-99.5 53t-41 81.5q0 104 61.5 158t149.5 63q0 15 -18 36t-18 22q0 3 9 8t23.5 10t26.5 5q29 0 45 -25.5t16 -56.5q58 -8 106.5 -31.5t69.5 -44.5t21 -31q0 -16 -22 -38.5t-38 -22.5q-6 0 -21.5 18.5t-35 40t-57.5 40t-83 18.5q-63 0 -102.5 -47.5t-39.5 -106.5
q0 -44 41 -75.5t100 -51t117.5 -40.5t99.5 -56t41 -85q0 -97 -66 -145.5t-165 -56.5z" />
    <glyph glyph-name="percent" unicode="%" horiz-adv-x="666" 
d="M456 700h67l-340 -700h-66l313 635q-4 10 -12.5 19.5t-14.5 15t-6 7.5q0 3 9 8t23.5 10t26.5 5zM201 394q35 0 47.5 34t12.5 96q0 71 -16 106t-59 35q-35 0 -47.5 -33.5t-12.5 -96.5q0 -71 16 -106t59 -35zM196 710q36 0 61.5 -18t37.5 -48t17 -59.5t5 -61.5
q0 -86 -34.5 -129.5t-90.5 -43.5q-36 0 -61.5 18t-38 47.5t-17.5 59t-5 61.5q0 86 34.5 130t91.5 44zM478 34q35 0 47.5 34t12.5 96q0 71 -16 106t-59 35q-35 0 -47.5 -33.5t-12.5 -96.5q0 -71 16 -106t59 -35zM473 350q36 0 61.5 -18t37.5 -48t17 -59.5t5 -61.5
q0 -86 -34.5 -129.5t-90.5 -43.5q-36 0 -61.5 18t-38 47.5t-17.5 59t-5 61.5q0 86 34.5 130t91.5 44z" />
    <glyph glyph-name="ampersand" unicode="&#x26;" horiz-adv-x="696" 
d="M367 275q-13 0 -33.5 -18.5t-21.5 -18.5q-4 0 -13.5 16t-9.5 28q0 22 26 37t52 15q24 0 83 -5t76 -5q12 0 39 21t38 21q4 0 13.5 -16t9.5 -28q0 -26 -27 -41t-63 -15q-14 0 -41 10l6 -3t14 -9.5t17.5 -18t14 -29t6.5 -40.5q0 -94 -62.5 -140t-164.5 -46q-112 0 -184 68
t-72 155q0 48 19 87t46.5 60.5t53.5 33t46 11.5q-1 1 -22.5 6t-34.5 12t-31 20.5t-27.5 38.5t-9.5 59q0 65 55.5 117t134.5 52q47 0 84.5 -10.5t58 -24.5t34 -30.5t18 -27.5t4.5 -16q0 -10 -21 -28t-31 -18q-3 0 -12.5 14.5t-22 32.5t-39 32.5t-59.5 14.5q-51 0 -86.5 -37.5
t-35.5 -78.5q0 -49 44 -75.5t110 -26.5q7 0 7 -37q0 -18 -18.5 -29t-43.5 -11q-57 0 -95.5 -43t-38.5 -98q0 -70 53 -111t115 -41q66 0 108.5 27t42.5 82q0 53 -25.5 79t-83.5 26z" />
    <glyph glyph-name="quotesingle" unicode="'" horiz-adv-x="227" 
d="M157 622q0 -21 -7.5 -67.5t-15.5 -82.5l-7 -35q-1 -6 -15 -6q-12 0 -12 6q0 55 -1.5 101t-2.5 65l-2 19q0 13 -12 33.5t-12 21.5q0 4 18.5 13.5t30.5 9.5q38 0 38 -78z" />
    <glyph glyph-name="parenleft" unicode="(" horiz-adv-x="409" 
d="M70 225q0 119 24 210.5t56.5 139.5t73 78.5t67.5 38.5t45 8q3 0 3 -9q0 -13 -4 -29t-9 -16q-14 0 -32.5 -8t-45 -35.5t-47.5 -70.5t-36.5 -123t-15.5 -184t15.5 -184t36.5 -123t47.5 -70.5t45 -35.5t32.5 -8q5 0 9 -16t4 -29q0 -9 -3 -9q-18 0 -45 8t-67.5 38.5t-73 78.5
t-56.5 139.5t-24 210.5z" />
    <glyph glyph-name="parenright" unicode=")" horiz-adv-x="409" 
d="M339 225q0 -119 -24 -210.5t-56.5 -139.5t-73 -78.5t-67.5 -38.5t-45 -8q-3 0 -3 9q0 13 4 29t9 16q14 0 32.5 8t45 35.5t47.5 70.5t36.5 123t15.5 184t-15.5 184t-36.5 123t-47.5 70.5t-45 35.5t-32.5 8q-5 0 -9 16t-4 29q0 9 3 9q18 0 45 -8t67.5 -38.5t73 -78.5
t56.5 -139.5t24 -210.5z" />
    <glyph glyph-name="asterisk" unicode="*" horiz-adv-x="494" 
d="M262 700q21 0 32 -28.5t11 -47.5q0 -20 -20 -57t-20 -40q37 0 62.5 10t34.5 22.5t15 22.5t9 10q9 0 24 -18t15 -32q0 -17 -24.5 -36.5t-58.5 -19.5q-21 0 -46.5 9.5t-27.5 9.5q-4 0 -4 -5q0 -12 21 -52.5t36 -40.5q60 0 60 -13q0 -10 -14 -32t-29 -22q-23 0 -41 16
t-27.5 39t-16 45.5t-9.5 38.5t-4 16q-6 0 -38.5 -40t-32.5 -53q0 -6 3 -21.5t3 -20.5q0 -10 -7 -10q-11 0 -23.5 2t-27 13.5t-14.5 30.5q0 31 13.5 54t32.5 34t38 17.5t32.5 9t13.5 4.5q0 6 -45.5 24.5t-60.5 18.5q-12 0 -31.5 -11t-20.5 -11q-5 0 -5 53q0 13 11.5 25.5
t38.5 12.5q30 0 59 -23t46.5 -46t20.5 -23q4 0 4 14q0 13 -4 44t-4 34q0 7 -17.5 27t-17.5 22q0 5 19.5 14.5t35.5 9.5z" />
    <glyph glyph-name="plus" unicode="+" horiz-adv-x="510" 
d="M240 431v170l54 -17v-153h167l-17 -54h-150v-119q1 -13 19 -33.5t18 -21.5q0 -4 -18.5 -13.5t-30.5 -9.5q-22 0 -32 24.5t-10 53.5v119h-92q-13 -1 -33.5 -19t-21.5 -18q-4 0 -13.5 18.5t-9.5 30.5q0 22 24.5 32t53.5 10h92z" />
    <glyph glyph-name="comma" unicode="," horiz-adv-x="189" 
d="M147 32q0 -21 -12.5 -49.5t-24.5 -46.5l-13 -18q-5 -6 -25 -6q-15 0 -15 16q0 2 5 18t10 40.5t5 45.5q0 13 -18.5 33.5t-18.5 21.5q0 4 23.5 13.5t35.5 9.5q22 0 35 -25.5t13 -52.5z" />
    <glyph glyph-name="hyphen" unicode="-" horiz-adv-x="390" 
d="M148 304h173l-17 -54h-156q-13 0 -33.5 -18.5t-21.5 -18.5q-4 0 -13.5 18.5t-9.5 30.5q0 22 24.5 32t53.5 10z" />
    <glyph glyph-name="period" unicode="." horiz-adv-x="169" 
d="M40 45q0 19 13 32t32 13t32 -13t13 -32t-13 -32t-32 -13t-32 13t-13 32z" />
    <glyph glyph-name="slash" unicode="/" horiz-adv-x="479" 
d="M359 700h67l-290 -700h-66l263 635q-4 10 -12.5 19.5t-14.5 15t-6 7.5q0 3 9 8t23.5 10t26.5 5z" />
    <glyph glyph-name="zero" unicode="0" horiz-adv-x="632" 
d="M334 47q49 0 82.5 41.5t47.5 105t14 143.5q0 146 -43.5 231t-134.5 85q-73 0 -109 -82.5t-36 -207.5q0 -146 44 -231t135 -85zM321 710q58 0 102.5 -25t70.5 -62.5t42 -89.5t21.5 -99t5.5 -97q0 -172 -68.5 -259.5t-181.5 -87.5q-72 0 -123 36t-75.5 96t-34.5 118
t-10 123q0 172 69 259.5t182 87.5z" />
    <glyph glyph-name="one" unicode="1" horiz-adv-x="375" 
d="M70 574l125 126h55q8 0 13 -4.5t5 -9.5l1 -4v-634q0 -13 18 -27.5t18 -15.5q0 -5 -55 -5h-37q-54 0 -54 5q0 1 18 15.5t18 27.5v574l-57 -54q-7 -2 -23 -2q-10 0 -21 1.5t-17.5 3.5t-6.5 3z" />
    <glyph glyph-name="two" unicode="2" horiz-adv-x="565" 
d="M149 544q0 -14 10.5 -26.5t21 -19.5t10.5 -9q0 -3 -9 -8.5t-24 -10t-27 -4.5q-29 0 -45 25t-16 53q0 78 63.5 122t148.5 44q90 0 147.5 -53.5t57.5 -141.5q0 -44 -24.5 -91t-61.5 -86t-80 -80t-80 -73.5t-61.5 -66t-24.5 -58.5h230q45 0 67.5 11.5t27.5 11.5
q13 0 19.5 -25t6.5 -38q0 -9 -16 -14t-32 -6h-17h-337q-24 0 -29 10t-5 41q0 37 34.5 82.5t83.5 90.5t98 90.5t83.5 96t34.5 94.5q0 71 -37 107.5t-92 36.5q-51 0 -88.5 -28t-37.5 -77z" />
    <glyph glyph-name="three" unicode="3" horiz-adv-x="565" 
d="M260 51q61 0 106 36t45 106q0 47 -31 84t-86 37q-25 0 -43.5 11t-18.5 29q0 37 7 37q62 0 109.5 45t47.5 97q0 44 -36 80t-89 36q-33 0 -59.5 -14.5t-39 -32.5t-22 -32.5t-12.5 -14.5q-10 0 -31 18t-21 28q0 5 4.5 16t18 27.5t34 30.5t58 24.5t84.5 10.5q79 0 134.5 -52
t55.5 -117q0 -42 -15 -76t-38 -54t-40 -30.5t-32 -15.5q44 0 94.5 -48.5t50.5 -123.5q0 -87 -61.5 -145t-174.5 -58q-42 0 -76.5 10.5t-54.5 24.5t-34 30.5t-19 27.5t-5 16q0 10 21 28t31 18q5 0 14.5 -14.5t21.5 -32.5t39 -32.5t63 -14.5z" />
    <glyph glyph-name="four" unicode="4" horiz-adv-x="643" 
d="M181 252h250v372zM498 196v-128q0 -13 18 -33.5t18 -21.5q0 -3 -7.5 -8t-21 -10t-25.5 -5q-49 0 -49 78v128h-334q-27 0 -27 21q318 465 318 470q0 3 7.5 8t21 10t25.5 5q28 0 42 -24.5t14 -53.5v-380h85l-17 -56h-68z" />
    <glyph glyph-name="five" unicode="5" horiz-adv-x="571" 
d="M265 51q72 0 111 46t39 118q0 64 -33.5 109t-89.5 45h-176q-17 0 -25 7t-9.5 15t-1.5 25l30 256q8 28 34 28h257q65 0 65 -20q0 -13 -6.5 -38t-19.5 -25q-7 0 -12.5 3.5t-10 8t-20.5 8t-42 3.5h-181l-24 -209h138q93 0 146 -59t53 -167q0 -87 -59.5 -151t-163.5 -64
q-42 0 -76.5 10.5t-54.5 24.5t-34 30.5t-19 27.5t-5 16q0 10 21 28t31 18q5 0 14.5 -14.5t21.5 -32.5t39 -32.5t63 -14.5z" />
    <glyph glyph-name="six" unicode="6" horiz-adv-x="582" 
d="M71 225q0 81 25 157.5t62.5 130.5t81 97t80 65.5t60.5 26.5q17 5 36 8q7 0 7 -10q0 -5 -2.5 -11.5t-5.5 -10.5l-3 -4q-68 -22 -146.5 -119.5t-102.5 -178.5q15 17 51 31.5t85 14.5q91 0 150 -55.5t59 -157.5t-66.5 -160.5t-150.5 -58.5q-95 0 -157.5 71.5t-62.5 163.5z
M153 204q0 -75 46.5 -115.5t99.5 -40.5q124 0 124 161q0 39 -10 72t-41 59t-81 26q-67 0 -102.5 -47t-35.5 -115z" />
    <glyph glyph-name="seven" unicode="7" horiz-adv-x="609" 
d="M222 0h-72q0 40 79 200t158 300l79 140h-285q-26 0 -42 -3.5t-20.5 -8t-10 -8t-12.5 -3.5q-13 0 -19.5 25t-6.5 38q0 9 16 14t32 6h17h371q23 0 28.5 -13t5.5 -46q-13 -22 -34.5 -60t-76 -138t-96.5 -181t-76.5 -159t-34.5 -103z" />
    <glyph glyph-name="eight" unicode="8" horiz-adv-x="582" 
d="M261 341q-43 -19 -77 -61.5t-34 -106.5q0 -67 48 -101.5t93 -34.5q49 0 90 33.5t41 102.5q0 35 -16.5 65t-40 48t-47.5 31t-40 19zM298 661q-57 0 -87.5 -42t-30.5 -79q0 -34 11.5 -59t28.5 -37.5t34 -20t28 -9.5l12 -1q53 22 86.5 57t33.5 74q0 41 -35 79t-81 38z
M296 710q83 0 140 -42.5t57 -110.5q0 -34 -14.5 -64t-32.5 -48t-44.5 -34t-39.5 -21.5t-28 -10.5q23 -9 48 -23t57 -38.5t52.5 -60t20.5 -74.5q0 -81 -66.5 -137t-155.5 -56t-154.5 52t-65.5 138q0 62 52 124.5t97 72.5q-15 6 -31 16.5t-37.5 28.5t-35 46t-13.5 59
q0 73 53 128t141 55z" />
    <glyph glyph-name="nine" unicode="9" horiz-adv-x="578" 
d="M507 475q0 -81 -25 -157.5t-62.5 -130.5t-81 -97t-80 -65.5t-60.5 -26.5q-26 -7 -36 -8q-7 0 -7 10q0 5 2.5 10.5t5.5 8.5l3 3q71 32 148 127t101 175q-15 -17 -51 -31.5t-85 -14.5q-91 0 -150 55.5t-59 157.5t66.5 160.5t150.5 58.5q115 0 167.5 -64.5t52.5 -170.5z
M425 496q0 87 -39 121.5t-107 34.5q-56 0 -92.5 -44.5t-36.5 -116.5q0 -62 32.5 -109.5t104.5 -47.5q67 0 102.5 47t35.5 115z" />
    <glyph glyph-name="colon" unicode=":" horiz-adv-x="231" 
d="M70 346q0 19 13 32t32 13t32 -13t13 -32t-13 -32t-32 -13t-32 13t-13 32zM70 45q0 19 13 32t32 13t32 -13t13 -32t-13 -32t-32 -13t-32 13t-13 32z" />
    <glyph glyph-name="semicolon" unicode=";" horiz-adv-x="257" 
d="M177 32q0 -21 -12.5 -49.5t-24.5 -46.5l-13 -18q-5 -6 -25 -6q-15 0 -15 16q0 2 5 18t10 40.5t5 45.5q0 13 -18.5 33.5t-18.5 21.5q0 4 23.5 13.5t35.5 9.5q22 0 35 -25.5t13 -52.5zM72 346q0 19 13 32t32 13t32 -13t13 -32t-13 -32t-32 -13t-32 13t-13 32z" />
    <glyph glyph-name="less" unicode="&#x3c;" horiz-adv-x="497" 
d="M164 344l256 -200q5 -2 5 -32q0 -14 -4 -23.5t-8.5 -12.5t-7.5 -3q-2 0 -6.5 4.5t-10.5 11t-12 9.5l-301 229q-5 4 -5 27q0 13 4 27t8.5 23t7.5 9t14 -11.5t15 -13.5q7 0 149 119t152 119q2 0 4.5 -15t2.5 -26q0 -29 -7 -32z" />
    <glyph glyph-name="equal" unicode="=" horiz-adv-x="481" 
d="M148 431h263l-17 -54h-246q-13 0 -33.5 -18.5t-21.5 -18.5q-4 0 -13.5 18.5t-9.5 30.5q0 22 24.5 32t53.5 10zM148 304h263l-17 -54h-246q-13 0 -33.5 -18.5t-21.5 -18.5q-4 0 -13.5 18.5t-9.5 30.5q0 22 24.5 32t53.5 10z" />
    <glyph glyph-name="greater" unicode="&#x3e;" horiz-adv-x="497" 
d="M333 355l-256 200q-5 2 -5 32q0 14 4 23.5t8.5 12.5t7.5 3q2 0 6.5 -4.5t10.5 -11t12 -9.5l301 -229q5 -4 5 -27q0 -13 -4 -27t-8.5 -23t-7.5 -9t-14 11.5t-15 13.5q-7 0 -149 -119t-152 -119q-2 0 -4.5 15t-2.5 26q0 29 7 32z" />
    <glyph glyph-name="question" unicode="?" horiz-adv-x="548" 
d="M226 35q0 19 13 32t32 13t32 -13t13 -32t-13 -32t-32 -13t-32 13t-13 32zM149 544q0 -13 18.5 -33.5t18.5 -21.5q0 -3 -8 -8t-21.5 -10t-25.5 -5q-29 0 -45 25t-16 53q0 78 59 122t143 44q90 0 147.5 -53.5t57.5 -141.5q0 -68 -19 -114.5t-46 -67t-54 -35t-46 -31
t-19 -42.5q0 -13 19 -33.5t19 -21.5q0 -3 -9 -8.5t-24 -10t-27 -4.5q-28 0 -41.5 24.5t-13.5 53.5q0 38 13.5 63.5t34 37t44.5 25t44.5 28t34 47t13.5 79.5q0 71 -39.5 107.5t-95.5 36.5q-47 0 -81.5 -32t-34.5 -73z" />
    <glyph glyph-name="at" unicode="@" horiz-adv-x="779" 
d="M445 251v174q-2 5 -7 12.5t-24.5 20t-44.5 12.5q-24 0 -39.5 -11t-22 -33.5t-8 -41.5t-1.5 -49q0 -43 21.5 -78.5t46.5 -35.5q20 0 40 7.5t30 15.5zM383 -10q-84 0 -146 28.5t-97.5 80.5t-52.5 117.5t-17 146.5q0 91 29.5 161t77.5 109t102.5 58t111.5 19q84 0 146 -28.5
t97.5 -80.5t52.5 -117.5t17 -146.5q0 -31 -5.5 -65t-17.5 -70t-36.5 -59.5t-56.5 -23.5q-42 0 -70 8.5t-39.5 22.5t-15.5 25t-4 22q-44 -32 -113 -33q-52 0 -88 44.5t-36 118.5q0 200 147 200q26 0 47 -8.5t29 -16.5l8 -9q0 10 -14.5 26.5t-14.5 17.5q0 2 7 6.5t18.5 8
t21.5 3.5q23 0 36 -20t13 -42v-268q0 -48 45 -48q31 0 47.5 53t16.5 107q0 162 -73.5 239t-185.5 77q-110 0 -162.5 -78t-52.5 -212q0 -164 70 -245t179 -81q81 0 141.5 21.5t85.5 21.5t51.5 -17t26.5 -40q0 -12 -9.5 -28t-13.5 -16q-1 0 -21.5 20.5t-33.5 20.5
q-8 0 -37 -7.5t-84 -15t-127 -7.5z" />
    <glyph glyph-name="A" unicode="A" horiz-adv-x="706" 
d="M239 250h209l-100 316zM70 6l244 645q-2 4 -13.5 15t-11.5 14t9 7.5t23 8.5t27 4q25 0 27 -5l225 -627q5 -11 14 -23.5t15.5 -21t6.5 -10.5q0 -3 -9 -8t-23.5 -10t-26.5 -5q-19 0 -37 19.5t-26 38.5l-8 20l-42 133h-242l-67 -195q-2 -6 -38 -6q-47 0 -47 6z" />
    <glyph glyph-name="B" unicode="B" horiz-adv-x="618" 
d="M190 320v-265q0 -15 67 -15q207 0 207 137q0 143 -170 143h-104zM392 359q71 -21 113.5 -67.5t42.5 -113.5q0 -43 -12.5 -75.5t-36.5 -52.5t-49.5 -32.5t-62.5 -18.5t-64.5 -7.5t-65.5 -1.5q-41 0 -76.5 2.5t-55 5.5t-19.5 7v622q0 13 -18 32.5t-18 20.5q0 3 9 7.5
t23 8.5t27 4h116q119 0 186 -48.5t67 -143.5q0 -100 -106 -149zM273 374q71 10 106 40t35 93q0 143 -170 143h-54v-276h83z" />
    <glyph glyph-name="C" unicode="C" horiz-adv-x="712" 
d="M70 363q0 91 29.5 161t77.5 109t102.5 58t111.5 19q48 0 90.5 -7.5t71 -18.5t49.5 -24t30.5 -23.5t9.5 -17.5q0 -14 -29.5 -32.5t-48.5 -18.5q-7 0 -32 21t-67.5 42.5t-94.5 21.5q-205 0 -205 -290q0 -143 57 -229t163 -86q51 0 92 17t60 37t34.5 37t22.5 17
q17 0 31.5 -21t14.5 -37q0 -10 -6 -22t-24 -27.5t-45 -28t-74.5 -21.5t-107.5 -9q-84 0 -146 28.5t-97.5 80.5t-52.5 117.5t-17 146.5z" />
    <glyph glyph-name="D" unicode="D" horiz-adv-x="738" 
d="M106 5v622q0 13 -18 32.5t-18 20.5q0 3 9 7.5t23 8.5t27 4h229q134 0 222 -97.5t88 -243.5q0 -143 -96 -251t-211 -108q-255 0 -255 5zM190 647v-585q86 -8 153 -8q99 0 160.5 76.5t61.5 228.5q0 34 -4.5 68t-19 75.5t-38 72t-65 51.5t-95.5 21h-153z" />
    <glyph glyph-name="E" unicode="E" 
d="M355 325h-165v-266h243q13 0 33.5 16t21.5 16q4 0 13.5 -18.5t9.5 -30.5q0 -22 -24.5 -32t-53.5 -10h-327v627q0 13 -18 32.5t-18 20.5q0 3 9 7.5t23 8.5t27 4h304q29 0 53.5 -10t24.5 -32q0 -12 -9.5 -30.5t-13.5 -18.5q-1 0 -21.5 16t-33.5 16h-243v-257h165
q13 0 38.5 3.5t26.5 3.5q13 0 13 -19q0 -29 -19.5 -38t-58.5 -9z" />
    <glyph glyph-name="F" unicode="F" 
d="M106 6v621q0 13 -18 32.5t-18 20.5q0 3 9 7.5t23 8.5t27 4h304q29 0 53.5 -10t24.5 -32q0 -12 -9.5 -30.5t-13.5 -18.5q-1 0 -21.5 16t-33.5 16h-243v-257h165q13 0 38.5 3.5t26.5 3.5q13 0 13 -19q0 -27 -18.5 -37t-59.5 -10h-165v-319q0 -6 -42 -6t-42 6z" />
    <glyph glyph-name="G" unicode="G" horiz-adv-x="712" 
d="M640 247v-149q0 -11 -3.5 -22t-19 -27.5t-41.5 -28.5t-76 -21t-117 -9q-84 0 -146 28.5t-97.5 80.5t-52.5 117.5t-17 146.5q0 91 29.5 161t77.5 109t102.5 58t111.5 19q48 0 90.5 -7.5t71 -18.5t49.5 -24t30.5 -23.5t9.5 -17.5q0 -14 -29.5 -32.5t-48.5 -18.5
q-7 0 -32 21t-67.5 42.5t-94.5 21.5q-110 0 -162.5 -78t-52.5 -212q0 -141 61.5 -228t168.5 -87q59 0 102.5 15.5t58.5 30.5l14 16v137q0 13 -20 33.5t-20 21.5q0 3 7.5 8t21 10t25.5 5q29 0 47.5 -25.5t18.5 -52.5z" />
    <glyph glyph-name="H" unicode="H" horiz-adv-x="737" 
d="M190 379h357v315q0 6 42 6t42 -6v-626q0 -13 18 -33.5t18 -21.5q0 -3 -7.5 -8t-21 -10t-25.5 -5q-29 0 -47.5 25.5t-18.5 52.5v252h-357v-314q0 -6 -42 -6t-42 6v626q0 13 -18 33.5t-18 21.5q0 3 7.5 8t21 10t25.5 5q29 0 47.5 -25.5t18.5 -52.5v-253z" />
    <glyph glyph-name="I" unicode="I" horiz-adv-x="286" 
d="M106 78v554q0 13 -18 33.5t-18 21.5q0 3 7.5 8t21 10t25.5 5h37q13 0 26.5 -5t21 -10t7.5 -8q0 -1 -18 -21.5t-18 -33.5v-554q0 -13 18 -33.5t18 -21.5q0 -3 -7.5 -8t-21 -10t-26.5 -5h-37q-12 0 -25.5 5t-21 10t-7.5 8q0 1 18 21.5t18 33.5z" />
    <glyph glyph-name="J" unicode="J" horiz-adv-x="478" 
d="M328 209v414q0 13 -18 33.5t-18 21.5q0 3 9 8t23.5 10t26.5 5q28 0 42.5 -25t14.5 -53v-414q0 -113 -47.5 -166t-119.5 -53q-48 0 -90 15t-61.5 31t-19.5 24q0 9 25 27t37 18q5 0 23.5 -15t45.5 -30.5t53 -15.5q18 0 31 5t21 17.5t12.5 24t6.5 34t2.5 38.5t0.5 46z" />
    <glyph glyph-name="K" unicode="K" horiz-adv-x="688" 
d="M618 9q0 -6 -17.5 -7.5t-91.5 -1.5q-25 0 -51.5 14t-47 32.5t-49 55.5t-46.5 64t-52 78.5t-53 80.5l-25 -31v-288q0 -6 -42 -6q-37 0 -37 6v626q0 13 -18 33.5t-18 21.5q0 3 7.5 8t21 10t25.5 5q29 0 45 -25t16 -53v-255q24 19 70 68.5t84.5 94.5t79.5 94t44 53
q12 13 61 13q55 0 55 -8q0 -3 -1 -5l-304 -318q28 -49 60 -97t77.5 -107t95 -95.5t91.5 -36.5q8 0 14 -9.5t6 -14.5z" />
    <glyph glyph-name="L" unicode="L" 
d="M190 627v-568h243q13 0 33.5 19t21.5 19q4 0 13.5 -21.5t9.5 -33.5q0 -22 -24.5 -32t-53.5 -10h-304q-23 0 -23 6v621q0 13 -18 33.5t-18 21.5q0 3 9 9.5t23.5 12.5t26.5 6q29 0 45 -27.5t16 -55.5z" />
    <glyph glyph-name="M" unicode="M" horiz-adv-x="876" 
d="M150 608q1 7 -19.5 38.5t-20.5 33.5q0 3 8.5 7.5t23 8.5t27.5 4l13 -1l237 -532l237 532q4 1 13 1l6 -1l95 -641q4 -18 13 -31.5t16 -19t7 -7.5q0 -4 -19 -7t-40 -3q-54 0 -60 60l-50 430l-212 -480q-2 -1 -6 -1l-6 1l-212 480l-47 -474q0 -6 -42 -6t-42 6z" />
    <glyph glyph-name="N" unicode="N" horiz-adv-x="701" 
d="M544 6l-364 581v-581q0 -6 -32 -6q-42 0 -42 6v616q0 13 -18 33.5t-18 21.5q0 3 9 8t23.5 10t26.5 5h61l367 -582v576q0 6 36 6q38 0 38 -6v-688q0 -6 -48 -6q-36 0 -39 6z" />
    <glyph glyph-name="O" unicode="O" horiz-adv-x="774" 
d="M404 47q110 0 162.5 78t52.5 212q0 144 -69.5 230t-179.5 86t-162.5 -78t-52.5 -212q0 -144 69.5 -230t179.5 -86zM383 -10q-84 0 -146 28.5t-97.5 80.5t-52.5 117.5t-17 146.5q0 91 29.5 161t77.5 109t102.5 58t111.5 19q84 0 146 -28.5t97.5 -80.5t52.5 -117.5
t17 -146.5q0 -91 -29.5 -161t-77.5 -109t-102.5 -58t-111.5 -19z" />
    <glyph glyph-name="P" unicode="P" horiz-adv-x="578" 
d="M273 374q64 0 107.5 35t43.5 98q0 75 -49 109t-131 34h-54v-276h83zM106 6v621q0 13 -18 32.5t-18 20.5q0 3 9 7.5t23 8.5t27 4h116q120 0 191.5 -49t71.5 -143q0 -29 -14.5 -59.5t-41.5 -58.5t-74 -46t-105 -18l-83 -1v-319q0 -6 -42 -6t-42 6z" />
    <glyph glyph-name="Q" unicode="Q" horiz-adv-x="774" 
d="M404 47q110 0 162.5 78t52.5 212q0 144 -69.5 230t-179.5 86t-162.5 -78t-52.5 -212q0 -144 69.5 -230t179.5 -86zM492 8q-51 -18 -109 -18q-84 0 -146 28.5t-97.5 80.5t-52.5 117.5t-17 146.5q0 91 29.5 161t77.5 109t102.5 58t111.5 19q84 0 146 -28.5t97.5 -80.5
t52.5 -117.5t17 -146.5q0 -201 -138 -293q3 -4 18.5 -24t25 -31.5t28.5 -30t35 -29t39 -19t46 -8.5q5 0 10.5 -8t5.5 -16t-34 -8t-54.5 2.5t-53.5 14.5t-67 42t-73 79z" />
    <glyph glyph-name="R" unicode="R" horiz-adv-x="687" 
d="M273 374q63 0 102 34.5t39 98.5q0 143 -170 143h-54v-276h83zM224 325h-34v-320q0 -6 -42 -6t-42 6v622q0 13 -18 32.5t-18 20.5q0 3 9 7.5t23 8.5t27 4h116q119 0 186 -48.5t67 -143.5q0 -25 -10.5 -53t-31.5 -56.5t-61 -48.5t-91 -22q46 -99 134.5 -198.5t162.5 -99.5
q5 0 10.5 -8t5.5 -16q0 -4 -16 -5t-89 -1q-44 0 -104.5 60.5t-105 129t-78.5 135.5z" />
    <glyph glyph-name="S" unicode="S" horiz-adv-x="638" 
d="M568 194q0 -56 -23.5 -97t-64 -63t-85.5 -32.5t-96 -10.5q-46 0 -86 9.5t-65.5 23.5t-43.5 30t-26 28t-8 18q0 17 19 33.5t35 16.5q6 0 22.5 -17t36.5 -37.5t54.5 -37.5t72.5 -17q64 0 116.5 36t52.5 102q0 41 -41 78q-31 28 -97 54t-121.5 43t-99.5 54t-44 89
q0 59 21.5 102.5t58.5 66.5t77 33.5t85 10.5q46 0 88 -9.5t70.5 -23.5t50 -30t31.5 -28.5t10 -18.5q0 -16 -22 -38.5t-38 -22.5q-6 0 -21.5 18.5t-35 40t-57.5 40t-83 18.5q-64 0 -105.5 -48t-41.5 -106q0 -26 27 -57q22 -26 70.5 -48t98.5 -38.5t98.5 -36.5t79 -52.5
t30.5 -75.5z" />
    <glyph glyph-name="T" unicode="T" horiz-adv-x="695" 
d="M148 641q-13 -1 -33.5 -6.5t-21.5 -5.5q-4 0 -13.5 15.5t-9.5 27.5v18q0 7 1.5 8.5t8.5 1.5h545l-17 -59h-213v-635q0 -6 -42 -6t-42 6v635h-163z" />
    <glyph glyph-name="U" unicode="U" horiz-adv-x="701" 
d="M547 336v358q0 6 42 6t42 -6v-361q0 -179 -67.5 -261t-183.5 -82q-67 0 -117 19.5t-79.5 51.5t-47.5 82t-24 101.5t-6 118.5v264q0 13 -18 33.5t-18 21.5q0 3 9 8t23.5 10t26.5 5q29 0 45 -25t16 -53v-264q0 -146 46.5 -231t143.5 -85q91 0 129 76t38 213z" />
    <glyph glyph-name="V" unicode="V" horiz-adv-x="706" 
d="M548 694q2 6 41 6q47 0 47 -6l-261 -689q-3 -5 -23 -5q-19 0 -21 5l-225 627q-5 11 -14 23.5t-15.5 21t-6.5 10.5q0 3 9 8t23.5 10t26.5 5q21 0 41.5 -25t29.5 -53l152 -468z" />
    <glyph glyph-name="W" unicode="W" horiz-adv-x="1129" 
d="M570 530l-195 -525q-3 -5 -23 -5q-19 0 -21 5l-225 627q-5 11 -14 23.5t-15.5 21t-6.5 10.5q0 3 10.5 8.5t27 10t28.5 4.5q14 0 27.5 -19.5t20.5 -38.5l6 -20l168 -468l166 456q0 18 -8 33t-15.5 23.5t-7.5 10.5q0 3 12.5 8.5t30 10t30.5 4.5q14 0 28 -19.5t22 -38.5
l7 -20l158 -468l195 530q2 6 38 6q45 0 45 -6l-261 -689q-3 -5 -23 -5q-19 0 -21 5z" />
    <glyph glyph-name="X" unicode="X" horiz-adv-x="699" 
d="M352 423l182 268q6 9 46 9q32 0 40.5 -1.5t8.5 -7.5l-234 -337l152 -240q6 -10 26.5 -34t38 -44.5t17.5 -22.5q0 -3 -11.5 -8.5t-28.5 -10t-29 -4.5t-32.5 19.5t-34.5 38.5l-14 20l-133 206l-188 -268q-4 -6 -50 -6q-38 0 -38 6l233 340l-151 240q-8 14 -28.5 38.5
t-37 42.5t-16.5 20q0 3 11.5 8.5t28.5 10t29 4.5t30.5 -18.5t43.5 -54.5t45.5 -67.5t50.5 -79t43 -67.5z" />
    <glyph glyph-name="Y" unicode="Y" horiz-adv-x="699" 
d="M629 691l-241 -344v-341q0 -6 -42 -6t-42 6v341l-152 239q-5 9 -25.5 33t-38.5 45t-18 23q0 3 10 8.5t26 10t28 4.5q14 0 33 -19.5t31 -38.5l13 -20l135 -213l193 272q6 9 41 9q32 0 40.5 -1.5t8.5 -7.5z" />
    <glyph glyph-name="Z" unicode="Z" horiz-adv-x="693" 
d="M161 59h364q13 0 33.5 16t21.5 16q4 0 13.5 -16t9.5 -28q0 -22 -25.5 -34.5t-52.5 -12.5h-427q-47 0 -47 23q0 11 5.5 23t9 18t16.5 22t14 18l420 537h-368q-13 0 -33.5 -16t-21.5 -16q-4 0 -13.5 16t-9.5 28q0 22 25.5 34.5t52.5 12.5h427q48 0 48 -23q0 -10 -10.5 -30
t-18.5 -29z" />
    <glyph glyph-name="bracketleft" unicode="[" horiz-adv-x="408" 
d="M143 623v-796q0 -11 6 -22t16 -11q41 0 77.5 2.5t58 5t25.5 2.5t6.5 -13.5t3.5 -26.5v-14h-266v950h266q0 -54 -10 -54q-4 0 -25.5 2.5t-58 5t-77.5 2.5q-10 0 -16 -11t-6 -22z" />
    <glyph glyph-name="backslash" unicode="\" horiz-adv-x="510" 
d="M149 700l290 -700h-66l-263 635q-4 10 -14.5 19.5t-18 15t-7.5 7.5q0 3 14 8.5t33 10t32 4.5z" />
    <glyph glyph-name="bracketright" unicode="]" horiz-adv-x="346" 
d="M233 -173v796q0 11 -6 22t-16 11q-41 0 -77.5 -2.5t-58 -5t-25.5 -2.5t-6.5 13.5t-3.5 26.5v14h266v-950h-266q0 54 10 54q4 0 25.5 -2.5t58 -5t77.5 -2.5q10 0 16 11t6 22z" />
    <glyph glyph-name="asciicircum" unicode="^" horiz-adv-x="693" 
d="M532 350l-180 226l-189 -226q-5 -7 -52 -7q-11 0 -26 2.5t-15 4.5q0 10 119 152t119 149q-2 4 -13.5 15t-11.5 14t9 7.5t23 8.5t27 4q23 0 27 -5l229 -301q3 -6 9.5 -12t11 -10.5t4.5 -6.5q0 -20 -49 -20q-39 0 -42 5z" />
    <glyph glyph-name="underscore" unicode="_" horiz-adv-x="661" 
d="M70 0v49h521v-49h-521z" />
    <glyph glyph-name="grave" unicode="`" horiz-adv-x="313" 
d="M70 603q0 16 14.5 29t26.5 13q4 0 7.5 -9t10.5 -24.5t18 -33t34 -37.5t55 -34q7 -3 7 -9q0 -7 -14 -7q-47 0 -103 34t-56 78z" />
    <glyph glyph-name="a" unicode="a" horiz-adv-x="499" 
d="M319 250v56q0 30 -19 58t-55 28q-30 0 -55 -10t-40 -24t-25 -27.5t-15.5 -23.5t-6.5 -10q-3 0 -8.5 11.5t-10 28.5t-4.5 29q67 75 175 75q37 0 63.5 -8t40.5 -19.5t22 -31t10 -36t2 -40.5v-239q0 -12 18 -32.5t18 -21.5q0 -6 -17 -14.5t-32 -8.5q-17 0 -33 8t-23 16l-8 8
q-1 -4 -5 -9t-27 -14t-59 -9q-65 0 -110 34.5t-45 92.5q0 33 16 55t45.5 34t58 18.5t68.5 13t61 12.5zM319 85l1 120q-23 -6 -53 -11.5t-46.5 -9.5t-33.5 -11t-24.5 -20.5t-7.5 -35.5q0 -32 15.5 -49t33 -20.5t45.5 -3.5q17 0 30.5 4t20.5 10.5t11.5 12.5t6.5 10z" />
    <glyph glyph-name="b" unicode="b" horiz-adv-x="548" 
d="M107 5v627q0 13 -18 33.5t-18 21.5q0 3 9 8.5t24 10t27 4.5q49 0 49 -78v-232q4 5 12.5 11.5t38.5 18t64 11.5q183 0 183 -223q0 -97 -64 -162.5t-157 -65.5q-41 0 -76.5 2.5t-54.5 5.5t-19 7zM180 328v-273q10 -15 77 -15q68 0 105 54.5t37 122.5q0 173 -105 173
q-34 0 -62.5 -15.5t-39.5 -30.5z" />
    <glyph glyph-name="c" unicode="c" horiz-adv-x="513" 
d="M70 225q0 58 18.5 101.5t49 67.5t64.5 35.5t70 11.5q48 0 90 -14.5t61.5 -29.5t19.5 -23q0 -9 -25 -27t-37 -18q-5 0 -23.5 15.5t-45.5 30.5t-53 15q-61 0 -85 -43t-24 -122t32.5 -132t85.5 -53q30 0 55 12.5t38 27.5t24 27.5t15 12.5q10 0 26 -20t16 -29q0 -6 -5 -15
t-18 -21t-32 -21.5t-50.5 -16.5t-69.5 -7q-103 0 -150 64.5t-47 170.5z" />
    <glyph glyph-name="d" unicode="d" horiz-adv-x="548" 
d="M369 400v232q0 13 -18 33.5t-18 21.5q0 3 9 8.5t24 10t27 4.5q49 0 49 -78v-565q0 -12 18 -32.5t18 -21.5q0 -5 -21.5 -14t-37.5 -9q-17 0 -33 8t-23 16l-7 8q-44 -31 -131 -32q-64 0 -109.5 55.5t-45.5 148.5q0 247 184 247q34 0 63 -10.5t41 -20.5zM369 85v243
q-2 3 -4.5 7t-13.5 14.5t-23 19t-32 15t-42 6.5q-34 0 -56 -16t-32 -46t-13 -58t-3 -67q0 -66 26.5 -114.5t72.5 -48.5q28 0 58 11t46 23z" />
    <glyph glyph-name="e" unicode="e" horiz-adv-x="525" 
d="M150 249h226q0 23 -0.5 36t-6.5 36t-16 35.5t-31.5 23t-52.5 10.5q-54 0 -86.5 -38.5t-32.5 -102.5zM384 202h-234q0 -60 33.5 -111t84.5 -51q30 0 55 12.5t38 27.5t24 27.5t15 12.5q10 0 26 -20t16 -29q0 -6 -5 -15t-18 -21t-32 -21.5t-50.5 -16.5t-69.5 -7
q-103 0 -150 64.5t-47 170.5q0 58 18.5 101.5t49 67.5t64.5 35.5t70 11.5q82 0 132.5 -50t50.5 -141q0 -36 -9 -42t-62 -6z" />
    <glyph glyph-name="f" unicode="f" horiz-adv-x="549" 
d="M158 5v372h-10q-13 -1 -33.5 -6.5t-21.5 -5.5q-5 0 -14 13t-9 25v18q0 7 1.5 8.5t8.5 1.5h78v61q0 112 48.5 165t121.5 53q48 0 85 -15t51.5 -30t14.5 -24t-25 -27t-37 -18q-5 0 -18.5 16t-35.5 31.5t-48 15.5t-43 -12t-25 -37t-10.5 -51t-2.5 -67v-61h177l-17 -54h-160
v-372q0 -6 -40 -6q-36 0 -36 6z" />
    <glyph glyph-name="g" unicode="g" horiz-adv-x="539" 
d="M180 92q-29 -24 -29 -42q0 -30 54 -30h81q75 0 121.5 -30t46.5 -96q0 -51 -51 -97.5t-159 -46.5q-83 0 -128.5 37.5t-45.5 87.5q0 21 17.5 37.5t31 22.5t26.5 10l29 -6q-6 -6 -19.5 -18t-19 -21t-5.5 -23q0 -30 39 -53.5t75 -23.5q69 0 100.5 28.5t31.5 67.5
q0 35 -24 52.5t-82 17.5h-78q-63 0 -87.5 15.5t-24.5 45.5q0 23 15 44.5t29 30.5l15 10q-69 48 -69 159q0 87 54.5 128.5t124.5 41.5q83 0 121 -34q13 1 44 19t32 18q4 0 13.5 -16t9.5 -28q0 -23 -63 -42q22 -45 22 -101q0 -49 -17.5 -85t-46 -54t-58.5 -26t-62 -8
q-35 0 -64 8zM243 391q-95 0 -95 -120q0 -63 28.5 -100t73.5 -37q100 0 100 123q0 62 -31 98t-76 36z" />
    <glyph glyph-name="h" unicode="h" horiz-adv-x="584" 
d="M404 68v149q0 173 -110 173q-34 0 -62.5 -20.5t-39.5 -41.5l-12 -20v-302q0 -6 -36 -6q-37 0 -37 6v626q0 13 -18 33.5t-18 21.5q0 3 9 8.5t24 10t27 4.5q49 0 49 -78v-249q4 6 12 16t37.5 26t65.5 16q183 0 183 -223v-150q0 -13 18 -33.5t18 -21.5q0 -3 -9 -8t-23.5 -10
t-26.5 -5q-28 0 -39.5 24t-11.5 54z" />
    <glyph glyph-name="i" unicode="i" horiz-adv-x="286" 
d="M180 363q0 30 -11.5 54t-39.5 24q-12 0 -26.5 -5t-23.5 -10t-9 -8q0 -1 18 -21.5t18 -33.5v-295q0 -28 16 -53t45 -25q12 0 24 5t18.5 10t6.5 8q0 1 -18 21.5t-18 33.5v295zM85 533q0 19 13 32t32 13t32 -13t13 -32t-13 -32t-32 -13t-32 13t-13 32z" />
    <glyph glyph-name="j" unicode="j" horiz-adv-x="377" 
d="M207 533q0 19 13 32t32 13t32 -13t13 -32t-13 -32t-32 -13t-32 13t-13 32zM161 -196q18 0 31 5t21 17.5t12.5 24t6.5 34t2.5 38.5t0.5 46v394q0 13 -18 33.5t-18 21.5q0 3 6.5 8t19 10t24.5 5q29 0 43.5 -25t14.5 -53v-394q0 -114 -44 -166.5t-115 -52.5
q-27 0 -52.5 12.5t-25.5 34.5q0 12 9.5 28t13.5 16q2 0 12 -9.5t25.5 -18.5t30.5 -9z" />
    <glyph glyph-name="k" unicode="k" horiz-adv-x="543" 
d="M473 8q0 -5 -9 -6l-86 -2q-41 0 -98.5 75t-86.5 135l-14 -10v-194q0 -6 -35 -6q-38 0 -38 6v626q0 13 -18 33.5t-18 21.5q0 3 9 8.5t24 10t27 4.5q49 0 49 -78v-367l179 153q15 13 48 13h17t10.5 -1.5t7.5 -4t2 -7.5q0 -2 -49 -45.5t-98 -85.5l-49 -42q30 -65 101 -141
t105 -76q8 0 14 -7t6 -13z" />
    <glyph glyph-name="l" unicode="l" horiz-adv-x="286" 
d="M180 632v-564q0 -13 18 -33.5t18 -21.5q0 -3 -7.5 -8t-21 -10t-25.5 -5q-28 0 -42 24.5t-14 53.5v564q0 13 -18 33.5t-18 21.5q0 3 9.5 8.5t24.5 10t27 4.5q49 0 49 -78z" />
    <glyph glyph-name="m" unicode="m" horiz-adv-x="772" 
d="M418 308v-303q0 -5 -37 -5t-37 5v212q0 34 -1 55t-5.5 53t-17 48.5t-31.5 16.5q-30 0 -57 -21.5t-40 -42.5l-12 -21v-300q0 -5 -37 -5t-37 5v358q0 13 -18 33.5t-18 21.5q0 3 9 8t23.5 10t26.5 5q27 0 41.5 -20t14.5 -34q4 6 12.5 15t36 24t58.5 15q32 0 57 -6.5
t37.5 -15.5t20 -17.5t9.5 -15.5l2 -6q4 7 12.5 17t38.5 27t64 17q25 0 44 -4t33 -13.5t23.5 -18.5t15.5 -27.5t9.5 -31.5t5 -39t2 -41.5t0.5 -47.5v-150q0 -13 18 -33.5t18 -21.5q0 -3 -9 -8t-23.5 -10t-26.5 -5q-28 0 -39.5 24t-11.5 54v149q0 173 -67 173q-28 0 -55 -20.5
t-40 -41.5z" />
    <glyph glyph-name="n" unicode="n" horiz-adv-x="584" 
d="M404 68v149q0 174 -110 174q-34 0 -62.5 -21.5t-39.5 -43.5l-12 -21v-300q0 -5 -37 -5t-37 5v358q0 13 -18 33.5t-18 21.5q0 3 9 8t23.5 10t26.5 5q27 0 41.5 -20t14.5 -34q4 6 11.5 15t36 24t62.5 15q183 0 183 -223v-150q0 -13 18 -33.5t18 -21.5q0 -3 -6.5 -8
t-18.5 -10t-24 -5q-29 0 -45 25t-16 53z" />
    <glyph glyph-name="o" unicode="o" horiz-adv-x="539" 
d="M272 444q103 0 150 -64.5t47 -170.5q0 -58 -18.5 -102t-49 -68.5t-64.5 -36.5t-70 -12q-103 0 -150 64.5t-47 170.5q0 58 18.5 102t49 68.5t64.5 36.5t70 12zM265 390q-114 0 -114 -165q0 -81 34 -133t89 -52q115 0 115 169q0 80 -34 130.5t-90 50.5z" />
    <glyph glyph-name="p" unicode="p" horiz-adv-x="549" 
d="M180 349v-243q2 -3 4.5 -7t13.5 -14.5t23 -19t32 -15t42 -6.5q104 0 104 187q0 62 -29.5 110.5t-69.5 48.5q-28 0 -58 -10t-46 -20zM106 -234v601q0 12 -18 31t-18 20q0 5 21.5 14t37.5 9q17 0 33 -8t24 -16l7 -8q44 31 131 32q65 0 110 -54t45 -147q0 -250 -184 -250
q-34 0 -63 11t-40 22l-12 11v-268q0 -6 -37 -6t-37 6z" />
    <glyph glyph-name="q" unicode="q" horiz-adv-x="548" 
d="M442 429v-601q0 -13 18 -33.5t18 -21.5q0 -3 -9 -8t-23.5 -10t-26.5 -5q-28 0 -39.5 24t-11.5 54v206q-4 -5 -12.5 -12.5t-38.5 -19.5t-64 -12q-95 0 -139 61t-44 165q0 96 64 160.5t157 64.5q151 0 151 -12zM368 106v273q-10 12 -77 12q-62 0 -101 -54.5t-39 -119.5
q0 -25 1 -43t6.5 -44.5t16 -43.5t30.5 -29.5t49 -12.5q34 0 62.5 15.5t39.5 30.5z" />
    <glyph glyph-name="r" unicode="r" horiz-adv-x="483" 
d="M295 442q58 0 88 -20.5t30 -46.5q0 -9 -25 -27t-37 -18q-5 0 -7 9.5t-4 20.5t-13.5 20.5t-31.5 9.5q-34 0 -62.5 -20.5t-40.5 -41.5l-12 -20v-303q0 -5 -37 -5t-37 5v358q0 13 -18 33.5t-18 21.5q0 3 9 8t23.5 10t26.5 5q27 0 39 -23.5t12 -40.5q2 3 5 7t13.5 15.5t23 20
t32 15.5t41.5 7z" />
    <glyph glyph-name="s" unicode="s" horiz-adv-x="454" 
d="M306 114q0 22 -24 37.5t-58 26t-68 22.5t-58 35.5t-24 57.5t11 60.5t28 42.5t40 26.5t44.5 14.5t42.5 4q41 0 76.5 -14.5t51.5 -29.5t16 -22q0 -10 -21 -28t-31 -18q-4 0 -19.5 15.5t-38.5 30.5t-45 15q-36 0 -58 -21.5t-22 -61.5q0 -28 36.5 -48.5t81 -32t81 -37.5
t36.5 -64q0 -134 -170 -134q-25 0 -49 6t-40.5 15t-29.5 18.5t-19 17.5t-6 12q0 10 21 28t31 18q4 0 19.5 -16.5t38.5 -33t45 -16.5q81 0 81 74z" />
    <glyph glyph-name="t" unicode="t" horiz-adv-x="489" 
d="M80 431h78v70q0 13 -19 33.5t-19 21.5q0 3 9 8.5t24 10t27 4.5q28 0 40 -24t12 -54v-70h179l-17 -54h-162v-169q0 -165 45 -165q26 0 42.5 15t24.5 30.5t13 15.5q12 0 37 -18t25 -27q0 -5 -3.5 -12.5t-13 -17.5t-24.5 -18.5t-41.5 -14.5t-59.5 -6q-73 0 -96 46t-23 172
v169h-10q-13 -1 -33.5 -6.5t-21.5 -5.5q-5 0 -14 13t-9 25v18q0 7 1.5 8.5t8.5 1.5z" />
    <glyph glyph-name="u" unicode="u" horiz-adv-x="584" 
d="M180 363v-146q0 -177 110 -177q34 0 62.5 21.5t39.5 42.5l12 22v303q0 6 37 6t37 -6v-361q0 -13 18 -33.5t18 -21.5q0 -3 -9 -8t-23.5 -10t-26.5 -5q-27 0 -41.5 20t-14.5 34q-4 -6 -11.5 -15t-36 -24t-62.5 -15q-101 0 -142 59.5t-41 166.5v147q0 13 -18 33.5t-18 21.5
q0 3 9 8t23.5 10t26.5 5q28 0 39.5 -24t11.5 -54z" />
    <glyph glyph-name="v" unicode="v" horiz-adv-x="566" 
d="M421 431q2 6 28 6q47 0 47 -6l-191 -426q-3 -5 -23 -5q-19 0 -21 5l-155 358q-5 11 -14 23.5t-15.5 21t-6.5 10.5q0 3 9 8t23.5 10t26.5 5q14 0 29 -19.5t24 -39.5l8 -19l98 -249z" />
    <glyph glyph-name="w" unicode="w" horiz-adv-x="832" 
d="M418 266l-113 -261q-2 -5 -20 -5q-22 0 -24 5l-155 358q-5 11 -14 23.5t-15.5 21t-6.5 10.5q0 3 9 8t23.5 10t26.5 5q14 0 29 -19.5t24 -39.5l8 -19l98 -249l94 226q-5 11 -16.5 29.5t-20.5 32.5t-9 16q0 3 9 8t23.5 10t26.5 5q14 0 29 -19.5t24 -39.5l8 -19l98 -249
l134 317q2 6 36 6q38 0 38 -6l-191 -426q-3 -5 -27 -5q-15 0 -17 5z" />
    <glyph glyph-name="x" unicode="x" horiz-adv-x="507" 
d="M248 153l-102 -148q-3 -5 -32 -5q-9 0 -25.5 1.5t-15.5 3.5l139 205l-97 153q-6 10 -17.5 22.5t-19.5 21.5t-8 11q0 3 8.5 8t23 10t26.5 5q14 0 33 -19.5t31 -39.5l13 -19l53 -84l98 146q2 6 40 6q37 0 37 -6l-139 -204l97 -153q5 -8 16.5 -21t20.5 -22.5t9 -11.5
q0 -3 -8 -8t-22 -10t-26 -5q-14 0 -33.5 19.5t-32.5 38.5l-13 20z" />
    <glyph glyph-name="y" unicode="y" horiz-adv-x="615" 
d="M458 425q2 6 31 6q53 0 53 -6q-28 -44 -69 -135.5t-80 -178.5t-82.5 -172t-90 -137t-89.5 -52q-30 0 -55.5 14.5t-25.5 27.5q0 19 5 32.5t10 18.5t8 5l20 -14q20 -13 36 -13q27 0 65 51.5t63 105t25 68.5l-137 317q-5 11 -14 23.5t-15.5 21t-6.5 10.5q0 3 9 8t23.5 10
t26.5 5q14 0 29 -19.5t23 -39.5l9 -19l99 -239z" />
    <glyph glyph-name="z" unicode="z" horiz-adv-x="493" 
d="M95 76l233 301h-180q-13 0 -33.5 -18.5t-21.5 -18.5q-4 0 -13.5 16t-9.5 28q0 22 25.5 34.5t52.5 12.5h258q17 0 17 -25q0 -20 -25 -51l-233 -301h180q13 0 33.5 18.5t21.5 18.5q4 0 13.5 -16t9.5 -28q0 -22 -25.5 -34.5t-52.5 -12.5h-258q-17 0 -17 25q0 23 25 51z" />
    <glyph glyph-name="braceleft" unicode="{" horiz-adv-x="309" 
d="M107 225q0 -12 14.5 -18t31.5 -9t31.5 -22.5t14.5 -55.5q0 -75 -14.5 -131.5t-29 -88t-14.5 -45.5q0 -20 15 -31q19 -13 34 -16.5t66 -3.5q5 0 9 -16t4 -29q0 -9 -3 -9q-145 0 -184 24q-22 13 -22 39q0 21 11 48.5t24 54.5t24 81.5t11 122.5q0 15 -14 27.5t-31 20
t-31 22.5t-14 35t14 35t31 22.5t31 20t14 27.5q0 68 -11 122.5t-24 81.5t-24 54.5t-11 48.5q0 26 22 39q39 24 184 24q3 0 3 -9q0 -13 -4 -29t-9 -16q-51 0 -66 -3.5t-34 -16.5q-15 -11 -15 -31q0 -14 14.5 -45.5t29 -88t14.5 -131.5q0 -36 -14.5 -55.5t-31.5 -22.5
t-31.5 -9t-14.5 -18z" />
    <glyph glyph-name="bar" unicode="|" horiz-adv-x="190" 
d="M150 552v-796q0 -6 -38 -6q-36 0 -36 6v796q0 13 -18 33.5t-18 21.5q0 3 7.5 8t21 10t25.5 5q28 0 42 -24.5t14 -53.5z" />
    <glyph glyph-name="braceright" unicode="}" horiz-adv-x="372" 
d="M232 225q0 12 -14.5 18t-31.5 9t-31.5 22.5t-14.5 55.5q0 75 14.5 131.5t29 88t14.5 45.5q0 20 -15 31q-19 13 -34 16.5t-66 3.5q-5 0 -9 16t-4 29q0 9 3 9q145 0 184 -24q22 -13 22 -39q0 -21 -11 -48.5t-24 -54.5t-24 -81.5t-11 -122.5q0 -15 14 -27.5t31 -20t31 -22.5
t14 -35t-14 -35t-31 -22.5t-31 -20t-14 -27.5q0 -68 11 -122.5t24 -81.5t24 -54.5t11 -48.5q0 -26 -22 -39q-39 -24 -184 -24q-3 0 -3 9q0 13 4 29t9 16q51 0 66 3.5t34 16.5q15 11 15 31q0 14 -14.5 45.5t-29 88t-14.5 131.5q0 36 14.5 55.5t31.5 22.5t31.5 9t14.5 18z" />
    <glyph glyph-name="asciitilde" unicode="~" horiz-adv-x="649" 
d="M463 149q-42 0 -75 11t-54 27.5t-40.5 32.5t-46 27t-58.5 11q-36 0 -56 -12.5t-23.5 -27.5t-7 -27.5t-9.5 -12.5q-7 0 -15 15.5t-8 28.5q0 24 34 58t87 34t92.5 -17t59.5 -37.5t51.5 -37.5t70.5 -17q36 0 56 12.5t23.5 27.5t7 27.5t9.5 12.5q7 0 15 -15.5t8 -28.5
q0 -24 -34 -58t-87 -34z" />
    <glyph glyph-name="uni00A0" unicode="&#xa0;" horiz-adv-x="0" 
 />
    <glyph glyph-name="exclamdown" unicode="&#xa1;" horiz-adv-x="194" 
d="M149 -244h5q0 10 -7 223.5t-7 236.5q0 30 -11.5 54t-39.5 24q-12 0 -24 -5t-18.5 -10t-6.5 -8q0 -1 18 -21.5t18 -33.5q0 -21 -5.5 -232.5t-5.5 -227.5q0 -6 12 -10.5t30 -4.5q42 0 42 15zM140 406q0 -19 -13 -32t-32 -13t-32 13t-13 32t13 32t32 13t32 -13t13 -32z" />
    <glyph glyph-name="cent" unicode="&#xa2;" horiz-adv-x="514" 
d="M313 441q33 -4 64.5 -18t48.5 -28t17 -21q0 -9 -25 -27t-37 -18q-5 0 -23.5 15.5t-45.5 30.5t-53 15q-60 0 -82 -42.5t-22 -122.5q0 -79 30 -129.5t83 -50.5q30 0 55 11.5t38 26t24 26t15 11.5q10 0 26 -20t16 -29q0 -11 -11 -25t-42 -30.5t-76 -22.5q0 -13 16.5 -33.5
t16.5 -21.5q0 -3 -9 -8t-23.5 -10t-26.5 -5q-29 0 -45 25t-16 53q-76 12 -116 72.5t-40 159.5q0 57 17 99.5t44.5 65t50.5 34t47 16.5q0 13 -18 34t-18 22q0 3 9 8t23.5 10t26.5 5q29 0 45 -25t16 -53z" />
    <glyph glyph-name="sterling" unicode="&#xa3;" horiz-adv-x="638" 
d="M163 104v99h-15q-13 0 -33.5 -18.5t-21.5 -18.5q-4 0 -13.5 23.5t-9.5 35.5q0 11 7 18t21 10t24 3.5t26 0.5h15v79q0 100 52.5 152t143.5 52q82 0 137 -43.5t55 -122.5q0 -28 -16 -53t-45 -25q-12 0 -27 4.5t-24 10t-9 8.5q0 2 10.5 9t21 19.5t10.5 26.5q0 50 -28.5 77.5
t-77.5 27.5q-54 0 -86.5 -36t-32.5 -108v-78h134l-17 -54h-117v-53v-9.5t0.5 -11t2 -9.5t4 -8.5t7.5 -5t12 -2.5q60 0 132 -23t85 -23t33.5 16.5t21.5 16.5q4 0 13.5 -18.5t9.5 -30.5q0 -22 -24.5 -32t-53.5 -10q-14 0 -105 22.5t-169 22.5q-33 0 -59.5 -22.5t-47.5 -22.5
q-4 0 -13.5 18.5t-9.5 30.5q0 19 26.5 36t50.5 19z" />
    <glyph glyph-name="currency" unicode="&#xa4;" horiz-adv-x="458" 
d="M229 250q27 0 49.5 21.5t22.5 62.5q0 37 -20 61t-52 24t-52 -24t-20 -61q0 -41 22.5 -62.5t49.5 -21.5zM229 193q-48 0 -80 27q-43 -47 -51 -47t-18 9.5t-10 16.5q0 3 13 15.5t27 23.5l13 11q-26 35 -26 84q0 52 27 86q-53 43 -53 50t9.5 16.5t18.5 9.5q4 0 16.5 -11.5
t23.5 -23.5l11 -12q33 28 79 28t79 -28q43 47 51 47q9 0 18.5 -9.5t9.5 -16.5q0 -3 -13.5 -15.5t-26.5 -23.5l-13 -11q27 -34 27 -86q0 -49 -26 -84q53 -43 53 -50t-10 -16.5t-18 -9.5q-4 0 -16.5 11.5t-23.5 23.5l-11 12q-32 -27 -80 -27z" />
    <glyph glyph-name="yen" unicode="&#xa5;" horiz-adv-x="699" 
d="M503 123h-115v-117q0 -6 -42 -6t-42 6v117h-47q-13 0 -33.5 -18.5t-21.5 -18.5q-4 0 -13.5 18.5t-9.5 30.5q0 22 24.5 32t53.5 10h47v73h-47q-13 0 -33.5 -18.5t-21.5 -18.5q-4 0 -13.5 18.5t-9.5 30.5q0 22 24.5 32t53.5 10h47v43l-152 239q-5 9 -25.5 33t-38.5 45
t-18 23q0 3 11.5 8.5t28.5 10t29 4.5q14 0 34 -19.5t33 -38.5l14 -20l134 -212l185 271q6 9 41 9q32 0 40.5 -1.5t8.5 -7.5l-241 -344v-43h132l-17 -54h-115v-73h132z" />
    <glyph glyph-name="brokenbar" unicode="&#xa6;" horiz-adv-x="259" 
d="M106 166h84v-410q0 -6 -42 -6t-42 6v410zM106 292v260q0 13 -18 33.5t-18 21.5q0 3 7.5 8t21 10t25.5 5q29 0 47.5 -25.5t18.5 -52.5v-260h-84z" />
    <glyph glyph-name="section" unicode="&#xa7;" horiz-adv-x="455" 
d="M241 178q36 0 52 23.5t16 54.5q0 26 -77 53q-37 0 -63.5 -23t-26.5 -63q0 -7 10.5 -17t34.5 -19t54 -9zM286 139q98 -42 98 -98q0 -134 -170 -134q-25 0 -49 6t-40.5 15t-29.5 18.5t-19 17.5t-6 12q0 10 21 28t31 18q4 0 19.5 -15t38.5 -30.5t45 -15.5q13 0 20.5 0.5
t21.5 4t21.5 10.5t14 21.5t6.5 34.5q0 16 -24 30t-58.5 25.5t-69.5 25.5t-59 39t-24 57q0 36 17 68.5t34.5 47.5t27.5 15q-79 35 -79 93q0 34 11 60.5t28.5 43t40 27.5t44 15.5t42.5 4.5q25 0 49 -6t40.5 -15t29.5 -18.5t19 -17.5t6 -12q0 -10 -21 -28t-31 -18
q-4 0 -19.5 15.5t-38.5 30.5t-45 15q-37 0 -62 -21.5t-25 -61.5q0 -21 38 -40.5t83 -34t83 -43t38 -64.5q0 -101 -98 -126z" />
    <glyph glyph-name="dieresis" unicode="&#xa8;" horiz-adv-x="372" 
d="M70 553q0 19 13 32t32 13t32 -13t13 -32t-13 -32t-32 -13t-32 13t-13 32zM210 553q0 19 13 32t32 13t32 -13t13 -32t-13 -32t-32 -13t-32 13t-13 32z" />
    <glyph glyph-name="copyright" unicode="&#xa9;" horiz-adv-x="717" 
d="M70 362q0 119 84.5 203.5t203.5 84.5t203.5 -84.5t84.5 -203.5t-84.5 -203.5t-203.5 -84.5t-203.5 84.5t-84.5 203.5zM120 362q0 -98 70 -168t168 -70t168 70t70 168t-70 168t-168 70t-168 -70t-70 -168zM193 366q0 88 48.5 131t111.5 43q38 0 69 -9.5t44 -19.5t13 -17
q0 -8 -15 -21.5t-24 -13.5q-4 0 -16 10.5t-33.5 21t-47.5 10.5q-55 0 -76.5 -33.5t-21.5 -101.5q0 -69 27.5 -108t77.5 -39q26 0 46.5 8.5t30 18.5t17.5 18.5t11 8.5q8 0 15.5 -15t7.5 -24t-9 -20.5t-40.5 -22.5t-79.5 -11q-81 0 -118.5 51t-37.5 135z" />
    <glyph glyph-name="ordfeminine" unicode="&#xaa;" horiz-adv-x="249" 
d="M159 610v28q0 15 -9.5 29t-27.5 14q-15 0 -27.5 -5t-20 -12t-12.5 -14t-7.5 -12t-3.5 -5t-3.5 5.5t-5 14.5t-2.5 15q33 37 87 37q43 0 56 -17.5t13 -49.5v-120q0 -6 9 -16t9 -11q0 -3 -8 -7t-16 -4q-9 0 -17 4t-11 8l-4 4q-5 -16 -46 -16q-32 0 -54.5 17t-22.5 46
q0 20 14 33t29.5 17t42.5 9t38 8zM159 527l1 60q-12 -3 -32 -6.5t-28 -6t-15.5 -10t-7.5 -21.5q0 -23 12.5 -29.5t34.5 -6.5q13 0 22 5t11 10z" />
    <glyph glyph-name="guillemotleft" unicode="&#xab;" horiz-adv-x="626" 
d="M360 207l189 -145q4 -2 4 -41q0 -11 -3.5 -18.5t-6.5 -10t-6 -2.5q-2 0 -5 3.5t-8 8.5t-10 8l-240 183q-4 3 -4 21q21 12 88.5 67t126 103t64.5 48t6 -33q0 -38 -6 -41zM160 207l189 -145q4 -2 4 -41q0 -11 -3.5 -18.5t-6.5 -10t-6 -2.5q-2 0 -5 3.5t-8 8.5t-10 8
l-240 183q-4 3 -4 21q21 12 88.5 67t126 103t64.5 48t6 -33q0 -38 -6 -41z" />
    <glyph glyph-name="logicalnot" unicode="&#xac;" horiz-adv-x="582" 
d="M70 480h446v-230h-79v144q0 15 -11 25.5t-25 10.5h-331v50z" />
    <glyph glyph-name="uni00AD" unicode="&#xad;" horiz-adv-x="391" 
d="M70 250v49h251v-49h-251z" />
    <glyph glyph-name="registered" unicode="&#xae;" horiz-adv-x="717" 
d="M70 362q0 119 84.5 203.5t203.5 84.5t203.5 -84.5t84.5 -203.5t-84.5 -203.5t-203.5 -84.5t-203.5 84.5t-84.5 203.5zM120 362q0 -98 70 -168t168 -70t168 70t70 168t-70 168t-168 70t-168 -70t-70 -168zM304 386h31q32 0 46.5 12t14.5 44q0 38 -17 50t-58 12h-17v-118z
M311 351h-7v-160q0 -3 -25 -3q-27 0 -27 3v311q0 6 -9 16t-9 11t4.5 3.5t11.5 4.5t13 2h58q60 0 93.5 -24.5t33.5 -71.5q0 -30 -24.5 -60t-72.5 -32q27 -49 69 -93t79 -44q3 0 5.5 -8.5t2.5 -13.5q0 -3 -52 -3q-32 0 -74 53t-70 109z" />
    <glyph glyph-name="macron" unicode="&#xaf;" horiz-adv-x="396" 
d="M70 511v49h256v-49h-256z" />
    <glyph glyph-name="degree" unicode="&#xb0;" horiz-adv-x="236" 
d="M40 499q0 32 23 55t55 23t55 -23t23 -55t-23 -55t-55 -23t-55 23t-23 55zM75 499q0 -18 12.5 -30.5t30.5 -12.5t30 12.5t12 30.5t-12 30t-30 12t-30.5 -12t-12.5 -30z" />
    <glyph glyph-name="plusminus" unicode="&#xb1;" horiz-adv-x="511" 
d="M148 54h313l-17 -54h-296q-13 0 -33.5 -18.5t-21.5 -18.5q-4 0 -13.5 18.5t-9.5 30.5q0 22 24.5 32t53.5 10zM240 431v170l54 -17v-153h167l-17 -54h-150v-119q1 -13 19 -33.5t18 -21.5q0 -4 -18.5 -13.5t-30.5 -9.5q-22 0 -32 24.5t-10 53.5v119h-92q-13 -1 -33.5 -19
t-21.5 -18q-4 0 -13.5 18.5t-9.5 30.5q0 22 24.5 32t53.5 10h92z" />
    <glyph glyph-name="two.numerator" unicode="&#xb2;" horiz-adv-x="288" 
d="M89 617q0 -7 5.5 -13t10.5 -9.5t5 -4.5q0 -2 -17.5 -7t-27.5 -5q-15 0 -25 13t-10 26q0 39 37 66t79 27q45 0 78.5 -31.5t33.5 -75.5q0 -32 -23 -65t-50 -55t-50 -45t-23 -38h85q23 0 34 6t14 6q6 0 9.5 -21t3.5 -31q0 -4 -8 -6.5t-16 -3.5h-9h-168q-12 0 -14.5 5
t-2.5 21q0 22 24.5 52t54 54.5t54 57t24.5 58.5q0 31 -17.5 46.5t-37.5 15.5q-21 0 -37 -10t-16 -33z" />
    <glyph glyph-name="three.numerator" unicode="&#xb3;" horiz-adv-x="273" 
d="M125 390q59 0 59 51q0 24 -16.5 46t-45.5 22q-12 0 -21.5 5.5t-9.5 14.5q0 18 4 18q31 0 56 24t25 50q0 16 -12.5 27t-32.5 11q-22 0 -37 -9.5t-21.5 -18.5t-8.5 -9q-4 0 -15 14t-11 19q0 3 2.5 8.5t9 13.5t17 15.5t29.5 12.5t42 5q39 0 67 -26t28 -59q0 -27 -14 -48
t-26 -28.5t-23 -11.5q21 0 47 -26.5t26 -59.5q0 -44 -31.5 -77.5t-86.5 -33.5q-33 0 -56.5 13t-31 24.5t-7.5 16.5t11 19t15 14q3 0 9.5 -9.5t21.5 -18.5t38 -9z" />
    <glyph glyph-name="acute" unicode="&#xb4;" horiz-adv-x="313" 
d="M243 603q0 -44 -56 -78t-103 -34q-14 0 -14 7q0 6 7 9q32 14 55 34t34 37.5t18 33t10.5 24.5t7.5 9q12 0 26.5 -13t14.5 -29z" />
    <glyph glyph-name="mu" unicode="&#xb5;" horiz-adv-x="585" 
d="M190 15v-265h-84v616q0 13 -18 33.5t-18 21.5q0 3 9 8t23.5 10t26.5 5q29 0 45 -25t16 -53v-149q0 -22 0.5 -35t3 -37t9 -39t17 -30.5t28.5 -23.5t42 -8q34 0 60 20.5t35 41.5l9 20v303q0 6 42 6t42 -6v-361q0 -13 18 -33.5t18 -21.5q0 -3 -9 -8t-23.5 -10t-26.5 -5
q-27 0 -44 24.5t-17 39.5q-1 -3 -3.5 -7t-11.5 -15t-20 -19.5t-29.5 -15.5t-40.5 -7q-58 0 -99 25z" />
    <glyph glyph-name="paragraph" unicode="&#xb6;" horiz-adv-x="591" 
d="M432 163v487h-50q-10 -12 -10 -23v-632q23 0 34 8.5t18.5 46t7.5 113.5zM486 627v-464q0 -121 -31 -170t-107 -49q-29 0 -58.5 12.5t-29.5 34.5q0 12 9.5 28t13.5 16q1 0 12 -20t23 -20q0 287 -7 315q-3 16 -16 16q-58 0 -103.5 18t-70.5 46t-38 58.5t-13 59.5
q0 95 67 143.5t186 48.5h140q13 0 27 -4t23 -8.5t9 -7.5q0 -1 -18 -20.5t-18 -32.5z" />
    <glyph glyph-name="periodcentered" unicode="&#xb7;" horiz-adv-x="230" 
d="M70 346q0 19 13 32t32 13t32 -13t13 -32t-13 -32t-32 -13t-32 13t-13 32z" />
    <glyph glyph-name="cedilla" unicode="&#xb8;" horiz-adv-x="375" 
d="M148 0h42q-45 -14 -45 -40q0 -8 8 -14.5t25 -6.5q18 0 31.5 -1t33 -6.5t32 -15t21.5 -28.5t9 -46q0 -34 -29.5 -63t-74.5 -29q-43 0 -75.5 15.5t-44 30.5t-11.5 24t24 17t38 8q5 0 12.5 -10.5t23.5 -20.5t42 -10q15 0 30.5 9t15.5 27q0 43 -53 43q-122 0 -122 51
q0 27 16.5 43.5t33.5 19.5z" />
    <glyph glyph-name="one.numerator" unicode="&#xb9;" horiz-adv-x="207" 
d="M30 627l82 83h38q8 0 13 -2t5 -4l1 -3v-317q0 -6 9 -14l9 -8q0 -2 -37 -2h-19q-37 0 -37 2l9 8q9 8 9 14v257l-16 -16q-8 -2 -29 -2q-37 0 -37 4z" />
    <glyph glyph-name="ordmasculine" unicode="&#xba;" horiz-adv-x="267" 
d="M136 710q51 0 74.5 -32.5t23.5 -85.5q0 -55 -30.5 -82t-70.5 -27q-51 0 -74.5 32t-23.5 85q0 56 30.5 83t70.5 27zM132 683q-57 0 -57 -83q0 -40 17 -66t45 -26q57 0 57 84q0 40 -17 65.5t-45 25.5z" />
    <glyph glyph-name="guillemotright" unicode="&#xbb;" horiz-adv-x="626" 
d="M76 62l189 145l-189 151q-6 3 -6 41q0 33 6 33t64.5 -48t126 -103t88.5 -67q0 -18 -4 -21l-240 -183q-5 -3 -10 -8t-8 -8.5t-5 -3.5q-3 0 -6 2.5t-6.5 10t-3.5 18.5q0 39 4 41zM276 62l189 145l-189 151q-6 3 -6 41q0 33 6 33t64.5 -48t126 -103t88.5 -67q0 -18 -4 -21
l-240 -183q-5 -3 -10 -8t-8 -8.5t-5 -3.5q-3 0 -6 2.5t-6.5 10t-3.5 18.5q0 39 4 41z" />
    <glyph glyph-name="onequarter" unicode="&#xbc;" horiz-adv-x="462" 
d="M379 700h57l-360 -700h-56l333 635q-4 10 -12.5 19.5t-14.5 15t-6 7.5q0 3 9 8t23.5 10t26.5 5zM112 700l-82 -83q0 -4 32 -4q18 0 22 1l28 27v-267q0 -6 -9 -14l-9 -8q0 -2 32 -2h19q32 0 32 2l-9 8q-9 8 -9 14v317q0 9 -9 9h-38zM260 138h96v157zM409 93v-64
q0 -7 9 -17l9 -11q0 -1 -6 -3.5t-15.5 -5t-15.5 -2.5q-15 0 -24.5 13t-9.5 26v64h-167q-14 0 -14 10q148 223 149 225q14 22 42 22q17 0 30 -13t13 -26v-173h33l-9 -45h-24z" />
    <glyph glyph-name="onehalf" unicode="&#xbd;" horiz-adv-x="513" 
d="M379 700h57l-360 -700h-56l333 635q-4 10 -12.5 19.5t-14.5 15t-6 7.5q0 3 9 8t23.5 10t26.5 5zM112 700l-82 -83q0 -4 32 -4q18 0 22 1l28 27v-267q0 -6 -9 -14l-9 -8q0 -2 32 -2h19q32 0 32 2l-9 8q-9 8 -9 14v317q0 9 -9 9h-38zM324 269q0 23 16 33t37 10
q20 0 37.5 -15.5t17.5 -46.5q0 -26 -24.5 -58.5t-54 -57t-54 -54.5t-24.5 -52q0 -16 2.5 -21t14.5 -5h168q33 0 33 10t-3.5 31t-9.5 21q-3 0 -14 -6t-34 -6h-85q0 15 23 38t50 45t50 55t23 65q0 44 -33.5 75.5t-78.5 31.5q-42 0 -79 -27t-37 -66q0 -13 10 -26t25 -13
q10 0 27.5 5t17.5 7q0 1 -5.5 4.5t-10.5 9.5t-5 13z" />
    <glyph glyph-name="threequarters" unicode="&#xbe;" horiz-adv-x="492" 
d="M115 381q59 0 59 51q0 24 -16.5 46t-45.5 22q-12 0 -21.5 5.5t-9.5 14.5q0 18 4 18q31 0 56 24t25 50q0 16 -12.5 27t-32.5 11q-17 0 -30 -6t-19.5 -12.5t-11 -12.5t-6.5 -6q-4 0 -15 14t-11 19q0 3 2.5 8.5t9 13.5t17 15.5t29.5 12.5t42 5q39 0 67 -26t28 -59
q0 -27 -14 -48t-26 -28.5t-23 -11.5q21 0 47 -26.5t26 -59.5q0 -44 -31.5 -77.5t-86.5 -33.5q-33 0 -56.5 13t-31 24.5t-7.5 16.5t11 19t15 14q3 0 9.5 -9t21.5 -18.5t38 -9.5zM409 700h57l-360 -700h-56l333 635q-4 10 -12.5 19.5t-14.5 15t-6 7.5q0 3 9 8t23.5 10t26.5 5z
M290 138h96v157zM439 93v-64q0 -7 9 -17l9 -11q0 -1 -6 -3.5t-15.5 -5t-15.5 -2.5q-15 0 -24.5 13t-9.5 26v64h-167q-14 0 -14 10q148 223 149 225q14 22 42 22q17 0 30 -13t13 -26v-173h33l-9 -45h-24z" />
    <glyph glyph-name="questiondown" unicode="&#xbf;" horiz-adv-x="548" 
d="M321 406q0 -19 -13 -32t-32 -13t-32 13t-13 32t13 32t32 13t32 -13t13 -32zM398 -103q0 -41 -34.5 -73t-81.5 -32q-56 0 -95.5 36.5t-39.5 107.5q0 47 13.5 79.5t34 47t44.5 28t44.5 25t34 37t13.5 63.5q0 29 -13.5 53.5t-41.5 24.5q-12 0 -27 -4.5t-24 -10t-9 -8.5
q0 -1 19 -21.5t19 -33.5q0 -26 -19 -42.5t-46 -31t-54 -35t-46 -67t-19 -114.5q0 -88 57.5 -141.5t147.5 -53.5q84 0 143 44t59 122q0 28 -16 53t-45 25q-12 0 -25.5 -5t-21.5 -10t-8 -8q0 -1 18.5 -21.5t18.5 -33.5z" />
    <glyph glyph-name="Agrave" unicode="&#xc0;" horiz-adv-x="706" 
d="M239 250h209l-100 316zM70 6l244 645q-2 4 -13.5 15t-11.5 14t9 7.5t23 8.5t27 4q25 0 27 -5l225 -627q5 -11 14 -23.5t15.5 -21t6.5 -10.5q0 -3 -9 -8t-23.5 -10t-26.5 -5q-19 0 -37 19.5t-26 38.5l-8 20l-42 133h-242l-67 -195q-2 -6 -38 -6q-47 0 -47 6zM265 872
q0 16 14.5 29t26.5 13q4 0 7.5 -9t10.5 -24.5t18 -33t34 -37.5t55 -34q7 -3 7 -9q0 -7 -14 -7q-47 0 -103 34t-56 78z" />
    <glyph glyph-name="Aacute" unicode="&#xc1;" horiz-adv-x="706" 
d="M239 250h209l-100 316zM70 6l244 645q-2 4 -13.5 15t-11.5 14t9 7.5t23 8.5t27 4q25 0 27 -5l225 -627q5 -11 14 -23.5t15.5 -21t6.5 -10.5q0 -3 -9 -8t-23.5 -10t-26.5 -5q-19 0 -37 19.5t-26 38.5l-8 20l-42 133h-242l-67 -195q-2 -6 -38 -6q-47 0 -47 6zM435 872
q0 -44 -56 -78t-103 -34q-14 0 -14 7q0 6 7 9q32 14 55 34t34 37.5t18 33t10.5 24.5t7.5 9q12 0 26.5 -13t14.5 -29z" />
    <glyph glyph-name="Acircumflex" unicode="&#xc2;" horiz-adv-x="706" 
d="M239 250h209l-100 316zM70 6l244 645q-2 4 -13.5 15t-11.5 14t9 7.5t23 8.5t27 4q25 0 27 -5l225 -627q5 -11 14 -23.5t15.5 -21t6.5 -10.5q0 -3 -9 -8t-23.5 -10t-26.5 -5q-19 0 -37 19.5t-26 38.5l-8 20l-42 133h-242l-67 -195q-2 -6 -38 -6q-47 0 -47 6zM383 872
q26 -55 83 -96q7 -6 7 -9q0 -7 -14 -7q-11 0 -22 3t-18 5.5t-19 11.5t-15 11.5t-17.5 16.5t-16.5 15q-4 -3 -14.5 -13t-14.5 -13.5t-13.5 -11.5t-15 -11t-14.5 -7t-17.5 -5.5t-18.5 -1.5q-14 0 -14 7q0 3 7 9q57 41 83 96q7 15 17 23.5t15 8.5t15 -8.5t17 -23.5z" />
    <glyph glyph-name="Atilde" unicode="&#xc3;" horiz-adv-x="706" 
d="M239 250h209l-100 316zM70 6l244 645q-2 4 -13.5 15t-11.5 14t9 7.5t23 8.5t27 4q25 0 27 -5l225 -627q5 -11 14 -23.5t15.5 -21t6.5 -10.5q0 -3 -9 -8t-23.5 -10t-26.5 -5q-19 0 -37 19.5t-26 38.5l-8 20l-42 133h-242l-67 -195q-2 -6 -38 -6q-47 0 -47 6zM420 760
q-33 0 -54.5 14t-40 27.5t-42.5 13.5q-18 0 -25 -8t-6.5 -17t-2 -17t-12.5 -8q-14 0 -14 42q0 18 16.5 37t44.5 19q29 0 49.5 -8.5t29.5 -19t24 -19t34 -8.5q16 0 22.5 6t6.5 14t3.5 14t13.5 6q13 0 13 -42q0 -16 -16 -31t-44 -15z" />
    <glyph glyph-name="Adieresis" unicode="&#xc4;" horiz-adv-x="706" 
d="M239 250h209l-100 316zM70 6l244 645q-2 4 -13.5 15t-11.5 14t9 7.5t23 8.5t27 4q25 0 27 -5l225 -627q5 -11 14 -23.5t15.5 -21t6.5 -10.5q0 -3 -9 -8t-23.5 -10t-26.5 -5q-19 0 -37 19.5t-26 38.5l-8 20l-42 133h-242l-67 -195q-2 -6 -38 -6q-47 0 -47 6zM236 822
q0 19 13 32t32 13t32 -13t13 -32t-13 -32t-32 -13t-32 13t-13 32zM376 822q0 19 13 32t32 13t32 -13t13 -32t-13 -32t-32 -13t-32 13t-13 32z" />
    <glyph glyph-name="Aring" unicode="&#xc5;" horiz-adv-x="706" 
d="M239 250h209l-100 316zM70 6l244 645q-2 4 -13.5 15t-11.5 14t9 7.5t23 8.5t27 4q25 0 27 -5l225 -627q5 -11 14 -23.5t15.5 -21t6.5 -10.5q0 -3 -9 -8t-23.5 -10t-26.5 -5q-19 0 -37 19.5t-26 38.5l-8 20l-42 133h-242l-67 -195q-2 -6 -38 -6q-47 0 -47 6zM268 838
q0 32 24.5 55t57.5 23t57.5 -23t24.5 -55t-24.5 -55t-57.5 -23t-57.5 23t-24.5 55zM308 838q0 -16 12.5 -27.5t29.5 -11.5t29 11.5t12 27.5t-12 27t-29 11t-29.5 -11t-12.5 -27z" />
    <glyph glyph-name="AE" unicode="&#xc6;" horiz-adv-x="730" 
d="M325 250v249l-86 -249h86zM348 700h234q29 0 53.5 -10t24.5 -32q0 -12 -9.5 -35.5t-13.5 -23.5q-1 0 -21.5 18.5t-33.5 18.5h-173v-262h95q13 0 38.5 3.5t26.5 3.5q13 0 13 -19q0 -52 -78 -52h-95v-246h173q13 0 33.5 18.5t21.5 18.5q4 0 13.5 -23.5t9.5 -35.5
q0 -22 -24.5 -32t-53.5 -10h-257v201h-103l-67 -195q-2 -6 -38 -6q-47 0 -47 6l244 645q-2 4 -13.5 15t-11.5 14t9 7.5t23 8.5t27 4z" />
    <glyph glyph-name="Ccedilla" unicode="&#xc7;" horiz-adv-x="712" 
d="M70 363q0 91 29.5 161t77.5 109t102.5 58t111.5 19q48 0 90.5 -7.5t71 -18.5t49.5 -24t30.5 -23.5t9.5 -17.5q0 -14 -29.5 -32.5t-48.5 -18.5q-7 0 -32 21t-67.5 42.5t-94.5 21.5q-205 0 -205 -290q0 -143 57 -229t163 -86q51 0 92 17t60 37t34.5 37t22.5 17
q17 0 31.5 -21t14.5 -37q0 -10 -6 -22t-24 -27.5t-45 -28t-74.5 -21.5t-107.5 -9q-84 0 -146 28.5t-97.5 80.5t-52.5 117.5t-17 146.5zM377 0h42q-45 -14 -45 -40q0 -8 8 -14.5t25 -6.5q18 0 31.5 -1t33 -6.5t32 -15t21.5 -28.5t9 -46q0 -34 -29.5 -63t-74.5 -29
q-43 0 -75.5 15.5t-44 30.5t-11.5 24t24 17t38 8q5 0 12.5 -10.5t23.5 -20.5t42 -10q15 0 30.5 9t15.5 27q0 43 -53 43q-122 0 -122 51q0 27 17 43.5t33 19.5z" />
    <glyph glyph-name="Egrave" unicode="&#xc8;" 
d="M355 325h-165v-266h243q13 0 33.5 16t21.5 16q4 0 13.5 -18.5t9.5 -30.5q0 -22 -24.5 -32t-53.5 -10h-327v627q0 13 -18 32.5t-18 20.5q0 3 9 7.5t23 8.5t27 4h304q29 0 53.5 -10t24.5 -32q0 -12 -9.5 -30.5t-13.5 -18.5q-1 0 -21.5 16t-33.5 16h-243v-257h165
q13 0 38.5 3.5t26.5 3.5q13 0 13 -19q0 -29 -19.5 -38t-58.5 -9zM203 872q0 16 14.5 29t26.5 13q4 0 7.5 -9t10.5 -24.5t18 -33t34 -37.5t55 -34q7 -3 7 -9q0 -7 -14 -7q-47 0 -103 34t-56 78z" />
    <glyph glyph-name="Eacute" unicode="&#xc9;" 
d="M355 325h-165v-266h243q13 0 33.5 16t21.5 16q4 0 13.5 -18.5t9.5 -30.5q0 -22 -24.5 -32t-53.5 -10h-327v627q0 13 -18 32.5t-18 20.5q0 3 9 7.5t23 8.5t27 4h304q29 0 53.5 -10t24.5 -32q0 -12 -9.5 -30.5t-13.5 -18.5q-1 0 -21.5 16t-33.5 16h-243v-257h165
q13 0 38.5 3.5t26.5 3.5q13 0 13 -19q0 -29 -19.5 -38t-58.5 -9zM376 872q0 -44 -56 -78t-103 -34q-14 0 -14 7q0 6 7 9q32 14 55 34t34 37.5t18 33t10.5 24.5t7.5 9q12 0 26.5 -13t14.5 -29z" />
    <glyph glyph-name="Ecircumflex" unicode="&#xca;" 
d="M355 325h-165v-266h243q13 0 33.5 16t21.5 16q4 0 13.5 -18.5t9.5 -30.5q0 -22 -24.5 -32t-53.5 -10h-327v627q0 13 -18 32.5t-18 20.5q0 3 9 7.5t23 8.5t27 4h304q29 0 53.5 -10t24.5 -32q0 -12 -9.5 -30.5t-13.5 -18.5q-1 0 -21.5 16t-33.5 16h-243v-257h165
q13 0 38.5 3.5t26.5 3.5q13 0 13 -19q0 -29 -19.5 -38t-58.5 -9zM322 872q26 -55 83 -96q7 -6 7 -9q0 -7 -14 -7q-11 0 -22 3t-18 5.5t-19 11.5t-15 11.5t-17.5 16.5t-16.5 15q-4 -3 -14.5 -13t-14.5 -13.5t-13.5 -11.5t-15 -11t-14.5 -7t-17.5 -5.5t-18.5 -1.5q-14 0 -14 7
q0 3 7 9q57 41 83 96q7 15 17 23.5t15 8.5t15 -8.5t17 -23.5z" />
    <glyph glyph-name="Edieresis" unicode="&#xcb;" 
d="M355 325h-165v-266h243q13 0 33.5 16t21.5 16q4 0 13.5 -18.5t9.5 -30.5q0 -22 -24.5 -32t-53.5 -10h-327v627q0 13 -18 32.5t-18 20.5q0 3 9 7.5t23 8.5t27 4h304q29 0 53.5 -10t24.5 -32q0 -12 -9.5 -30.5t-13.5 -18.5q-1 0 -21.5 16t-33.5 16h-243v-257h165
q13 0 38.5 3.5t26.5 3.5q13 0 13 -19q0 -29 -19.5 -38t-58.5 -9zM175 822q0 19 13 32t32 13t32 -13t13 -32t-13 -32t-32 -13t-32 13t-13 32zM315 822q0 19 13 32t32 13t32 -13t13 -32t-13 -32t-32 -13t-32 13t-13 32z" />
    <glyph glyph-name="Igrave" unicode="&#xcc;" horiz-adv-x="313" 
d="M119 78v554q0 13 -18 33.5t-18 21.5q0 3 7.5 8t21 10t25.5 5h37q13 0 26.5 -5t21 -10t7.5 -8q0 -1 -18 -21.5t-18 -33.5v-554q0 -13 18 -33.5t18 -21.5q0 -3 -7.5 -8t-21 -10t-26.5 -5h-37q-12 0 -25.5 5t-21 10t-7.5 8q0 1 18 21.5t18 33.5zM70 872q0 16 14.5 29
t26.5 13q4 0 7.5 -9t10.5 -24.5t18 -33t34 -37.5t55 -34q7 -3 7 -9q0 -7 -14 -7q-47 0 -103 34t-56 78z" />
    <glyph glyph-name="Iacute" unicode="&#xcd;" horiz-adv-x="313" 
d="M119 78q0 -13 -18 -33.5t-18 -21.5q0 -3 7.5 -8t21 -10t25.5 -5h37q13 0 26.5 5t21 10t7.5 8q0 1 -18 21.5t-18 33.5v554q0 13 18 33.5t18 21.5q0 3 -7.5 8t-21 10t-26.5 5h-37q-12 0 -25.5 -5t-21 -10t-7.5 -8q0 -1 18 -21.5t18 -33.5v-554zM243 872q0 -44 -56 -78
t-103 -34q-14 0 -14 7q0 6 7 9q32 14 55 34t34 37.5t18 33t10.5 24.5t7.5 9q12 0 26.5 -13t14.5 -29z" />
    <glyph glyph-name="Icircumflex" unicode="&#xce;" horiz-adv-x="384" 
d="M155 78v554q0 13 -18 33.5t-18 21.5q0 3 7.5 8t21 10t25.5 5h37q13 0 26.5 -5t21 -10t7.5 -8q0 -1 -18 -21.5t-18 -33.5v-554q0 -13 18 -33.5t18 -21.5q0 -3 -7.5 -8t-21 -10t-26.5 -5h-37q-12 0 -25.5 5t-21 10t-7.5 8q0 1 18 21.5t18 33.5zM224 872q26 -55 83 -96
q7 -6 7 -9q0 -7 -14 -7q-11 0 -22 3t-18 5.5t-19 11.5t-15 11.5t-17.5 16.5t-16.5 15q-4 -3 -14.5 -13t-14.5 -13.5t-13.5 -11.5t-15 -11t-14.5 -7t-17.5 -5.5t-18.5 -1.5q-14 0 -14 7q0 3 7 9q57 41 83 96q7 15 17 23.5t15 8.5t15 -8.5t17 -23.5z" />
    <glyph glyph-name="Idieresis" unicode="&#xcf;" horiz-adv-x="370" 
d="M148 78q0 -13 -18 -33.5t-18 -21.5q0 -3 7.5 -8t21 -10t25.5 -5h37q13 0 26.5 5t21 10t7.5 8q0 1 -18 21.5t-18 33.5v554q0 13 18 33.5t18 21.5q0 3 -7.5 8t-21 10t-26.5 5h-37q-12 0 -25.5 -5t-21 -10t-7.5 -8q0 -1 18 -21.5t18 -33.5v-554zM70 822q0 19 13 32t32 13
t32 -13t13 -32t-13 -32t-32 -13t-32 13t-13 32zM210 822q0 19 13 32t32 13t32 -13t13 -32t-13 -32t-32 -13t-32 13t-13 32z" />
    <glyph glyph-name="Eth" unicode="&#xd0;" horiz-adv-x="787" 
d="M239 320v-258q86 -8 153 -8q99 0 160.5 76.5t61.5 228.5q0 34 -4.5 68t-19 75.5t-38 72t-65 51.5t-95.5 21h-153v-273h82l-17 -54h-65zM155 374v253q0 13 -18 32.5t-18 20.5q0 3 9 7.5t23 8.5t27 4h229q134 0 222 -97.5t88 -243.5q0 -143 -96 -251t-211 -108
q-255 0 -255 5v315h-7q-13 0 -33.5 -18.5t-21.5 -18.5q-4 0 -13.5 18.5t-9.5 30.5q0 22 24.5 32t53.5 10h7z" />
    <glyph glyph-name="Ntilde" unicode="&#xd1;" horiz-adv-x="701" 
d="M544 6l-364 581v-581q0 -6 -32 -6q-42 0 -42 6v616q0 13 -18 33.5t-18 21.5q0 3 9 8t23.5 10t26.5 5h61l367 -582v576q0 6 36 6q38 0 38 -6v-688q0 -6 -48 -6q-36 0 -39 6zM420 760q-33 0 -54.5 14t-40 27.5t-42.5 13.5q-18 0 -25 -8t-6.5 -17t-2 -17t-12.5 -8
q-14 0 -14 42q0 18 16.5 37t44.5 19q29 0 49.5 -8.5t29.5 -19t24 -19t34 -8.5q16 0 22.5 6t6.5 14t3.5 14t13.5 6q13 0 13 -42q0 -16 -16 -31t-44 -15z" />
    <glyph glyph-name="Ograve" unicode="&#xd2;" horiz-adv-x="774" 
d="M404 47q110 0 162.5 78t52.5 212q0 144 -69.5 230t-179.5 86t-162.5 -78t-52.5 -212q0 -144 69.5 -230t179.5 -86zM383 -10q-84 0 -146 28.5t-97.5 80.5t-52.5 117.5t-17 146.5q0 91 29.5 161t77.5 109t102.5 58t111.5 19q84 0 146 -28.5t97.5 -80.5t52.5 -117.5
t17 -146.5q0 -91 -29.5 -161t-77.5 -109t-102.5 -58t-111.5 -19zM300 872q0 16 14.5 29t26.5 13q4 0 7.5 -9t10.5 -24.5t18 -33t34 -37.5t55 -34q7 -3 7 -9q0 -7 -14 -7q-47 0 -103 34t-56 78z" />
    <glyph glyph-name="Oacute" unicode="&#xd3;" horiz-adv-x="774" 
d="M404 47q110 0 162.5 78t52.5 212q0 144 -69.5 230t-179.5 86t-162.5 -78t-52.5 -212q0 -144 69.5 -230t179.5 -86zM383 -10q-84 0 -146 28.5t-97.5 80.5t-52.5 117.5t-17 146.5q0 91 29.5 161t77.5 109t102.5 58t111.5 19q84 0 146 -28.5t97.5 -80.5t52.5 -117.5
t17 -146.5q0 -91 -29.5 -161t-77.5 -109t-102.5 -58t-111.5 -19zM473 872q0 -44 -56 -78t-103 -34q-14 0 -14 7q0 6 7 9q32 14 55 34t34 37.5t18 33t10.5 24.5t7.5 9q12 0 26.5 -13t14.5 -29z" />
    <glyph glyph-name="Ocircumflex" unicode="&#xd4;" horiz-adv-x="774" 
d="M404 47q110 0 162.5 78t52.5 212q0 144 -69.5 230t-179.5 86t-162.5 -78t-52.5 -212q0 -144 69.5 -230t179.5 -86zM383 -10q-84 0 -146 28.5t-97.5 80.5t-52.5 117.5t-17 146.5q0 91 29.5 161t77.5 109t102.5 58t111.5 19q84 0 146 -28.5t97.5 -80.5t52.5 -117.5
t17 -146.5q0 -91 -29.5 -161t-77.5 -109t-102.5 -58t-111.5 -19zM419 872q26 -55 83 -96q7 -6 7 -9q0 -7 -14 -7q-11 0 -22 3t-18 5.5t-19 11.5t-15 11.5t-17.5 16.5t-16.5 15q-4 -3 -14.5 -13t-14.5 -13.5t-13.5 -11.5t-15 -11t-14.5 -7t-17.5 -5.5t-18.5 -1.5q-14 0 -14 7
q0 3 7 9q57 41 83 96q7 15 17 23.5t15 8.5t15 -8.5t17 -23.5z" />
    <glyph glyph-name="Otilde" unicode="&#xd5;" horiz-adv-x="774" 
d="M404 47q110 0 162.5 78t52.5 212q0 144 -69.5 230t-179.5 86t-162.5 -78t-52.5 -212q0 -144 69.5 -230t179.5 -86zM383 -10q-84 0 -146 28.5t-97.5 80.5t-52.5 117.5t-17 146.5q0 91 29.5 161t77.5 109t102.5 58t111.5 19q84 0 146 -28.5t97.5 -80.5t52.5 -117.5
t17 -146.5q0 -91 -29.5 -161t-77.5 -109t-102.5 -58t-111.5 -19zM455 760q-33 0 -54.5 14t-40 27.5t-42.5 13.5q-18 0 -25 -8t-6.5 -17t-2 -17t-12.5 -8q-14 0 -14 42q0 18 16.5 37t44.5 19q29 0 49.5 -8.5t29.5 -19t24 -19t34 -8.5q16 0 22.5 6t6.5 14t3.5 14t13.5 6
q13 0 13 -42q0 -16 -16 -31t-44 -15z" />
    <glyph glyph-name="Odieresis" unicode="&#xd6;" horiz-adv-x="774" 
d="M404 47q110 0 162.5 78t52.5 212q0 144 -69.5 230t-179.5 86t-162.5 -78t-52.5 -212q0 -144 69.5 -230t179.5 -86zM383 -10q-84 0 -146 28.5t-97.5 80.5t-52.5 117.5t-17 146.5q0 91 29.5 161t77.5 109t102.5 58t111.5 19q84 0 146 -28.5t97.5 -80.5t52.5 -117.5
t17 -146.5q0 -91 -29.5 -161t-77.5 -109t-102.5 -58t-111.5 -19zM272 822q0 19 13 32t32 13t32 -13t13 -32t-13 -32t-32 -13t-32 13t-13 32zM412 822q0 19 13 32t32 13t32 -13t13 -32t-13 -32t-32 -13t-32 13t-13 32z" />
    <glyph glyph-name="multiply" unicode="&#xd7;" horiz-adv-x="535" 
d="M271 447l114 149q3 5 41 5q39 0 39 -5l-157 -202q98 -139 104 -145q5 -8 17.5 -20t22 -21t9.5 -11q0 -3 -8.5 -8t-23.5 -9.5t-28 -4.5q-15 0 -36 18.5t-35 36.5l-13 19l-58 81l-113 -146q-3 -4 -32 -4q-9 0 -27 1.5t-17 2.5l152 198l-104 145q-7 9 -19 21.5t-20.5 20.5
t-8.5 10q0 3 9 8t24.5 9.5t28.5 4.5q15 0 35.5 -18.5t33.5 -36.5l13 -19z" />
    <glyph glyph-name="Oslash" unicode="&#xd8;" horiz-adv-x="774" 
d="M519 593l-227 -513q53 -33 112 -33q110 0 162.5 78t52.5 212q0 164 -100 256zM254 109l217 518q-47 26 -101 26q-110 0 -162.5 -78t-52.5 -212q0 -162 99 -254zM260 9l-26 -59h-46l32 77q-150 83 -150 336q0 91 29.5 161t77.5 109t102.5 58t111.5 19q50 0 96 -11
q-5 6 -11.5 12.5l-10 10t-3.5 5.5q0 3 9 8t23.5 10t26.5 5h67l-35 -78q151 -85 151 -335q0 -91 -29.5 -161t-77.5 -109t-102.5 -58t-111.5 -19q-68 0 -123 19z" />
    <glyph glyph-name="Ugrave" unicode="&#xd9;" horiz-adv-x="701" 
d="M547 336v358q0 6 42 6t42 -6v-361q0 -179 -67.5 -261t-183.5 -82q-67 0 -117 19.5t-79.5 51.5t-47.5 82t-24 101.5t-6 118.5v264q0 13 -18 33.5t-18 21.5q0 3 9 8t23.5 10t26.5 5q29 0 45 -25t16 -53v-264q0 -146 46.5 -231t143.5 -85q91 0 129 76t38 213zM265 872
q0 16 14.5 29t26.5 13q4 0 7.5 -9t10.5 -24.5t18 -33t34 -37.5t55 -34q7 -3 7 -9q0 -7 -14 -7q-47 0 -103 34t-56 78z" />
    <glyph glyph-name="Uacute" unicode="&#xda;" horiz-adv-x="701" 
d="M547 694v-358q0 -137 -38 -213t-129 -76q-97 0 -143.5 85t-46.5 231v264q0 28 -16 53t-45 25q-12 0 -26.5 -5t-23.5 -10t-9 -8q0 -1 18 -21.5t18 -33.5v-264q0 -67 6 -118.5t24 -101.5t47.5 -82t79.5 -51.5t117 -19.5q116 0 183.5 82t67.5 261v361q0 6 -42 6t-42 -6z
M438 872q0 -44 -56 -78t-103 -34q-14 0 -14 7q0 6 7 9q32 14 55 34t34 37.5t18 33t10.5 24.5t7.5 9q12 0 26.5 -13t14.5 -29z" />
    <glyph glyph-name="Ucircumflex" unicode="&#xdb;" horiz-adv-x="701" 
d="M547 336v358q0 6 42 6t42 -6v-361q0 -179 -67.5 -261t-183.5 -82q-67 0 -117 19.5t-79.5 51.5t-47.5 82t-24 101.5t-6 118.5v264q0 13 -18 33.5t-18 21.5q0 3 9 8t23.5 10t26.5 5q29 0 45 -25t16 -53v-264q0 -146 46.5 -231t143.5 -85q91 0 129 76t38 213zM383 872
q26 -55 83 -96q7 -6 7 -9q0 -7 -14 -7q-11 0 -22 3t-18 5.5t-19 11.5t-15 11.5t-17.5 16.5t-16.5 15q-4 -3 -14.5 -13t-14.5 -13.5t-13.5 -11.5t-15 -11t-14.5 -7t-17.5 -5.5t-18.5 -1.5q-14 0 -14 7q0 3 7 9q57 41 83 96q7 15 17 23.5t15 8.5t15 -8.5t17 -23.5z" />
    <glyph glyph-name="Udieresis" unicode="&#xdc;" horiz-adv-x="701" 
d="M547 694v-358q0 -137 -38 -213t-129 -76q-97 0 -143.5 85t-46.5 231v264q0 28 -16 53t-45 25q-12 0 -26.5 -5t-23.5 -10t-9 -8q0 -1 18 -21.5t18 -33.5v-264q0 -67 6 -118.5t24 -101.5t47.5 -82t79.5 -51.5t117 -19.5q116 0 183.5 82t67.5 261v361q0 6 -42 6t-42 -6z
M236 822q0 19 13 32t32 13t32 -13t13 -32t-13 -32t-32 -13t-32 13t-13 32zM376 822q0 19 13 32t32 13t32 -13t13 -32t-13 -32t-32 -13t-32 13t-13 32z" />
    <glyph glyph-name="Yacute" unicode="&#xdd;" horiz-adv-x="699" 
d="M388 347l241 344q0 6 -8.5 7.5t-40.5 1.5q-35 0 -41 -9l-193 -272l-135 213q-5 9 -13.5 22t-29 34.5t-34.5 21.5q-12 0 -28 -4.5t-26 -10t-10 -8.5q0 -2 18 -23t38.5 -45t25.5 -33l152 -239v-341q0 -6 42 -6t42 6v341zM436 872q0 -44 -56 -78t-103 -34q-14 0 -14 7
q0 6 7 9q32 14 55 34t34 37.5t18 33t10.5 24.5t7.5 9q12 0 26.5 -13t14.5 -29z" />
    <glyph glyph-name="Thorn" unicode="&#xde;" horiz-adv-x="568" 
d="M273 191q63 0 102 34.5t39 98.5q0 143 -170 143h-54v-276h83zM190 142v-136q0 -6 -42 -6t-42 6v1v1v1v1v1v1v1v1v1v1v1v1v1v1v1v1v1v1v1v1v1v1v1v1v1v1v1v1v1v1v1v1v1v1v1v1v1v1v1v1v1v1v1v1v1v1v1v1v1v1v1v1v1v1v1v1v1v1v1v1v1v1v1v1v1v1v1v1v1v1v1v1v1v1v1v1v1v1v1v1v1
v1v1v1v1v1v1v1v1v1v1v1v1v1v1v1v1v1v1v1v1v1v1v1v1v1v1v1v1v1v1v1v1v1v1v1v1v1v1v1v1v1v1v1v1v1v1v1v1v1v1v1v1v1v1v1v1v1v1v1v1v1v1v1v1v1v1v1v1v1v1v1v1v1v1v1v1v1v1v1v1v1v1v1v1v1v1v1v1v1v1v1v1v1v1v1v1v1v1v1v1v1v1v1v1v1v1v1v1v1v1v1v1v1v1v1v1v1v1v1v1v1v1v1v1v1v1v1
v1v1v1v1v1v1v1v1v1v1v1v1v1v1v1v1v1v1v1v1v1v1v1v1v1v1v1v1v1v1v1v1v1v1v1v1v1v1v1v1v1v1v1v1v1v1v1v1v1v1v1v1v1v1v1v1v1v1v1v1v1v1v1v1v1v1v1v1v1v1v1v1v1v1v1v1v1v1v1v1v1v1v1v1v1v1v1v1v1v1v1v1v1v1v1v1v1v1v1v1v1v1v1v1v1v1v1v1v1v1v1v1v1v1v1v1v1v1v1v1v1v1v1v1v1v1v1
v1v1v1v1v1v1v1v1v1v1v1v1v1v1v1v1v1v1v1v1v1v1v1v1v1v1v1v1v1v1v1v1v1v1v1v1v1v1v1v1v1v1v1v1v1v1v1v1v1v1v1v1v1v1v1v1v1v1v1v1v1v1v1v1v1v1v1v1v1v1v1v1v1v1v1v1v1v1v1v1v1v1v1v1v1v1v1v1v1v1v1v1v1v1v1v1v1v1v1v1v1v1v1v1v1v1v1v1v1v1v1v1v1v1v1v1v1v1v1v1v1v1v1v1v1v1v1
v1v1v1v1v1v1v1v1v1v1v1v1v1v1v1v1v1v1v1v1v1v1v1v1v1v1v1v1v1v1v1v1v1v1v1v1v1v1v1v1v1v1v1v1v1v1v1v1v1v1v1v1v1v1v1v1v1v1v1v1v1v1v1v1v1v1v1v1v1v1v1v1v1v1v1v1v1v1v1v1v1v1v1v1v1v1v1v1v1v1v1v1v1v1v1v1v1v1v1v1v1v1v1v1v1v1v1v1v1v1v1v1v1v1v1v1v1v1v1v1v1v1v1v1v1v1v1
v1v1v1v1v1v1v1v1v1v1v1v1v1v1v1v1v1v1v1v1v1v1v10q0 13 -18 33.5t-18 21.5q0 3 9 8t23.5 10t26.5 5q29 0 45 -25t16 -53v-110h55q119 0 186 -48.5t67 -143.5q0 -29 -13 -59.5t-38 -58.5t-70.5 -46t-103.5 -18z" />
    <glyph glyph-name="germandbls" unicode="&#xdf;" horiz-adv-x="568" 
d="M70 541q0 18 8.5 43t28 55t62 50.5t100.5 20.5q76 0 123 -47t47 -102q0 -34 -10 -61t-29.5 -45.5t-33.5 -28t-37.5 -20t-24.5 -11.5q19 0 49.5 -12t64.5 -34.5t57.5 -64t23.5 -91.5q0 -90 -53 -146.5t-140 -56.5q-48 0 -94.5 31.5t-46.5 47.5q0 6 16 13.5t28 7.5
q4 0 43.5 -22.5t55.5 -22.5q104 0 104 148q0 67 -51 109t-127 42q-16 0 -16 33q0 18 21.5 39.5t48 38.5t48 43.5t21.5 54.5q0 33 -26.5 64.5t-75.5 31.5q-34 0 -58 -15.5t-34.5 -38.5t-14.5 -40t-4 -30v-457q0 -13 18 -33.5t18 -21.5q0 -3 -7.5 -8t-21 -10t-25.5 -5
q-28 0 -42 24.5t-14 53.5v473z" />
    <glyph glyph-name="agrave" unicode="&#xe0;" horiz-adv-x="499" 
d="M319 250v56q0 30 -19 58t-55 28q-30 0 -55 -10t-40 -24t-25 -27.5t-15.5 -23.5t-6.5 -10q-3 0 -8.5 11.5t-10 28.5t-4.5 29q67 75 175 75q37 0 63.5 -8t40.5 -19.5t22 -31t10 -36t2 -40.5v-239q0 -12 18 -32.5t18 -21.5q0 -6 -17 -14.5t-32 -8.5q-17 0 -33 8t-23 16l-8 8
q-1 -4 -5 -9t-27 -14t-59 -9q-65 0 -110 34.5t-45 92.5q0 33 16 55t45.5 34t58 18.5t68.5 13t61 12.5zM319 85l1 120q-23 -6 -53 -11.5t-46.5 -9.5t-33.5 -11t-24.5 -20.5t-7.5 -35.5q0 -32 15.5 -49t33 -20.5t45.5 -3.5q17 0 30.5 4t20.5 10.5t11.5 12.5t6.5 10zM165 603
q0 16 14.5 29t26.5 13q4 0 7.5 -9t10.5 -24.5t18 -33t34 -37.5t55 -34q7 -3 7 -9q0 -7 -14 -7q-47 0 -103 34t-56 78z" />
    <glyph glyph-name="aacute" unicode="&#xe1;" horiz-adv-x="499" 
d="M319 250v56q0 30 -19 58t-55 28q-30 0 -55 -10t-40 -24t-25 -27.5t-15.5 -23.5t-6.5 -10q-3 0 -8.5 11.5t-10 28.5t-4.5 29q67 75 175 75q37 0 63.5 -8t40.5 -19.5t22 -31t10 -36t2 -40.5v-239q0 -12 18 -32.5t18 -21.5q0 -6 -17 -14.5t-32 -8.5q-17 0 -33 8t-23 16l-8 8
q-1 -4 -5 -9t-27 -14t-59 -9q-65 0 -110 34.5t-45 92.5q0 33 16 55t45.5 34t58 18.5t68.5 13t61 12.5zM319 85l1 120q-23 -6 -53 -11.5t-46.5 -9.5t-33.5 -11t-24.5 -20.5t-7.5 -35.5q0 -32 15.5 -49t33 -20.5t45.5 -3.5q17 0 30.5 4t20.5 10.5t11.5 12.5t6.5 10zM319 596
q0 -44 -56 -78t-103 -34q-14 0 -14 7q0 6 7 9q32 14 55 34t34 37.5t18 33t10.5 24.5t7.5 9q12 0 26.5 -13t14.5 -29z" />
    <glyph glyph-name="acircumflex" unicode="&#xe2;" horiz-adv-x="499" 
d="M319 250v56q0 30 -19 58t-55 28q-30 0 -55 -10t-40 -24t-25 -27.5t-15.5 -23.5t-6.5 -10q-3 0 -8.5 11.5t-10 28.5t-4.5 29q67 75 175 75q37 0 63.5 -8t40.5 -19.5t22 -31t10 -36t2 -40.5v-239q0 -12 18 -32.5t18 -21.5q0 -6 -17 -14.5t-32 -8.5q-17 0 -33 8t-23 16l-8 8
q-1 -4 -5 -9t-27 -14t-59 -9q-65 0 -110 34.5t-45 92.5q0 33 16 55t45.5 34t58 18.5t68.5 13t61 12.5zM319 85l1 120q-23 -6 -53 -11.5t-46.5 -9.5t-33.5 -11t-24.5 -20.5t-7.5 -35.5q0 -32 15.5 -49t33 -20.5t45.5 -3.5q17 0 30.5 4t20.5 10.5t11.5 12.5t6.5 10zM263 603
q26 -55 83 -96q7 -6 7 -9q0 -7 -14 -7q-11 0 -22 3t-18 5.5t-19 11.5t-15 11.5t-17.5 16.5t-16.5 15q-4 -3 -14.5 -13t-14.5 -13.5t-13.5 -11.5t-15 -11t-14.5 -7t-17.5 -5.5t-18.5 -1.5q-14 0 -14 7q0 3 7 9q57 41 83 96q7 15 17 23.5t15 8.5t15 -8.5t17 -23.5z" />
    <glyph glyph-name="atilde" unicode="&#xe3;" horiz-adv-x="499" 
d="M319 250v56q0 30 -19 58t-55 28q-30 0 -55 -10t-40 -24t-25 -27.5t-15.5 -23.5t-6.5 -10q-3 0 -8.5 11.5t-10 28.5t-4.5 29q67 75 175 75q37 0 63.5 -8t40.5 -19.5t22 -31t10 -36t2 -40.5v-239q0 -12 18 -32.5t18 -21.5q0 -6 -17 -14.5t-32 -8.5q-17 0 -33 8t-23 16l-8 8
q-1 -4 -5 -9t-27 -14t-59 -9q-65 0 -110 34.5t-45 92.5q0 33 16 55t45.5 34t58 18.5t68.5 13t61 12.5zM319 85l1 120q-23 -6 -53 -11.5t-46.5 -9.5t-33.5 -11t-24.5 -20.5t-7.5 -35.5q0 -32 15.5 -49t33 -20.5t45.5 -3.5q17 0 30.5 4t20.5 10.5t11.5 12.5t6.5 10zM318 491
q-33 0 -54.5 13.5t-40 27.5t-42.5 14q-18 0 -25 -8t-6.5 -17t-2 -17t-12.5 -8q-14 0 -14 42q0 18 16.5 37t44.5 19q37 0 59 -14t38 -27.5t40 -13.5q16 0 22.5 6.5t6.5 13.5t3.5 13.5t13.5 6.5q13 0 13 -42q0 -16 -16 -31t-44 -15z" />
    <glyph glyph-name="adieresis" unicode="&#xe4;" horiz-adv-x="499" 
d="M319 250v56q0 30 -19 58t-55 28q-30 0 -55 -10t-40 -24t-25 -27.5t-15.5 -23.5t-6.5 -10q-3 0 -8.5 11.5t-10 28.5t-4.5 29q67 75 175 75q37 0 63.5 -8t40.5 -19.5t22 -31t10 -36t2 -40.5v-239q0 -12 18 -32.5t18 -21.5q0 -6 -17 -14.5t-32 -8.5q-17 0 -33 8t-23 16l-8 8
q-1 -4 -5 -9t-27 -14t-59 -9q-65 0 -110 34.5t-45 92.5q0 33 16 55t45.5 34t58 18.5t68.5 13t61 12.5zM319 85l1 120q-23 -6 -53 -11.5t-46.5 -9.5t-33.5 -11t-24.5 -20.5t-7.5 -35.5q0 -32 15.5 -49t33 -20.5t45.5 -3.5q17 0 30.5 4t20.5 10.5t11.5 12.5t6.5 10zM116 553
q0 19 13 32t32 13t32 -13t13 -32t-13 -32t-32 -13t-32 13t-13 32zM256 553q0 19 13 32t32 13t32 -13t13 -32t-13 -32t-32 -13t-32 13t-13 32z" />
    <glyph glyph-name="aring" unicode="&#xe5;" horiz-adv-x="499" 
d="M319 250v56q0 30 -19 58t-55 28q-30 0 -55 -10t-40 -24t-25 -27.5t-15.5 -23.5t-6.5 -10q-3 0 -8.5 11.5t-10 28.5t-4.5 29q67 75 175 75q37 0 63.5 -8t40.5 -19.5t22 -31t10 -36t2 -40.5v-239q0 -12 18 -32.5t18 -21.5q0 -6 -17 -14.5t-32 -8.5q-17 0 -33 8t-23 16l-8 8
q-1 -4 -5 -9t-27 -14t-59 -9q-65 0 -110 34.5t-45 92.5q0 33 16 55t45.5 34t58 18.5t68.5 13t61 12.5zM319 85l1 120q-23 -6 -53 -11.5t-46.5 -9.5t-33.5 -11t-24.5 -20.5t-7.5 -35.5q0 -32 15.5 -49t33 -20.5t45.5 -3.5q17 0 30.5 4t20.5 10.5t11.5 12.5t6.5 10zM167 569
q0 32 24.5 55t57.5 23t57.5 -23t24.5 -55t-24.5 -55t-57.5 -23t-57.5 23t-24.5 55zM207 569q0 -16 12.5 -27.5t29.5 -11.5t29 11.5t12 27.5t-12 27t-29 11t-29.5 -11t-12.5 -27z" />
    <glyph glyph-name="ae" unicode="&#xe6;" horiz-adv-x="775" 
d="M405 249h221q0 23 -0.5 36t-6.5 36t-16 35.5t-31.5 23t-52.5 10.5q-53 0 -83.5 -38.5t-30.5 -102.5zM381 388q55 56 141 56q82 0 132.5 -51.5t50.5 -142.5q0 -36 -9 -42t-62 -6h-229q0 -60 31 -108.5t82 -48.5q30 0 55 11.5t38 26t24 26t15 11.5q10 0 26 -20t16 -29
q0 -6 -5 -15t-18 -21t-32 -21.5t-50.5 -16.5t-69.5 -7q-97 0 -145 59q-7 -7 -20.5 -16.5t-52 -26t-74.5 -16.5q-65 0 -110 34.5t-45 92.5q0 33 16 55t45.5 34t58 18.5t68.5 13t61 12.5v56q0 20 -4 38.5t-19.5 35.5t-40.5 17q-30 0 -56 -10.5t-42.5 -25t-28 -29t-18 -25
t-7.5 -10.5q-3 0 -8.5 11.5t-10 28.5t-4.5 29q30 34 70 55t64 25.5t41 4.5q98 0 126 -63zM319 85l1 120q-23 -6 -53 -11.5t-46.5 -9.5t-33.5 -11t-24.5 -20.5t-7.5 -35.5q0 -32 15.5 -49t33 -20.5t45.5 -3.5q17 0 30.5 4t20.5 10.5t11.5 12.5t6.5 10z" />
    <glyph glyph-name="ccedilla" unicode="&#xe7;" horiz-adv-x="513" 
d="M70 225q0 58 18.5 101.5t49 67.5t64.5 35.5t70 11.5q48 0 90 -14.5t61.5 -29.5t19.5 -23q0 -9 -25 -27t-37 -18q-5 0 -23.5 15.5t-45.5 30.5t-53 15q-61 0 -85 -43t-24 -122t32.5 -132t85.5 -53q30 0 55 12.5t38 27.5t24 27.5t15 12.5q10 0 26 -20t16 -29q0 -6 -5 -15
t-18 -21t-32 -21.5t-50.5 -16.5t-69.5 -7q-103 0 -150 64.5t-47 170.5zM230 0h42q-45 -14 -45 -40q0 -8 8 -14.5t25 -6.5q18 0 31.5 -1t33 -6.5t32 -15t21.5 -28.5t9 -46q0 -34 -29.5 -63t-74.5 -29q-43 0 -75.5 15.5t-44 30.5t-11.5 24t24 17t38 8q5 0 12.5 -10.5
t23.5 -20.5t42 -10q15 0 30.5 9t15.5 27q0 43 -53 43q-122 0 -122 51q0 27 16.5 43.5t33.5 19.5z" />
    <glyph glyph-name="egrave" unicode="&#xe8;" horiz-adv-x="525" 
d="M150 249h226q0 23 -0.5 36t-6.5 36t-16 35.5t-31.5 23t-52.5 10.5q-54 0 -86.5 -38.5t-32.5 -102.5zM384 202h-234q0 -60 33.5 -111t84.5 -51q30 0 55 12.5t38 27.5t24 27.5t15 12.5q10 0 26 -20t16 -29q0 -6 -5 -15t-18 -21t-32 -21.5t-50.5 -16.5t-69.5 -7
q-103 0 -150 64.5t-47 170.5q0 58 18.5 101.5t49 67.5t64.5 35.5t70 11.5q82 0 132.5 -50t50.5 -141q0 -36 -9 -42t-62 -6zM189 603q0 16 14.5 29t26.5 13q4 0 7.5 -9t10.5 -24.5t18 -33t34 -37.5t55 -34q7 -3 7 -9q0 -7 -14 -7q-47 0 -103 34t-56 78z" />
    <glyph glyph-name="eacute" unicode="&#xe9;" horiz-adv-x="525" 
d="M150 249h226q0 23 -0.5 36t-6.5 36t-16 35.5t-31.5 23t-52.5 10.5q-54 0 -86.5 -38.5t-32.5 -102.5zM384 202h-234q0 -60 33.5 -111t84.5 -51q30 0 55 12.5t38 27.5t24 27.5t15 12.5q10 0 26 -20t16 -29q0 -6 -5 -15t-18 -21t-32 -21.5t-50.5 -16.5t-69.5 -7
q-103 0 -150 64.5t-47 170.5q0 58 18.5 101.5t49 67.5t64.5 35.5t70 11.5q82 0 132.5 -50t50.5 -141q0 -36 -9 -42t-62 -6zM362 603q0 -44 -56 -78t-103 -34q-14 0 -14 7q0 6 7 9q32 14 55 34t34 37.5t18 33t10.5 24.5t7.5 9q12 0 26.5 -13t14.5 -29z" />
    <glyph glyph-name="ecircumflex" unicode="&#xea;" horiz-adv-x="525" 
d="M150 249h226q0 23 -0.5 36t-6.5 36t-16 35.5t-31.5 23t-52.5 10.5q-54 0 -86.5 -38.5t-32.5 -102.5zM384 202h-234q0 -60 33.5 -111t84.5 -51q30 0 55 12.5t38 27.5t24 27.5t15 12.5q10 0 26 -20t16 -29q0 -6 -5 -15t-18 -21t-32 -21.5t-50.5 -16.5t-69.5 -7
q-103 0 -150 64.5t-47 170.5q0 58 18.5 101.5t49 67.5t64.5 35.5t70 11.5q82 0 132.5 -50t50.5 -141q0 -36 -9 -42t-62 -6zM307 603q26 -55 83 -96q7 -6 7 -9q0 -7 -14 -7q-11 0 -22 3t-18 5.5t-19 11.5t-15 11.5t-17.5 16.5t-16.5 15q-4 -3 -14.5 -13t-14.5 -13.5
t-13.5 -11.5t-15 -11t-14.5 -7t-17.5 -5.5t-18.5 -1.5q-14 0 -14 7q0 3 7 9q57 41 83 96q7 15 17 23.5t15 8.5t15 -8.5t17 -23.5z" />
    <glyph glyph-name="edieresis" unicode="&#xeb;" horiz-adv-x="525" 
d="M150 249h226q0 23 -0.5 36t-6.5 36t-16 35.5t-31.5 23t-52.5 10.5q-54 0 -86.5 -38.5t-32.5 -102.5zM384 202h-234q0 -60 33.5 -111t84.5 -51q30 0 55 12.5t38 27.5t24 27.5t15 12.5q10 0 26 -20t16 -29q0 -6 -5 -15t-18 -21t-32 -21.5t-50.5 -16.5t-69.5 -7
q-103 0 -150 64.5t-47 170.5q0 58 18.5 101.5t49 67.5t64.5 35.5t70 11.5q82 0 132.5 -50t50.5 -141q0 -36 -9 -42t-62 -6zM160 553q0 19 13 32t32 13t32 -13t13 -32t-13 -32t-32 -13t-32 13t-13 32zM300 553q0 19 13 32t32 13t32 -13t13 -32t-13 -32t-32 -13t-32 13t-13 32
z" />
    <glyph glyph-name="igrave" unicode="&#xec;" horiz-adv-x="313" 
d="M198 363v-295q0 -13 18 -33.5t18 -21.5q0 -3 -9 -8t-23.5 -10t-26.5 -5q-29 0 -45 25t-16 53v295q0 13 -18 33.5t-18 21.5q0 3 9 8t23.5 10t26.5 5q29 0 45 -25t16 -53zM70 603q0 16 14.5 29t26.5 13q4 0 7.5 -9t10.5 -24.5t18 -33t34 -37.5t55 -34q7 -3 7 -9
q0 -7 -14 -7q-47 0 -103 34t-56 78z" />
    <glyph glyph-name="iacute" unicode="&#xed;" horiz-adv-x="313" 
d="M198 363q0 28 -16 53t-45 25q-12 0 -26.5 -5t-23.5 -10t-9 -8q0 -1 18 -21.5t18 -33.5v-295q0 -28 16 -53t45 -25q12 0 26.5 5t23.5 10t9 8q0 1 -18 21.5t-18 33.5v295zM243 603q0 -44 -56 -78t-103 -34q-14 0 -14 7q0 6 7 9q32 14 55 34t34 37.5t18 33t10.5 24.5t7.5 9
q12 0 26.5 -13t14.5 -29z" />
    <glyph glyph-name="icircumflex" unicode="&#xee;" horiz-adv-x="384" 
d="M234 363v-295q0 -13 18 -33.5t18 -21.5q0 -3 -9 -8t-23.5 -10t-26.5 -5q-29 0 -45 25t-16 53v295q0 13 -18 33.5t-18 21.5q0 3 9 8t23.5 10t26.5 5q29 0 45 -25t16 -53zM224 603q26 -55 83 -96q7 -6 7 -9q0 -7 -14 -7q-11 0 -22 3t-18 5.5t-19 11.5t-15 11.5t-17.5 16.5
t-16.5 15q-4 -3 -14.5 -13t-14.5 -13.5t-13.5 -11.5t-15 -11t-14.5 -7t-17.5 -5.5t-18.5 -1.5q-14 0 -14 7q0 3 7 9q57 41 83 96q7 15 17 23.5t15 8.5t15 -8.5t17 -23.5z" />
    <glyph glyph-name="idieresis" unicode="&#xef;" horiz-adv-x="370" 
d="M227 363q0 28 -16 53t-45 25q-12 0 -26.5 -5t-23.5 -10t-9 -8q0 -1 18 -21.5t18 -33.5v-295q0 -28 16 -53t45 -25q12 0 26.5 5t23.5 10t9 8q0 1 -18 21.5t-18 33.5v295zM70 553q0 19 13 32t32 13t32 -13t13 -32t-13 -32t-32 -13t-32 13t-13 32zM210 553q0 19 13 32t32 13
t32 -13t13 -32t-13 -32t-32 -13t-32 13t-13 32z" />
    <glyph glyph-name="eth" unicode="&#xf0;" horiz-adv-x="577" 
d="M202 590l50 29q-47 43 -86 55q-11 14 -11 26q0 10 7 10q19 -3 36 -8q41 -7 100 -55l107 63v-67q0 -12 -5 -21.5t-10 -13.5t-8 -4t-6 3l-8.5 8.5t-11.5 9.5l-21 -11q74 -70 123 -169.5t49 -219.5q0 -92 -62.5 -163.5t-157.5 -71.5q-84 0 -150.5 58.5t-66.5 160.5t59 157.5
t150 55.5q49 0 85 -14.5t51 -31.5q-16 51 -48.5 103t-56.5 79l-24 27l-84 -49v54zM425 204q0 68 -35.5 115t-102.5 47q-50 0 -81 -26t-41 -59t-10 -72q0 -161 124 -161q53 0 99.5 40.5t46.5 115.5z" />
    <glyph glyph-name="ntilde" unicode="&#xf1;" horiz-adv-x="584" 
d="M404 68v149q0 174 -110 174q-34 0 -62.5 -21.5t-39.5 -43.5l-12 -21v-300q0 -5 -37 -5t-37 5v358q0 13 -18 33.5t-18 21.5q0 3 9 8t23.5 10t26.5 5q27 0 41.5 -20t14.5 -34q4 6 11.5 15t36 24t62.5 15q183 0 183 -223v-150q0 -13 18 -33.5t18 -21.5q0 -3 -6.5 -8
t-18.5 -10t-24 -5q-29 0 -45 25t-16 53zM360 491q-33 0 -54.5 13.5t-40 27.5t-42.5 14q-18 0 -25 -8t-6.5 -17t-2 -17t-12.5 -8q-14 0 -14 42q0 18 16.5 37t44.5 19q37 0 59 -14t38 -27.5t40 -13.5q16 0 22.5 6.5t6.5 13.5t3.5 13.5t13.5 6.5q13 0 13 -42q0 -16 -16 -31
t-44 -15z" />
    <glyph glyph-name="ograve" unicode="&#xf2;" horiz-adv-x="539" 
d="M272 444q103 0 150 -64.5t47 -170.5q0 -58 -18.5 -102t-49 -68.5t-64.5 -36.5t-70 -12q-103 0 -150 64.5t-47 170.5q0 58 18.5 102t49 68.5t64.5 36.5t70 12zM265 390q-114 0 -114 -165q0 -81 34 -133t89 -52q115 0 115 169q0 80 -34 130.5t-90 50.5zM182 603
q0 16 14.5 29t26.5 13q4 0 7.5 -9t10.5 -24.5t18 -33t34 -37.5t55 -34q7 -3 7 -9q0 -7 -14 -7q-47 0 -103 34t-56 78z" />
    <glyph glyph-name="oacute" unicode="&#xf3;" horiz-adv-x="539" 
d="M272 444q103 0 150 -64.5t47 -170.5q0 -58 -18.5 -102t-49 -68.5t-64.5 -36.5t-70 -12q-103 0 -150 64.5t-47 170.5q0 58 18.5 102t49 68.5t64.5 36.5t70 12zM265 390q-114 0 -114 -165q0 -81 34 -133t89 -52q115 0 115 169q0 80 -34 130.5t-90 50.5zM355 603
q0 -44 -56 -78t-103 -34q-14 0 -14 7q0 6 7 9q32 14 55 34t34 37.5t18 33t10.5 24.5t7.5 9q12 0 26.5 -13t14.5 -29z" />
    <glyph glyph-name="ocircumflex" unicode="&#xf4;" horiz-adv-x="539" 
d="M272 444q103 0 150 -64.5t47 -170.5q0 -58 -18.5 -102t-49 -68.5t-64.5 -36.5t-70 -12q-103 0 -150 64.5t-47 170.5q0 58 18.5 102t49 68.5t64.5 36.5t70 12zM265 390q-114 0 -114 -165q0 -81 34 -133t89 -52q115 0 115 169q0 80 -34 130.5t-90 50.5zM300 603
q26 -55 83 -96q7 -6 7 -9q0 -7 -14 -7q-11 0 -22 3t-18 5.5t-19 11.5t-15 11.5t-17.5 16.5t-16.5 15q-4 -3 -14.5 -13t-14.5 -13.5t-13.5 -11.5t-15 -11t-14.5 -7t-17.5 -5.5t-18.5 -1.5q-14 0 -14 7q0 3 7 9q57 41 83 96q7 15 17 23.5t15 8.5t15 -8.5t17 -23.5z" />
    <glyph glyph-name="otilde" unicode="&#xf5;" horiz-adv-x="539" 
d="M272 444q103 0 150 -64.5t47 -170.5q0 -58 -18.5 -102t-49 -68.5t-64.5 -36.5t-70 -12q-103 0 -150 64.5t-47 170.5q0 58 18.5 102t49 68.5t64.5 36.5t70 12zM265 390q-114 0 -114 -165q0 -81 34 -133t89 -52q115 0 115 169q0 80 -34 130.5t-90 50.5zM337 491
q-33 0 -54.5 13.5t-40 27.5t-42.5 14q-18 0 -25 -8t-6.5 -17t-2 -17t-12.5 -8q-14 0 -14 42q0 18 16.5 37t44.5 19q37 0 59 -14t38 -27.5t40 -13.5q16 0 22.5 6.5t6.5 13.5t3.5 13.5t13.5 6.5q13 0 13 -42q0 -16 -16 -31t-44 -15z" />
    <glyph glyph-name="odieresis" unicode="&#xf6;" horiz-adv-x="539" 
d="M272 444q103 0 150 -64.5t47 -170.5q0 -58 -18.5 -102t-49 -68.5t-64.5 -36.5t-70 -12q-103 0 -150 64.5t-47 170.5q0 58 18.5 102t49 68.5t64.5 36.5t70 12zM265 390q-114 0 -114 -165q0 -81 34 -133t89 -52q115 0 115 169q0 80 -34 130.5t-90 50.5zM153 553q0 19 13 32
t32 13t32 -13t13 -32t-13 -32t-32 -13t-32 13t-13 32zM293 553q0 19 13 32t32 13t32 -13t13 -32t-13 -32t-32 -13t-32 13t-13 32z" />
    <glyph glyph-name="divide" unicode="&#xf7;" horiz-adv-x="528" 
d="M220 548q0 19 13 32t32 13t32 -13t13 -32t-13 -32t-32 -13t-32 13t-13 32zM220 247q0 19 13 32t32 13t32 -13t13 -32t-13 -32t-32 -13t-32 13t-13 32zM461 431h-313q-29 0 -53.5 -10t-24.5 -32q0 -12 9.5 -30.5t13.5 -18.5q1 0 21.5 18.5t33.5 18.5h296z" />
    <glyph glyph-name="oslash" unicode="&#xf8;" horiz-adv-x="539" 
d="M429 480l-33 -74q73 -59 73 -197q0 -58 -18.5 -102t-49 -68.5t-64.5 -36.5t-70 -12q-26 0 -53 5l-20 -45h-51l26 61q-99 52 -99 214q0 58 18.5 102t49 68.5t64.5 36.5t70 12q27 0 47 -4q-16 16 -16 17q0 3 9 8t23.5 10t26.5 5h67zM198 82l121 291q-25 17 -54 17
q-61 0 -85.5 -43t-24.5 -122q0 -90 43 -143zM360 324l-121 -273q19 -7 35 -7q61 0 85.5 43t24.5 122q0 69 -24 115z" />
    <glyph glyph-name="ugrave" unicode="&#xf9;" horiz-adv-x="584" 
d="M180 363v-146q0 -177 110 -177q34 0 62.5 21.5t39.5 42.5l12 22v303q0 6 37 6t37 -6v-361q0 -13 18 -33.5t18 -21.5q0 -3 -9 -8t-23.5 -10t-26.5 -5q-27 0 -41.5 20t-14.5 34q-4 -6 -11.5 -15t-36 -24t-62.5 -15q-101 0 -142 59.5t-41 166.5v147q0 13 -18 33.5t-18 21.5
q0 3 9 8t23.5 10t26.5 5q28 0 39.5 -24t11.5 -54zM187 603q0 16 14.5 29t26.5 13q4 0 7.5 -9t10.5 -24.5t18 -33t34 -37.5t55 -34q7 -3 7 -9q0 -7 -14 -7q-47 0 -103 34t-56 78z" />
    <glyph glyph-name="uacute" unicode="&#xfa;" horiz-adv-x="584" 
d="M180 217v146q0 30 -11.5 54t-39.5 24q-12 0 -26.5 -5t-23.5 -10t-9 -8q0 -1 18 -21.5t18 -33.5v-147q0 -107 41 -166.5t142 -59.5q34 0 61.5 13.5t37.5 26.5l11 14q0 -14 14.5 -34t41.5 -20q12 0 26.5 5t23.5 10t9 8q0 1 -18 21.5t-18 33.5v361q0 6 -37 6t-37 -6v-303
q-2 -3 -5 -9t-13.5 -21t-22.5 -26t-32 -20.5t-41 -9.5q-110 0 -110 177zM360 603q0 -44 -56 -78t-103 -34q-14 0 -14 7q0 6 7 9q32 14 55 34t34 37.5t18 33t10.5 24.5t7.5 9q12 0 26.5 -13t14.5 -29z" />
    <glyph glyph-name="ucircumflex" unicode="&#xfb;" horiz-adv-x="584" 
d="M180 363v-146q0 -177 110 -177q34 0 62.5 21.5t39.5 42.5l12 22v303q0 6 37 6t37 -6v-361q0 -13 18 -33.5t18 -21.5q0 -3 -9 -8t-23.5 -10t-26.5 -5q-27 0 -41.5 20t-14.5 34q-4 -6 -11.5 -15t-36 -24t-62.5 -15q-101 0 -142 59.5t-41 166.5v147q0 13 -18 33.5t-18 21.5
q0 3 9 8t23.5 10t26.5 5q28 0 39.5 -24t11.5 -54zM306 603q26 -55 83 -96q7 -6 7 -9q0 -7 -14 -7q-11 0 -22 3t-18 5.5t-19 11.5t-15 11.5t-17.5 16.5t-16.5 15q-4 -3 -14.5 -13t-14.5 -13.5t-13.5 -11.5t-15 -11t-14.5 -7t-17.5 -5.5t-18.5 -1.5q-14 0 -14 7q0 3 7 9
q57 41 83 96q7 15 17 23.5t15 8.5t15 -8.5t17 -23.5z" />
    <glyph glyph-name="udieresis" unicode="&#xfc;" horiz-adv-x="584" 
d="M180 217v146q0 30 -11.5 54t-39.5 24q-12 0 -26.5 -5t-23.5 -10t-9 -8q0 -1 18 -21.5t18 -33.5v-147q0 -107 41 -166.5t142 -59.5q34 0 61.5 13.5t37.5 26.5l11 14q0 -14 14.5 -34t41.5 -20q12 0 26.5 5t23.5 10t9 8q0 1 -18 21.5t-18 33.5v361q0 6 -37 6t-37 -6v-303
q-2 -3 -5 -9t-13.5 -21t-22.5 -26t-32 -20.5t-41 -9.5q-110 0 -110 177zM159 553q0 19 13 32t32 13t32 -13t13 -32t-13 -32t-32 -13t-32 13t-13 32zM299 553q0 19 13 32t32 13t32 -13t13 -32t-13 -32t-32 -13t-32 13t-13 32z" />
    <glyph glyph-name="yacute" unicode="&#xfd;" horiz-adv-x="615" 
d="M458 425q2 6 31 6q53 0 53 -6q-28 -44 -69 -135.5t-80 -178.5t-82.5 -172t-90 -137t-89.5 -52q-30 0 -55.5 14.5t-25.5 27.5q0 19 5 32.5t10 18.5t8 5l20 -14q20 -13 36 -13q27 0 65 51.5t63 105t25 68.5l-137 317q-5 11 -14 23.5t-15.5 21t-6.5 10.5q0 3 9 8t23.5 10
t26.5 5q14 0 29 -19.5t23 -39.5l9 -19l99 -239zM385 603q0 -44 -56 -78t-103 -34q-14 0 -14 7q0 6 7 9q32 14 55 34t34 37.5t18 33t10.5 24.5t7.5 9q12 0 26.5 -13t14.5 -29z" />
    <glyph glyph-name="thorn" unicode="&#xfe;" horiz-adv-x="548" 
d="M190 -8v-236q0 -6 -42 -6t-42 6v871q0 13 -18 33.5t-18 21.5q0 3 9 8t23.5 10t26.5 5q29 0 45 -25t16 -53v-227q3 5 10 12.5t34 19.5t61 12q95 0 139 -61t44 -165q0 -97 -64 -162.5t-157 -65.5q-27 0 -67 2zM190 328v-273q0 -15 67 -15q62 0 99.5 55.5t37.5 121.5
q0 22 -0.5 35t-3 37t-9 39t-17 30.5t-28.5 23.5t-42 8q-21 0 -39.5 -6.5t-30 -15.5t-19.5 -18t-11 -16z" />
    <glyph glyph-name="ydieresis" unicode="&#xff;" horiz-adv-x="615" 
d="M458 425q2 6 31 6q53 0 53 -6q-28 -44 -69 -135.5t-80 -178.5t-82.5 -172t-90 -137t-89.5 -52q-30 0 -55.5 14.5t-25.5 27.5q0 19 5 32.5t10 18.5t8 5l20 -14q20 -13 36 -13q27 0 65 51.5t63 105t25 68.5l-137 317q-5 11 -14 23.5t-15.5 21t-6.5 10.5q0 3 9 8t23.5 10
t26.5 5q14 0 29 -19.5t23 -39.5l9 -19l99 -239zM183 553q0 19 13 32t32 13t32 -13t13 -32t-13 -32t-32 -13t-32 13t-13 32zM323 553q0 19 13 32t32 13t32 -13t13 -32t-13 -32t-32 -13t-32 13t-13 32z" />
    <glyph glyph-name="Amacron" unicode="&#x100;" horiz-adv-x="706" 
d="M239 250h209l-100 316zM70 6l244 645q-2 4 -13.5 15t-11.5 14t9 7.5t23 8.5t27 4q25 0 27 -5l225 -627q5 -11 14 -23.5t15.5 -21t6.5 -10.5q0 -3 -9 -8t-23.5 -10t-26.5 -5q-19 0 -37 19.5t-26 38.5l-8 20l-42 133h-242l-67 -195q-2 -6 -38 -6q-47 0 -47 6zM223 780v49
h256v-49h-256z" />
    <glyph glyph-name="amacron" unicode="&#x101;" horiz-adv-x="499" 
d="M319 250v56q0 30 -19 58t-55 28q-30 0 -55 -10t-40 -24t-25 -27.5t-15.5 -23.5t-6.5 -10q-3 0 -8.5 11.5t-10 28.5t-4.5 29q67 75 175 75q37 0 63.5 -8t40.5 -19.5t22 -31t10 -36t2 -40.5v-239q0 -12 18 -32.5t18 -21.5q0 -6 -17 -14.5t-32 -8.5q-17 0 -33 8t-23 16l-8 8
q-1 -4 -5 -9t-27 -14t-59 -9q-65 0 -110 34.5t-45 92.5q0 33 16 55t45.5 34t58 18.5t68.5 13t61 12.5zM319 85l1 120q-23 -6 -53 -11.5t-46.5 -9.5t-33.5 -11t-24.5 -20.5t-7.5 -35.5q0 -32 15.5 -49t33 -20.5t45.5 -3.5q17 0 30.5 4t20.5 10.5t11.5 12.5t6.5 10zM121 511
v49h256v-49h-256z" />
    <glyph glyph-name="Abreve" unicode="&#x102;" horiz-adv-x="706" 
d="M239 250h209l-100 316zM70 6l244 645q-2 4 -13.5 15t-11.5 14t9 7.5t23 8.5t27 4q25 0 27 -5l225 -627q5 -11 14 -23.5t15.5 -21t6.5 -10.5q0 -3 -9 -8t-23.5 -10t-26.5 -5q-19 0 -37 19.5t-26 38.5l-8 20l-42 133h-242l-67 -195q-2 -6 -38 -6q-47 0 -47 6zM351 759
q-34 0 -59.5 8.5t-38 21t-18.5 23t-6 16.5q0 10 15.5 25.5t26.5 15.5q5 0 13 -16.5t24.5 -32.5t42.5 -16t42.5 16t24.5 32.5t13 16.5q11 0 26.5 -15.5t15.5 -25.5q0 -6 -6 -16.5t-18.5 -23t-38 -21t-59.5 -8.5z" />
    <glyph glyph-name="abreve" unicode="&#x103;" horiz-adv-x="499" 
d="M319 250v56q0 30 -19 58t-55 28q-30 0 -55 -10t-40 -24t-25 -27.5t-15.5 -23.5t-6.5 -10q-3 0 -8.5 11.5t-10 28.5t-4.5 29q67 75 175 75q37 0 63.5 -8t40.5 -19.5t22 -31t10 -36t2 -40.5v-239q0 -12 18 -32.5t18 -21.5q0 -6 -17 -14.5t-32 -8.5q-17 0 -33 8t-23 16l-8 8
q-1 -4 -5 -9t-27 -14t-59 -9q-65 0 -110 34.5t-45 92.5q0 33 16 55t45.5 34t58 18.5t68.5 13t61 12.5zM319 85l1 120q-23 -6 -53 -11.5t-46.5 -9.5t-33.5 -11t-24.5 -20.5t-7.5 -35.5q0 -32 15.5 -49t33 -20.5t45.5 -3.5q17 0 30.5 4t20.5 10.5t11.5 12.5t6.5 10zM249 490
q-34 0 -59.5 8.5t-38 21t-18.5 23t-6 16.5q0 10 15.5 25.5t26.5 15.5q5 0 13 -16t24.5 -32.5t42.5 -16.5t42.5 16.5t24.5 32.5t13 16q11 0 26.5 -15.5t15.5 -25.5q0 -6 -6 -16.5t-18.5 -23t-38 -21t-59.5 -8.5z" />
    <glyph glyph-name="Aogonek" unicode="&#x104;" horiz-adv-x="708" 
d="M239 250h209l-100 316zM70 6l244 645q-2 4 -13.5 15t-11.5 14t9 7.5t23 8.5t27 4q25 0 27 -5l225 -627q5 -11 14 -23.5t15.5 -21t6.5 -10.5q0 -3 -9 -8t-23.5 -10t-26.5 -5q-19 0 -37 19.5t-26 38.5l-8 20l-42 133h-242l-67 -195q-2 -6 -38 -6q-47 0 -47 6zM626 -250
q-39 0 -88.5 41.5t-49.5 87.5q0 21 9.5 42t20 32.5t26.5 27t20 19.5h46q-52 -65 -52 -121q0 -18 30 -35t60 -28.5t30 -14.5q0 -11 -18 -31t-34 -20z" />
    <glyph glyph-name="aogonek" unicode="&#x105;" horiz-adv-x="529" 
d="M319 250v56q0 30 -19 58t-55 28q-30 0 -55 -10t-40 -24t-25 -27.5t-15.5 -23.5t-6.5 -10q-3 0 -8.5 11.5t-10 28.5t-4.5 29q67 75 175 75q37 0 63.5 -8t40.5 -19.5t22 -31t10 -36t2 -40.5v-239q0 -12 18 -32.5t18 -21.5q0 -6 -17 -14.5t-32 -8.5q-17 0 -33 8t-23 16l-8 8
q-1 -4 -5 -9t-27 -14t-59 -9q-65 0 -110 34.5t-45 92.5q0 33 16 55t45.5 34t58 18.5t68.5 13t61 12.5zM319 85l1 120q-23 -6 -53 -11.5t-46.5 -9.5t-33.5 -11t-24.5 -20.5t-7.5 -35.5q0 -32 15.5 -49t33 -20.5t45.5 -3.5q17 0 30.5 4t20.5 10.5t11.5 12.5t6.5 10zM407 -250
q-39 0 -88.5 41.5t-49.5 87.5q0 21 9.5 42t20 32.5t26.5 27t20 19.5h46q-52 -65 -52 -121q0 -18 30 -35t60 -28.5t30 -14.5q0 -11 -18 -31t-34 -20z" />
    <glyph glyph-name="Cacute" unicode="&#x106;" horiz-adv-x="712" 
d="M70 363q0 91 29.5 161t77.5 109t102.5 58t111.5 19q48 0 90.5 -7.5t71 -18.5t49.5 -24t30.5 -23.5t9.5 -17.5q0 -14 -29.5 -32.5t-48.5 -18.5q-7 0 -32 21t-67.5 42.5t-94.5 21.5q-205 0 -205 -290q0 -143 57 -229t163 -86q51 0 92 17t60 37t34.5 37t22.5 17
q17 0 31.5 -21t14.5 -37q0 -10 -6 -22t-24 -27.5t-45 -28t-74.5 -21.5t-107.5 -9q-84 0 -146 28.5t-97.5 80.5t-52.5 117.5t-17 146.5zM461 872q0 -44 -56 -78t-103 -34q-14 0 -14 7q0 6 7 9q32 14 55 34t34 37.5t18 33t10.5 24.5t7.5 9q12 0 26.5 -13t14.5 -29z" />
    <glyph glyph-name="cacute" unicode="&#x107;" horiz-adv-x="513" 
d="M70 225q0 58 18.5 101.5t49 67.5t64.5 35.5t70 11.5q48 0 90 -14.5t61.5 -29.5t19.5 -23q0 -9 -25 -27t-37 -18q-5 0 -23.5 15.5t-45.5 30.5t-53 15q-61 0 -85 -43t-24 -122t32.5 -132t85.5 -53q30 0 55 12.5t38 27.5t24 27.5t15 12.5q10 0 26 -20t16 -29q0 -6 -5 -15
t-18 -21t-32 -21.5t-50.5 -16.5t-69.5 -7q-103 0 -150 64.5t-47 170.5zM356 603q0 -44 -56 -78t-103 -34q-14 0 -14 7q0 6 7 9q32 14 55 34t34 37.5t18 33t10.5 24.5t7.5 9q12 0 26.5 -13t14.5 -29z" />
    <glyph glyph-name="Ccircumflex" unicode="&#x108;" horiz-adv-x="712" 
d="M70 363q0 91 29.5 161t77.5 109t102.5 58t111.5 19q48 0 90.5 -7.5t71 -18.5t49.5 -24t30.5 -23.5t9.5 -17.5q0 -14 -29.5 -32.5t-48.5 -18.5q-7 0 -32 21t-67.5 42.5t-94.5 21.5q-205 0 -205 -290q0 -143 57 -229t163 -86q51 0 92 17t60 37t34.5 37t22.5 17
q17 0 31.5 -21t14.5 -37q0 -10 -6 -22t-24 -27.5t-45 -28t-74.5 -21.5t-107.5 -9q-84 0 -146 28.5t-97.5 80.5t-52.5 117.5t-17 146.5zM407 872q26 -55 83 -96q7 -6 7 -9q0 -7 -14 -7q-11 0 -22 3t-18 5.5t-19 11.5t-15 11.5t-17.5 16.5t-16.5 15q-4 -3 -14.5 -13
t-14.5 -13.5t-13.5 -11.5t-15 -11t-14.5 -7t-17.5 -5.5t-18.5 -1.5q-14 0 -14 7q0 3 7 9q57 41 83 96q7 15 17 23.5t15 8.5t15 -8.5t17 -23.5z" />
    <glyph glyph-name="ccircumflex" unicode="&#x109;" horiz-adv-x="513" 
d="M70 225q0 58 18.5 101.5t49 67.5t64.5 35.5t70 11.5q48 0 90 -14.5t61.5 -29.5t19.5 -23q0 -9 -25 -27t-37 -18q-5 0 -23.5 15.5t-45.5 30.5t-53 15q-61 0 -85 -43t-24 -122t32.5 -132t85.5 -53q30 0 55 12.5t38 27.5t24 27.5t15 12.5q10 0 26 -20t16 -29q0 -6 -5 -15
t-18 -21t-32 -21.5t-50.5 -16.5t-69.5 -7q-103 0 -150 64.5t-47 170.5zM302 603q26 -55 83 -96q7 -6 7 -9q0 -7 -14 -7q-11 0 -22 3t-18 5.5t-19 11.5t-15 11.5t-17.5 16.5t-16.5 15q-4 -3 -14.5 -13t-14.5 -13.5t-13.5 -11.5t-15 -11t-14.5 -7t-17.5 -5.5t-18.5 -1.5
q-14 0 -14 7q0 3 7 9q57 41 83 96q7 15 17 23.5t15 8.5t15 -8.5t17 -23.5z" />
    <glyph glyph-name="Cdotaccent" unicode="&#x10a;" horiz-adv-x="712" 
d="M70 363q0 91 29.5 161t77.5 109t102.5 58t111.5 19q48 0 90.5 -7.5t71 -18.5t49.5 -24t30.5 -23.5t9.5 -17.5q0 -14 -29.5 -32.5t-48.5 -18.5q-7 0 -32 21t-67.5 42.5t-94.5 21.5q-205 0 -205 -290q0 -143 57 -229t163 -86q51 0 92 17t60 37t34.5 37t22.5 17
q17 0 31.5 -21t14.5 -37q0 -10 -6 -22t-24 -27.5t-45 -28t-74.5 -21.5t-107.5 -9q-84 0 -146 28.5t-97.5 80.5t-52.5 117.5t-17 146.5zM330 805q0 19 13 32t32 13t32 -13t13 -32t-13 -32t-32 -13t-32 13t-13 32z" />
    <glyph glyph-name="cdotaccent" unicode="&#x10b;" horiz-adv-x="513" 
d="M70 225q0 58 18.5 101.5t49 67.5t64.5 35.5t70 11.5q48 0 90 -14.5t61.5 -29.5t19.5 -23q0 -9 -25 -27t-37 -18q-5 0 -23.5 15.5t-45.5 30.5t-53 15q-61 0 -85 -43t-24 -122t32.5 -132t85.5 -53q30 0 55 12.5t38 27.5t24 27.5t15 12.5q10 0 26 -20t16 -29q0 -6 -5 -15
t-18 -21t-32 -21.5t-50.5 -16.5t-69.5 -7q-103 0 -150 64.5t-47 170.5zM225 536q0 19 13 32t32 13t32 -13t13 -32t-13 -32t-32 -13t-32 13t-13 32z" />
    <glyph glyph-name="Ccaron" unicode="&#x10c;" horiz-adv-x="712" 
d="M70 363q0 91 29.5 161t77.5 109t102.5 58t111.5 19q48 0 90.5 -7.5t71 -18.5t49.5 -24t30.5 -23.5t9.5 -17.5q0 -14 -29.5 -32.5t-48.5 -18.5q-7 0 -32 21t-67.5 42.5t-94.5 21.5q-205 0 -205 -290q0 -143 57 -229t163 -86q51 0 92 17t60 37t34.5 37t22.5 17
q17 0 31.5 -21t14.5 -37q0 -10 -6 -22t-24 -27.5t-45 -28t-74.5 -21.5t-107.5 -9q-84 0 -146 28.5t-97.5 80.5t-52.5 117.5t-17 146.5zM407 792q-7 -15 -17 -23.5t-15 -8.5t-15 8.5t-17 23.5q-26 55 -83 96q-7 6 -7 9q0 7 14 7q11 0 22 -3t18 -5.5t19 -11.5t15 -11.5
t17.5 -16.5t16.5 -15q4 3 14.5 13t14.5 13.5t13.5 11.5t15 11t14.5 7t17.5 5.5t18.5 1.5q14 0 14 -7q0 -3 -7 -9q-57 -41 -83 -96z" />
    <glyph glyph-name="ccaron" unicode="&#x10d;" horiz-adv-x="513" 
d="M70 225q0 58 18.5 101.5t49 67.5t64.5 35.5t70 11.5q48 0 90 -14.5t61.5 -29.5t19.5 -23q0 -9 -25 -27t-37 -18q-5 0 -23.5 15.5t-45.5 30.5t-53 15q-61 0 -85 -43t-24 -122t32.5 -132t85.5 -53q30 0 55 12.5t38 27.5t24 27.5t15 12.5q10 0 26 -20t16 -29q0 -6 -5 -15
t-18 -21t-32 -21.5t-50.5 -16.5t-69.5 -7q-103 0 -150 64.5t-47 170.5zM302 523q-7 -15 -17 -23.5t-15 -8.5t-15 8.5t-17 23.5q-26 55 -83 96q-7 6 -7 9q0 7 14 7q11 0 22 -3t18 -5.5t19 -11.5t15 -11.5t17.5 -16.5t16.5 -15q4 3 14.5 13t14.5 13.5t13.5 11.5t15 11t14.5 7
t17.5 5.5t18.5 1.5q14 0 14 -7q0 -3 -7 -9q-57 -41 -83 -96z" />
    <glyph glyph-name="Dcaron" unicode="&#x10e;" horiz-adv-x="738" 
d="M106 5v622q0 13 -18 32.5t-18 20.5q0 3 9 7.5t23 8.5t27 4h229q134 0 222 -97.5t88 -243.5q0 -143 -96 -251t-211 -108q-255 0 -255 5zM190 647v-585q86 -8 153 -8q99 0 160.5 76.5t61.5 228.5q0 34 -4.5 68t-19 75.5t-38 72t-65 51.5t-95.5 21h-153zM342 792
q-7 -15 -17 -23.5t-15 -8.5t-15 8.5t-17 23.5q-26 55 -83 96q-7 6 -7 9q0 7 14 7q11 0 22 -3t18 -5.5t19 -11.5t15 -11.5t17.5 -16.5t16.5 -15q4 3 14.5 13t14.5 13.5t13.5 11.5t15 11t14.5 7t17.5 5.5t18.5 1.5q14 0 14 -7q0 -3 -7 -9q-57 -41 -83 -96z" />
    <glyph glyph-name="dcaron" unicode="&#x10f;" horiz-adv-x="662" 
d="M592 632q0 -21 -12.5 -49.5t-25.5 -46.5l-12 -18q-5 -6 -25 -6q-15 0 -15 16q0 2 5 18t10 40.5t5 45.5q0 13 -18.5 33.5t-18.5 21.5q0 4 23.5 13.5t35.5 9.5q22 0 35 -25.5t13 -52.5zM369 400v232q0 13 -18 33.5t-18 21.5q0 3 9 8.5t24 10t27 4.5q49 0 49 -78v-565
q0 -12 18 -32.5t18 -21.5q0 -5 -21.5 -14t-37.5 -9q-17 0 -33 8t-23 16l-7 8q-44 -31 -131 -32q-64 0 -109.5 55.5t-45.5 148.5q0 247 184 247q34 0 63 -10.5t41 -20.5zM369 85v243q-2 3 -4.5 7t-13.5 14.5t-23 19t-32 15t-42 6.5q-34 0 -56 -16t-32 -46t-13 -58t-3 -67
q0 -66 26.5 -114.5t72.5 -48.5q28 0 58 11t46 23z" />
    <glyph glyph-name="Dcroat" unicode="&#x110;" horiz-adv-x="757" 
d="M239 320v-258q56 -8 123 -8q99 0 160.5 76.5t61.5 228.5q0 34 -4.5 68t-19 75.5t-38 72t-65 51.5t-95.5 21h-123v-273h82l-17 -54h-65zM155 374v253q0 13 -18 32.5t-18 20.5q0 3 9 7.5t23 8.5t27 4h199q134 0 222 -97.5t88 -243.5q0 -143 -96 -251t-211 -108
q-225 0 -225 5v315h-7q-13 0 -33.5 -18.5t-21.5 -18.5q-4 0 -13.5 18.5t-9.5 30.5q0 22 24.5 32t53.5 10h7z" />
    <glyph glyph-name="dcroat" unicode="&#x111;" horiz-adv-x="604" 
d="M280 517h79v30q0 13 -18 33.5t-18 21.5q0 3 9 8t23.5 10t26.5 5q29 0 45 -25t16 -53v-30h91v-49h-91v-401q0 -12 18 -32.5t18 -21.5q0 -5 -21.5 -14t-37.5 -9q-17 0 -33 8t-23 16l-8 8q-44 -31 -131 -32q-64 0 -109.5 55.5t-45.5 148.5q0 250 184 250q34 0 60.5 -11
t35.5 -22l9 -11v68h-79v49zM359 85v243q-1 3 -3.5 7t-11 14.5t-19.5 19t-30 15t-41 6.5q-23 0 -40.5 -7t-27.5 -22t-17 -31t-9.5 -40t-3.5 -42t-1 -45q0 -60 30 -109.5t64 -49.5q28 0 55.5 10t41.5 20z" />
    <glyph glyph-name="Emacron" unicode="&#x112;" 
d="M355 325h-165v-266h243q13 0 33.5 16t21.5 16q4 0 13.5 -18.5t9.5 -30.5q0 -22 -24.5 -32t-53.5 -10h-327v627q0 13 -18 32.5t-18 20.5q0 3 9 7.5t23 8.5t27 4h304q29 0 53.5 -10t24.5 -32q0 -12 -9.5 -30.5t-13.5 -18.5q-1 0 -21.5 16t-33.5 16h-243v-257h165
q13 0 38.5 3.5t26.5 3.5q13 0 13 -19q0 -29 -19.5 -38t-58.5 -9zM162 780v49h256v-49h-256z" />
    <glyph glyph-name="emacron" unicode="&#x113;" horiz-adv-x="525" 
d="M150 249h226q0 23 -0.5 36t-6.5 36t-16 35.5t-31.5 23t-52.5 10.5q-54 0 -86.5 -38.5t-32.5 -102.5zM384 202h-234q0 -60 33.5 -111t84.5 -51q30 0 55 12.5t38 27.5t24 27.5t15 12.5q10 0 26 -20t16 -29q0 -6 -5 -15t-18 -21t-32 -21.5t-50.5 -16.5t-69.5 -7
q-103 0 -150 64.5t-47 170.5q0 58 18.5 101.5t49 67.5t64.5 35.5t70 11.5q82 0 132.5 -50t50.5 -141q0 -36 -9 -42t-62 -6zM147 511v49h256v-49h-256z" />
    <glyph glyph-name="Ebreve" unicode="&#x114;" 
d="M355 325h-165v-266h243q13 0 33.5 16t21.5 16q4 0 13.5 -18.5t9.5 -30.5q0 -22 -24.5 -32t-53.5 -10h-327v627q0 13 -18 32.5t-18 20.5q0 3 9 7.5t23 8.5t27 4h304q29 0 53.5 -10t24.5 -32q0 -12 -9.5 -30.5t-13.5 -18.5q-1 0 -21.5 16t-33.5 16h-243v-257h165
q13 0 38.5 3.5t26.5 3.5q13 0 13 -19q0 -29 -19.5 -38t-58.5 -9zM290 759q-34 0 -59.5 8.5t-38 21t-18.5 23t-6 16.5q0 10 15.5 25.5t26.5 15.5q5 0 13 -16.5t24.5 -32.5t42.5 -16t42.5 16t24.5 32.5t13 16.5q11 0 26.5 -15.5t15.5 -25.5q0 -6 -6 -16.5t-18.5 -23t-38 -21
t-59.5 -8.5z" />
    <glyph glyph-name="ebreve" unicode="&#x115;" horiz-adv-x="525" 
d="M150 249h226q0 23 -0.5 36t-6.5 36t-16 35.5t-31.5 23t-52.5 10.5q-54 0 -86.5 -38.5t-32.5 -102.5zM384 202h-234q0 -60 33.5 -111t84.5 -51q30 0 55 12.5t38 27.5t24 27.5t15 12.5q10 0 26 -20t16 -29q0 -6 -5 -15t-18 -21t-32 -21.5t-50.5 -16.5t-69.5 -7
q-103 0 -150 64.5t-47 170.5q0 58 18.5 101.5t49 67.5t64.5 35.5t70 11.5q82 0 132.5 -50t50.5 -141q0 -36 -9 -42t-62 -6zM275 490q-34 0 -59.5 8.5t-38 21t-18.5 23t-6 16.5q0 10 15.5 25.5t26.5 15.5q5 0 13 -16t24.5 -32.5t42.5 -16.5t42.5 16.5t24.5 32.5t13 16
q11 0 26.5 -15.5t15.5 -25.5q0 -6 -6 -16.5t-18.5 -23t-38 -21t-59.5 -8.5z" />
    <glyph glyph-name="Edotaccent" unicode="&#x116;" 
d="M355 325h-165v-266h243q13 0 33.5 16t21.5 16q4 0 13.5 -18.5t9.5 -30.5q0 -22 -24.5 -32t-53.5 -10h-327v627q0 13 -18 32.5t-18 20.5q0 3 9 7.5t23 8.5t27 4h304q29 0 53.5 -10t24.5 -32q0 -12 -9.5 -30.5t-13.5 -18.5q-1 0 -21.5 16t-33.5 16h-243v-257h165
q13 0 38.5 3.5t26.5 3.5q13 0 13 -19q0 -29 -19.5 -38t-58.5 -9zM245 805q0 19 13 32t32 13t32 -13t13 -32t-13 -32t-32 -13t-32 13t-13 32z" />
    <glyph glyph-name="edotaccent" unicode="&#x117;" horiz-adv-x="525" 
d="M150 249h226q0 23 -0.5 36t-6.5 36t-16 35.5t-31.5 23t-52.5 10.5q-54 0 -86.5 -38.5t-32.5 -102.5zM384 202h-234q0 -60 33.5 -111t84.5 -51q30 0 55 12.5t38 27.5t24 27.5t15 12.5q10 0 26 -20t16 -29q0 -6 -5 -15t-18 -21t-32 -21.5t-50.5 -16.5t-69.5 -7
q-103 0 -150 64.5t-47 170.5q0 58 18.5 101.5t49 67.5t64.5 35.5t70 11.5q82 0 132.5 -50t50.5 -141q0 -36 -9 -42t-62 -6zM230 536q0 19 13 32t32 13t32 -13t13 -32t-13 -32t-32 -13t-32 13t-13 32z" />
    <glyph glyph-name="Eogonek" unicode="&#x118;" 
d="M355 325h-165v-266h243q13 0 33.5 16t21.5 16q4 0 13.5 -18.5t9.5 -30.5q0 -22 -24.5 -32t-53.5 -10h-327v627q0 13 -18 32.5t-18 20.5q0 3 9 7.5t23 8.5t27 4h304q29 0 53.5 -10t24.5 -32q0 -12 -9.5 -30.5t-13.5 -18.5q-1 0 -21.5 16t-33.5 16h-243v-257h165
q13 0 38.5 3.5t26.5 3.5q13 0 13 -19q0 -29 -19.5 -38t-58.5 -9zM354 -250q-39 0 -88.5 41.5t-49.5 87.5q0 21 9.5 42t20 32.5t26.5 27t20 19.5h46q-52 -65 -52 -121q0 -18 30 -35t60 -28.5t30 -14.5q0 -11 -18 -31t-34 -20z" />
    <glyph glyph-name="eogonek" unicode="&#x119;" horiz-adv-x="525" 
d="M150 249h226q0 23 -0.5 36t-6.5 36t-16 35.5t-31.5 23t-52.5 10.5q-54 0 -86.5 -38.5t-32.5 -102.5zM384 202h-234q0 -60 33.5 -111t84.5 -51q30 0 55 12.5t38 27.5t24 27.5t15 12.5q10 0 26 -20t16 -29q0 -6 -5 -15t-18 -21t-32 -21.5t-50.5 -16.5t-69.5 -7
q-103 0 -150 64.5t-47 170.5q0 58 18.5 101.5t49 67.5t64.5 35.5t70 11.5q82 0 132.5 -50t50.5 -141q0 -36 -9 -42t-62 -6zM315 -250q-39 0 -88.5 41.5t-49.5 87.5q0 21 9.5 42t20 32.5t26.5 27t20 19.5h46q-52 -65 -52 -121q0 -18 30 -35t60 -28.5t30 -14.5q0 -11 -18 -31
t-34 -20z" />
    <glyph glyph-name="Ecaron" unicode="&#x11a;" 
d="M355 325h-165v-266h243q13 0 33.5 16t21.5 16q4 0 13.5 -18.5t9.5 -30.5q0 -22 -24.5 -32t-53.5 -10h-327v627q0 13 -18 32.5t-18 20.5q0 3 9 7.5t23 8.5t27 4h304q29 0 53.5 -10t24.5 -32q0 -12 -9.5 -30.5t-13.5 -18.5q-1 0 -21.5 16t-33.5 16h-243v-257h165
q13 0 38.5 3.5t26.5 3.5q13 0 13 -19q0 -29 -19.5 -38t-58.5 -9zM322 792q-7 -15 -17 -23.5t-15 -8.5t-15 8.5t-17 23.5q-26 55 -83 96q-7 6 -7 9q0 7 14 7q11 0 22 -3t18 -5.5t19 -11.5t15 -11.5t17.5 -16.5t16.5 -15q4 3 14.5 13t14.5 13.5t13.5 11.5t15 11t14.5 7
t17.5 5.5t18.5 1.5q14 0 14 -7q0 -3 -7 -9q-57 -41 -83 -96z" />
    <glyph glyph-name="ecaron" unicode="&#x11b;" horiz-adv-x="525" 
d="M150 249h226q0 23 -0.5 36t-6.5 36t-16 35.5t-31.5 23t-52.5 10.5q-54 0 -86.5 -38.5t-32.5 -102.5zM384 202h-234q0 -60 33.5 -111t84.5 -51q30 0 55 12.5t38 27.5t24 27.5t15 12.5q10 0 26 -20t16 -29q0 -6 -5 -15t-18 -21t-32 -21.5t-50.5 -16.5t-69.5 -7
q-103 0 -150 64.5t-47 170.5q0 58 18.5 101.5t49 67.5t64.5 35.5t70 11.5q82 0 132.5 -50t50.5 -141q0 -36 -9 -42t-62 -6zM307 523q-7 -15 -17 -23.5t-15 -8.5t-15 8.5t-17 23.5q-26 55 -83 96q-7 6 -7 9q0 7 14 7q11 0 22 -3t18 -5.5t19 -11.5t15 -11.5t17.5 -16.5
t16.5 -15q4 3 14.5 13t14.5 13.5t13.5 11.5t15 11t14.5 7t17.5 5.5t18.5 1.5q14 0 14 -7q0 -3 -7 -9q-57 -41 -83 -96z" />
    <glyph glyph-name="Gcircumflex" unicode="&#x11c;" horiz-adv-x="712" 
d="M640 247v-149q0 -11 -3.5 -22t-19 -27.5t-41.5 -28.5t-76 -21t-117 -9q-84 0 -146 28.5t-97.5 80.5t-52.5 117.5t-17 146.5q0 91 29.5 161t77.5 109t102.5 58t111.5 19q48 0 90.5 -7.5t71 -18.5t49.5 -24t30.5 -23.5t9.5 -17.5q0 -14 -29.5 -32.5t-48.5 -18.5
q-7 0 -32 21t-67.5 42.5t-94.5 21.5q-110 0 -162.5 -78t-52.5 -212q0 -141 61.5 -228t168.5 -87q59 0 102.5 15.5t58.5 30.5l14 16v137q0 13 -20 33.5t-20 21.5q0 3 7.5 8t21 10t25.5 5q29 0 47.5 -25.5t18.5 -52.5zM408 872q26 -55 83 -96q7 -6 7 -9q0 -7 -14 -7
q-11 0 -22 3t-18 5.5t-19 11.5t-15 11.5t-17.5 16.5t-16.5 15q-4 -3 -14.5 -13t-14.5 -13.5t-13.5 -11.5t-15 -11t-14.5 -7t-17.5 -5.5t-18.5 -1.5q-14 0 -14 7q0 3 7 9q57 41 83 96q7 15 17 23.5t15 8.5t15 -8.5t17 -23.5z" />
    <glyph glyph-name="gcircumflex" unicode="&#x11d;" horiz-adv-x="539" 
d="M180 92q-29 -24 -29 -42q0 -30 54 -30h81q75 0 121.5 -30t46.5 -96q0 -51 -51 -97.5t-159 -46.5q-83 0 -128.5 37.5t-45.5 87.5q0 21 17.5 37.5t31 22.5t26.5 10l29 -6q-6 -6 -19.5 -18t-19 -21t-5.5 -23q0 -30 39 -53.5t75 -23.5q69 0 100.5 28.5t31.5 67.5
q0 35 -24 52.5t-82 17.5h-78q-63 0 -87.5 15.5t-24.5 45.5q0 23 15 44.5t29 30.5l15 10q-69 48 -69 159q0 87 54.5 128.5t124.5 41.5q83 0 121 -34q13 1 44 19t32 18q4 0 13.5 -16t9.5 -28q0 -23 -63 -42q22 -45 22 -101q0 -49 -17.5 -85t-46 -54t-58.5 -26t-62 -8
q-35 0 -64 8zM243 391q-95 0 -95 -120q0 -63 28.5 -100t73.5 -37q100 0 100 123q0 62 -31 98t-76 36zM288 603q26 -55 83 -96q7 -6 7 -9q0 -7 -14 -7q-11 0 -22 3t-18 5.5t-19 11.5t-15 11.5t-17.5 16.5t-16.5 15q-4 -3 -14.5 -13t-14.5 -13.5t-13.5 -11.5t-15 -11t-14.5 -7
t-17.5 -5.5t-18.5 -1.5q-14 0 -14 7q0 3 7 9q57 41 83 96q7 15 17 23.5t15 8.5t15 -8.5t17 -23.5z" />
    <glyph glyph-name="Gbreve" unicode="&#x11e;" horiz-adv-x="712" 
d="M640 98v149q0 27 -18.5 52.5t-47.5 25.5q-12 0 -25.5 -5t-21 -10t-7.5 -8q0 -1 20 -21.5t20 -33.5v-137q-2 -3 -5.5 -7t-18 -14.5t-32.5 -19t-50 -15t-69 -6.5q-107 0 -168.5 87t-61.5 228q0 134 52.5 212t162.5 78q52 0 94.5 -21.5t67.5 -42.5t32 -21q19 0 48.5 18.5
t29.5 32.5q0 7 -9.5 17.5t-30.5 23.5t-49.5 24t-71 18.5t-90.5 7.5q-57 0 -111.5 -19t-102.5 -58t-77.5 -109t-29.5 -161q0 -81 17 -146.5t52.5 -117.5t97.5 -80.5t146 -28.5q67 0 117 9t76 21t41.5 28.5t19 27.5t3.5 22zM376 759q-34 0 -59.5 8.5t-38 21t-18.5 23t-6 16.5
q0 10 15.5 25.5t26.5 15.5q5 0 13 -16.5t24.5 -32.5t42.5 -16t42.5 16t24.5 32.5t13 16.5q11 0 26.5 -15.5t15.5 -25.5q0 -6 -6 -16.5t-18.5 -23t-38 -21t-59.5 -8.5z" />
    <glyph glyph-name="gbreve" unicode="&#x11f;" horiz-adv-x="539" 
d="M180 92q-29 -24 -29 -42q0 -30 54 -30h81q75 0 121.5 -30t46.5 -96q0 -51 -51 -97.5t-159 -46.5q-83 0 -128.5 37.5t-45.5 87.5q0 21 17.5 37.5t31 22.5t26.5 10l29 -6q-6 -6 -19.5 -18t-19 -21t-5.5 -23q0 -30 39 -53.5t75 -23.5q69 0 100.5 28.5t31.5 67.5
q0 35 -24 52.5t-82 17.5h-78q-63 0 -87.5 15.5t-24.5 45.5q0 23 15 44.5t29 30.5l15 10q-69 48 -69 159q0 87 54.5 128.5t124.5 41.5q83 0 121 -34q13 1 44 19t32 18q4 0 13.5 -16t9.5 -28q0 -23 -63 -42q22 -45 22 -101q0 -49 -17.5 -85t-46 -54t-58.5 -26t-62 -8
q-35 0 -64 8zM243 391q-95 0 -95 -120q0 -63 28.5 -100t73.5 -37q100 0 100 123q0 62 -31 98t-76 36zM256 490q-34 0 -59.5 8.5t-38 21t-18.5 23t-6 16.5q0 10 15.5 25.5t26.5 15.5q5 0 13 -16t24.5 -32.5t42.5 -16.5t42.5 16.5t24.5 32.5t13 16q11 0 26.5 -15.5t15.5 -25.5
q0 -6 -6 -16.5t-18.5 -23t-38 -21t-59.5 -8.5z" />
    <glyph glyph-name="Gdotaccent" unicode="&#x120;" horiz-adv-x="712" 
d="M640 98v149q0 27 -18.5 52.5t-47.5 25.5q-12 0 -25.5 -5t-21 -10t-7.5 -8q0 -1 20 -21.5t20 -33.5v-137q-2 -3 -5.5 -7t-18 -14.5t-32.5 -19t-50 -15t-69 -6.5q-107 0 -168.5 87t-61.5 228q0 134 52.5 212t162.5 78q52 0 94.5 -21.5t67.5 -42.5t32 -21q19 0 48.5 18.5
t29.5 32.5q0 7 -9.5 17.5t-30.5 23.5t-49.5 24t-71 18.5t-90.5 7.5q-57 0 -111.5 -19t-102.5 -58t-77.5 -109t-29.5 -161q0 -81 17 -146.5t52.5 -117.5t97.5 -80.5t146 -28.5q67 0 117 9t76 21t41.5 28.5t19 27.5t3.5 22zM331 805q0 19 13 32t32 13t32 -13t13 -32t-13 -32
t-32 -13t-32 13t-13 32z" />
    <glyph glyph-name="gdotaccent" unicode="&#x121;" horiz-adv-x="539" 
d="M180 92q-29 -24 -29 -42q0 -30 54 -30h81q75 0 121.5 -30t46.5 -96q0 -51 -51 -97.5t-159 -46.5q-83 0 -128.5 37.5t-45.5 87.5q0 21 17.5 37.5t31 22.5t26.5 10l29 -6q-6 -6 -19.5 -18t-19 -21t-5.5 -23q0 -30 39 -53.5t75 -23.5q69 0 100.5 28.5t31.5 67.5
q0 35 -24 52.5t-82 17.5h-78q-63 0 -87.5 15.5t-24.5 45.5q0 23 15 44.5t29 30.5l15 10q-69 48 -69 159q0 87 54.5 128.5t124.5 41.5q83 0 121 -34q13 1 44 19t32 18q4 0 13.5 -16t9.5 -28q0 -23 -63 -42q22 -45 22 -101q0 -49 -17.5 -85t-46 -54t-58.5 -26t-62 -8
q-35 0 -64 8zM243 391q-95 0 -95 -120q0 -63 28.5 -100t73.5 -37q100 0 100 123q0 62 -31 98t-76 36zM211 536q0 19 13 32t32 13t32 -13t13 -32t-13 -32t-32 -13t-32 13t-13 32z" />
    <glyph glyph-name="uni0122" unicode="&#x122;" horiz-adv-x="712" 
d="M431 -108q0 -21 -12.5 -49.5t-24.5 -46.5l-13 -18q-5 -6 -25 -6q-15 0 -15 16q0 2 5 18t10 40.5t5 45.5q0 13 -18.5 33.5t-18.5 21.5q0 4 23.5 13.5t35.5 9.5q22 0 35 -25.5t13 -52.5zM640 247v-149q0 -11 -3.5 -22t-19 -27.5t-41.5 -28.5t-76 -21t-117 -9
q-84 0 -146 28.5t-97.5 80.5t-52.5 117.5t-17 146.5q0 91 29.5 161t77.5 109t102.5 58t111.5 19q48 0 90.5 -7.5t71 -18.5t49.5 -24t30.5 -23.5t9.5 -17.5q0 -14 -29.5 -32.5t-48.5 -18.5q-7 0 -32 21t-67.5 42.5t-94.5 21.5q-110 0 -162.5 -78t-52.5 -212q0 -139 64.5 -227
t165.5 -88q59 0 102.5 15.5t58.5 30.5l14 16v137q0 13 -20 33.5t-20 21.5q0 3 7.5 8t21 10t25.5 5q29 0 47.5 -25.5t18.5 -52.5z" />
    <glyph glyph-name="gcedilla" unicode="&#x123;" horiz-adv-x="509" 
d="M201 582q0 21 12.5 49.5t24.5 46.5l13 18q5 6 25 6q15 0 15 -16q0 -2 -5 -18t-10 -40.5t-5 -45.5q0 -13 18.5 -33.5t18.5 -21.5q0 -4 -23.5 -13.5t-35.5 -9.5q-22 0 -35 25.5t-13 52.5zM162 69q-18 -10 -18 -36q0 -21 27 -21h135q128 0 128 -124q0 -49 -49.5 -96.5
t-140.5 -47.5q-58 0 -96 12.5t-53 34t-20 39t-5 39.5q0 31 15 48.5t30 21.5l19 -6q-17 -15 -17 -52q0 -75 127 -75q40 0 79 20t39 52q0 30 -17.5 50.5t-44.5 20.5h-108q-66 0 -89 11t-23 39q0 30 15 51t29 26l15 6q-69 48 -69 174q0 65 29.5 109.5t68 61.5t81.5 17
q69 0 111 -37q13 1 34 19t22 18q4 0 13.5 -16t9.5 -28q0 -29 -43 -42q22 -45 22 -116q0 -95 -53 -141.5t-121 -46.5q-50 0 -82 15zM243 391q-95 0 -95 -135q0 -64 29 -106.5t73 -42.5q90 0 90 135q0 64 -27 106.5t-70 42.5z" />
    <glyph glyph-name="Hcircumflex" unicode="&#x124;" horiz-adv-x="737" 
d="M190 379h357v315q0 6 42 6t42 -6v-626q0 -13 18 -33.5t18 -21.5q0 -3 -7.5 -8t-21 -10t-25.5 -5q-29 0 -47.5 25.5t-18.5 52.5v252h-357v-314q0 -6 -42 -6t-42 6v626q0 13 -18 33.5t-18 21.5q0 3 7.5 8t21 10t25.5 5q29 0 47.5 -25.5t18.5 -52.5v-253zM400 872
q26 -55 83 -96q7 -6 7 -9q0 -7 -14 -7q-11 0 -22 3t-18 5.5t-19 11.5t-15 11.5t-17.5 16.5t-16.5 15q-4 -3 -14.5 -13t-14.5 -13.5t-13.5 -11.5t-15 -11t-14.5 -7t-17.5 -5.5t-18.5 -1.5q-14 0 -14 7q0 3 7 9q57 41 83 96q7 15 17 23.5t15 8.5t15 -8.5t17 -23.5z" />
    <glyph glyph-name="hcircumflex" unicode="&#x125;" horiz-adv-x="584" 
d="M404 68v149q0 173 -110 173q-34 0 -62.5 -20.5t-39.5 -41.5l-12 -20v-302q0 -6 -36 -6q-37 0 -37 6v626q0 13 -18 33.5t-18 21.5q0 3 9 8.5t24 10t27 4.5q49 0 49 -78v-249q4 6 12 16t37.5 26t65.5 16q183 0 183 -223v-150q0 -13 18 -33.5t18 -21.5q0 -3 -9 -8t-23.5 -10
t-26.5 -5q-28 0 -39.5 24t-11.5 54zM324 862q26 -55 83 -96q7 -6 7 -9q0 -7 -14 -7q-11 0 -22 3t-18 5.5t-19 11.5t-15 11.5t-17.5 16.5t-16.5 15q-4 -3 -14.5 -13t-14.5 -13.5t-13.5 -11.5t-15 -11t-14.5 -7t-17.5 -5.5t-18.5 -1.5q-14 0 -14 7q0 3 7 9q57 41 83 96
q7 15 17 23.5t15 8.5t15 -8.5t17 -23.5z" />
    <glyph glyph-name="Hbar" unicode="&#x126;" horiz-adv-x="845" 
d="M599 545v149q0 6 42 6t42 -6v-149h92l-17 -54h-75v-423q0 -13 18 -33.5t18 -21.5q0 -3 -7.5 -8t-21 -10t-25.5 -5q-29 0 -47.5 25.5t-18.5 52.5v252h-357v-314q0 -6 -42 -6t-42 6v485h-10q-13 -1 -33.5 -19t-21.5 -18q-4 0 -13.5 18.5t-9.5 30.5q0 22 24.5 32t53.5 10h10
v87q0 13 -18 33.5t-18 21.5q0 3 7.5 8t21 10t25.5 5q29 0 47.5 -25.5t18.5 -52.5v-87h357zM599 379v112h-357v-112h357z" />
    <glyph glyph-name="hbar" unicode="&#x127;" horiz-adv-x="642" 
d="M238 627v-82h92l-17 -54h-75v-111q1 3 4 7t12.5 15t21 19.5t30.5 15.5t41 7q96 0 142.5 -61.5t46.5 -164.5v-150q0 -13 18 -33.5t18 -21.5q0 -3 -9 -8t-23.5 -10t-26.5 -5q-28 0 -39.5 24t-11.5 54v149q0 28 -4.5 54.5t-15.5 55t-36 46t-60 17.5q-34 0 -61 -20.5
t-37 -41.5l-10 -20v-302q0 -6 -33 -6q-37 0 -37 6v485h-20q-13 -1 -33.5 -19t-21.5 -18q-4 0 -13.5 18.5t-9.5 30.5q0 22 24.5 32t53.5 10h20v82q0 13 -18 33.5t-18 21.5q0 3 6.5 8t18.5 10t24 5q28 0 42.5 -25t14.5 -53z" />
    <glyph glyph-name="Itilde" unicode="&#x128;" horiz-adv-x="397" 
d="M161 78v554q0 13 -18 33.5t-18 21.5q0 3 7.5 8t21 10t25.5 5h37q13 0 26.5 -5t21 -10t7.5 -8q0 -1 -18 -21.5t-18 -33.5v-554q0 -13 18 -33.5t18 -21.5q0 -3 -7.5 -8t-21 -10t-26.5 -5h-37q-12 0 -25.5 5t-21 10t-7.5 8q0 1 18 21.5t18 33.5zM267 760q-33 0 -54.5 14
t-40 27.5t-42.5 13.5q-18 0 -25 -8t-6.5 -17t-2 -17t-12.5 -8q-14 0 -14 42q0 18 16.5 37t44.5 19q29 0 49.5 -8.5t29.5 -19t24 -19t34 -8.5q16 0 22.5 6t6.5 14t3.5 14t13.5 6q13 0 13 -42q0 -16 -16 -31t-44 -15z" />
    <glyph glyph-name="itilde" unicode="&#x129;" horiz-adv-x="397" 
d="M240 363v-295q0 -13 18 -33.5t18 -21.5q0 -3 -9 -8t-23.5 -10t-26.5 -5q-29 0 -45 25t-16 53v295q0 13 -18 33.5t-18 21.5q0 3 9 8t23.5 10t26.5 5q29 0 45 -25t16 -53zM267 491q-33 0 -54.5 13.5t-40 27.5t-42.5 14q-18 0 -25 -8t-6.5 -17t-2 -17t-12.5 -8q-14 0 -14 42
q0 18 16.5 37t44.5 19q37 0 59 -14t38 -27.5t40 -13.5q16 0 22.5 6.5t6.5 13.5t3.5 13.5t13.5 6.5q13 0 13 -42q0 -16 -16 -31t-44 -15z" />
    <glyph glyph-name="Imacron" unicode="&#x12a;" horiz-adv-x="396" 
d="M161 78q0 -13 -18 -33.5t-18 -21.5q0 -3 7.5 -8t21 -10t25.5 -5h37q13 0 26.5 5t21 10t7.5 8q0 1 -18 21.5t-18 33.5v554q0 13 18 33.5t18 21.5q0 3 -7.5 8t-21 10t-26.5 5h-37q-12 0 -25.5 -5t-21 -10t-7.5 -8q0 -1 18 -21.5t18 -33.5v-554zM70 780v49h256v-49h-256z
" />
    <glyph glyph-name="imacron" unicode="&#x12b;" horiz-adv-x="396" 
d="M240 363q0 28 -16 53t-45 25q-12 0 -26.5 -5t-23.5 -10t-9 -8q0 -1 18 -21.5t18 -33.5v-295q0 -28 16 -53t45 -25q12 0 26.5 5t23.5 10t9 8q0 1 -18 21.5t-18 33.5v295zM70 511v49h256v-49h-256z" />
    <glyph glyph-name="Ibreve" unicode="&#x12c;" horiz-adv-x="384" 
d="M155 78q0 -13 -18 -33.5t-18 -21.5q0 -3 7.5 -8t21 -10t25.5 -5h37q13 0 26.5 5t21 10t7.5 8q0 1 -18 21.5t-18 33.5v554q0 13 18 33.5t18 21.5q0 3 -7.5 8t-21 10t-26.5 5h-37q-12 0 -25.5 -5t-21 -10t-7.5 -8q0 -1 18 -21.5t18 -33.5v-554zM192 769q-34 0 -59.5 8.5
t-38 21t-18.5 23t-6 16.5q0 10 15.5 25.5t26.5 15.5q5 0 13 -16.5t24.5 -32.5t42.5 -16t42.5 16t24.5 32.5t13 16.5q11 0 26.5 -15.5t15.5 -25.5q0 -6 -6 -16.5t-18.5 -23t-38 -21t-59.5 -8.5z" />
    <glyph glyph-name="ibreve" unicode="&#x12d;" horiz-adv-x="384" 
d="M234 363q0 28 -16 53t-45 25q-12 0 -26.5 -5t-23.5 -10t-9 -8q0 -1 18 -21.5t18 -33.5v-295q0 -28 16 -53t45 -25q12 0 26.5 5t23.5 10t9 8q0 1 -18 21.5t-18 33.5v295zM192 490q-34 0 -59.5 8.5t-38 21t-18.5 23t-6 16.5q0 10 15.5 25.5t26.5 15.5q5 0 13 -16
t24.5 -32.5t42.5 -16.5t42.5 16.5t24.5 32.5t13 16q11 0 26.5 -15.5t15.5 -25.5q0 -6 -6 -16.5t-18.5 -23t-38 -21t-59.5 -8.5z" />
    <glyph glyph-name="Iogonek" unicode="&#x12e;" horiz-adv-x="330" 
d="M132 78v554q0 13 -18 33.5t-18 21.5q0 3 7.5 8t21 10t25.5 5h37q13 0 26.5 -5t21 -10t7.5 -8q0 -1 -18 -21.5t-18 -33.5v-554q0 -13 18 -33.5t18 -21.5q0 -3 -7.5 -8t-21 -10t-26.5 -5h-37q-12 0 -25.5 5t-21 10t-7.5 8q0 1 18 21.5t18 33.5zM208 -250q-39 0 -88.5 41.5
t-49.5 87.5q0 21 9.5 42t20 32.5t26.5 27t20 19.5h46q-52 -65 -52 -121q0 -18 30 -35t60 -28.5t30 -14.5q0 -11 -18 -31t-34 -20z" />
    <glyph glyph-name="iogonek" unicode="&#x12f;" horiz-adv-x="330" 
d="M182 363q0 30 -11.5 54t-39.5 24q-12 0 -26.5 -5t-23.5 -10t-9 -8q0 -1 18 -21.5t18 -33.5v-295q0 -28 16 -53t45 -25q12 0 24 5t18.5 10t6.5 8q0 1 -18 21.5t-18 33.5v295zM87 533q0 19 13 32t32 13t32 -13t13 -32t-13 -32t-32 -13t-32 13t-13 32zM208 -250
q-39 0 -88.5 41.5t-49.5 87.5q0 21 9.5 42t20 32.5t26.5 27t20 19.5h46q-52 -65 -52 -121q0 -18 30 -35t60 -28.5t30 -14.5q0 -11 -18 -31t-34 -20z" />
    <glyph glyph-name="Idotaccent" unicode="&#x130;" horiz-adv-x="286" 
d="M106 78q0 -13 -18 -33.5t-18 -21.5q0 -3 7.5 -8t21 -10t25.5 -5h37q13 0 26.5 5t21 10t7.5 8q0 1 -18 21.5t-18 33.5v554q0 13 18 33.5t18 21.5q0 3 -7.5 8t-21 10t-26.5 5h-37q-12 0 -25.5 -5t-21 -10t-7.5 -8q0 -1 18 -21.5t18 -33.5v-554zM98 805q0 19 13 32t32 13
t32 -13t13 -32t-13 -32t-32 -13t-32 13t-13 32z" />
    <glyph glyph-name="dotlessi" unicode="&#x131;" horiz-adv-x="296" 
d="M190 363v-295q0 -13 18 -33.5t18 -21.5q0 -3 -9 -8t-23.5 -10t-26.5 -5q-29 0 -45 25t-16 53v295q0 13 -18 33.5t-18 21.5q0 3 9 8t23.5 10t26.5 5q29 0 45 -25t16 -53z" />
    <glyph glyph-name="IJ" unicode="&#x132;" horiz-adv-x="622" 
d="M106 78v554q0 13 -18 33.5t-18 21.5q0 3 7.5 8t21 10t25.5 5h37q13 0 26.5 -5t21 -10t7.5 -8q0 -1 -18 -21.5t-18 -33.5v-554q0 -13 18 -33.5t18 -21.5q0 -3 -7.5 -8t-21 -10t-26.5 -5h-37q-12 0 -25.5 5t-21 10t-7.5 8q0 1 18 21.5t18 33.5zM472 209v414q0 13 -18 33.5
t-18 21.5q0 3 9 8t23.5 10t26.5 5q28 0 42.5 -25t14.5 -53v-414q0 -113 -47.5 -166t-119.5 -53q-48 0 -90 15t-61.5 31t-19.5 24q0 9 25 27t37 18q5 0 23.5 -15t45.5 -30.5t53 -15.5q18 0 31 5t21 17.5t12.5 24t6.5 34t2.5 38.5t0.5 46z" />
    <glyph glyph-name="ij" unicode="&#x133;" horiz-adv-x="402" 
d="M180 363q0 30 -11.5 54t-39.5 24q-12 0 -26.5 -5t-23.5 -10t-9 -8q0 -1 18 -21.5t18 -33.5v-295q0 -28 16 -53t45 -25q12 0 24 5t18.5 10t6.5 8q0 1 -18 21.5t-18 33.5v295zM85 533q0 19 13 32t32 13t32 -13t13 -32t-13 -32t-32 -13t-32 13t-13 32zM232 533q0 19 13 32
t32 13t32 -13t13 -32t-13 -32t-32 -13t-32 13t-13 32zM186 -196q18 0 31 5t21 17.5t12.5 24t6.5 34t2.5 38.5t0.5 46v394q0 13 -18 33.5t-18 21.5q0 3 6.5 8t19 10t24.5 5q29 0 43.5 -25t14.5 -53v-394q0 -114 -44 -166.5t-115 -52.5q-27 0 -52.5 12.5t-25.5 34.5
q0 12 9.5 28t13.5 16q2 0 12 -9.5t25.5 -18.5t30.5 -9z" />
    <glyph glyph-name="Jcircumflex" unicode="&#x134;" horiz-adv-x="556" 
d="M328 209v414q0 13 -18 33.5t-18 21.5q0 3 9 8t23.5 10t26.5 5q28 0 42.5 -25t14.5 -53v-414q0 -113 -47.5 -166t-119.5 -53q-48 0 -90 15t-61.5 31t-19.5 24q0 9 25 27t37 18q5 0 23.5 -15t45.5 -30.5t53 -15.5q18 0 31 5t21 17.5t12.5 24t6.5 34t2.5 38.5t0.5 46z
M396 862q26 -55 83 -96q7 -6 7 -9q0 -7 -14 -7q-11 0 -22 3t-18 5.5t-19 11.5t-15 11.5t-17.5 16.5t-16.5 15q-4 -3 -14.5 -13t-14.5 -13.5t-13.5 -11.5t-15 -11t-14.5 -7t-17.5 -5.5t-18.5 -1.5q-14 0 -14 7q0 3 7 9q57 41 83 96q7 15 17 23.5t15 8.5t15 -8.5t17 -23.5z
" />
    <glyph glyph-name="jcircumflex" unicode="&#x135;" horiz-adv-x="458" 
d="M161 -206q18 0 31 5t21 17.5t12.5 24t6.5 34t2.5 38.5t0.5 46v404q0 13 -18 33.5t-18 21.5q0 3 9 8t23.5 10t26.5 5q29 0 43.5 -25t14.5 -53v-404q0 -113 -48 -166t-120 -53q-27 0 -52.5 12.5t-25.5 34.5q0 12 9.5 28t13.5 16q2 0 12 -9.5t25.5 -18.5t30.5 -9zM298 603
q26 -55 83 -96q7 -6 7 -9q0 -7 -14 -7q-11 0 -22 3t-18 5.5t-19 11.5t-15 11.5t-17.5 16.5t-16.5 15q-4 -3 -14.5 -13t-14.5 -13.5t-13.5 -11.5t-15 -11t-14.5 -7t-17.5 -5.5t-18.5 -1.5q-14 0 -14 7q0 3 7 9q57 41 83 96q7 15 17 23.5t15 8.5t15 -8.5t17 -23.5z" />
    <glyph glyph-name="uni0136" unicode="&#x136;" horiz-adv-x="688" 
d="M618 9q0 -6 -17.5 -7.5t-91.5 -1.5q-25 0 -51.5 14t-47 32.5t-49 55.5t-46.5 64t-52 78.5t-53 80.5l-25 -31v-288q0 -6 -42 -6q-37 0 -37 6v626q0 13 -18 33.5t-18 21.5q0 3 7.5 8t21 10t25.5 5q29 0 45 -25t16 -53v-255q24 19 70 68.5t84.5 94.5t79.5 94t44 53
q12 13 61 13q55 0 55 -8q0 -3 -1 -5l-304 -318q27 -48 59.5 -96.5t78 -105.5t95 -93t91.5 -36q8 0 14 -11.5t6 -17.5zM365 -108q0 -21 -12.5 -49.5t-24.5 -46.5l-13 -18q-5 -6 -25 -6q-15 0 -15 16q0 2 5 18t10 40.5t5 45.5q0 13 -18.5 33.5t-18.5 21.5q0 4 23.5 13.5
t35.5 9.5q22 0 35 -25.5t13 -52.5z" />
    <glyph glyph-name="uni0137" unicode="&#x137;" horiz-adv-x="543" 
d="M325 -108q0 -21 -12.5 -49.5t-24.5 -46.5l-13 -18q-5 -6 -25 -6q-15 0 -15 16q0 2 5 18t10 40.5t5 45.5q0 13 -18.5 33.5t-18.5 21.5q0 4 23.5 13.5t35.5 9.5q22 0 35 -25.5t13 -52.5zM473 8q0 -5 -9 -6l-86 -2q-41 0 -98.5 75t-86.5 135l-8 -7v-197q0 -6 -41 -6
q-38 0 -38 6v626q0 13 -18 33.5t-18 21.5q0 3 6.5 8t19 10t24.5 5q29 0 47 -25.5t18 -52.5v-367l173 153q14 13 48 13h17t10.5 -1.5t7.5 -4t2 -7.5q0 -2 -49 -45.5t-98 -85.5l-49 -42q30 -65 101 -141t105 -76q8 0 14 -7t6 -13z" />
    <glyph glyph-name="kgreenlandic" unicode="&#x138;" horiz-adv-x="543" 
d="M473 8q0 -5 -9 -6l-86 -2q-41 0 -98.5 75t-86.5 135l-8 -7v-197q0 -6 -41 -6q-38 0 -38 6v357q0 13 -18 33.5t-18 21.5q0 3 6.5 8t19 10t24.5 5q29 0 47 -25.5t18 -52.5v-98l173 153q14 13 48 13h17t10.5 -1.5t7.5 -4t2 -7.5q0 -2 -49 -45.5t-98 -85.5l-49 -42
q30 -65 101 -141t105 -76q8 0 14 -7t6 -13z" />
    <glyph glyph-name="Lacute" unicode="&#x139;" 
d="M190 59v568q0 28 -16 55.5t-45 27.5q-12 0 -26.5 -6t-23.5 -12.5t-9 -9.5q0 -1 18 -21.5t18 -33.5v-621q0 -6 23 -6h304q29 0 53.5 10t24.5 32q0 12 -9.5 33.5t-13.5 21.5q-1 0 -21.5 -19t-33.5 -19h-243zM377 862q0 -44 -56 -78t-103 -34q-14 0 -14 7q0 6 7 9
q32 14 55 34t34 37.5t18 33t10.5 24.5t7.5 9q12 0 26.5 -13t14.5 -29z" />
    <glyph glyph-name="lacute" unicode="&#x13a;" horiz-adv-x="313" 
d="M197 632q0 78 -49 78q-12 0 -27 -4.5t-24.5 -10t-9.5 -8.5q0 -1 18 -21.5t18 -33.5v-564q0 -29 14 -53.5t42 -24.5q12 0 25.5 5t21 10t7.5 8q0 1 -18 21.5t-18 33.5v564zM243 862q0 -44 -56 -78t-103 -34q-14 0 -14 7q0 6 7 9q32 14 55 34t34 37.5t18 33t10.5 24.5t7.5 9
q12 0 26.5 -13t14.5 -29z" />
    <glyph glyph-name="uni013B" unicode="&#x13b;" 
d="M353 -108q0 -21 -12.5 -49.5t-24.5 -46.5l-13 -18q-5 -6 -25 -6q-15 0 -15 16q0 2 5 18t10 40.5t5 45.5q0 13 -18.5 33.5t-18.5 21.5q0 4 23.5 13.5t35.5 9.5q22 0 35 -25.5t13 -52.5zM190 627v-568h243q13 0 33.5 19t21.5 19q4 0 13.5 -21.5t9.5 -33.5q0 -22 -24.5 -32
t-53.5 -10h-304q-23 0 -23 6v621q0 13 -18 33.5t-18 21.5q0 3 9 9.5t23.5 12.5t26.5 6q29 0 45 -27.5t16 -55.5z" />
    <glyph glyph-name="uni013C" unicode="&#x13c;" horiz-adv-x="286" 
d="M210 -108q0 -21 -12.5 -49.5t-25.5 -46.5l-12 -18q-5 -6 -25 -6q-15 0 -15 16q0 2 5 18t10 40.5t5 45.5q0 13 -18.5 33.5t-18.5 21.5q0 4 23.5 13.5t35.5 9.5q22 0 35 -25.5t13 -52.5zM180 632v-564q0 -13 18 -33.5t18 -21.5q0 -3 -7.5 -8t-21 -10t-25.5 -5
q-28 0 -42 24.5t-14 53.5v564q0 13 -18 33.5t-18 21.5q0 3 7.5 8t21 10t25.5 5q28 0 42 -24.5t14 -53.5z" />
    <glyph glyph-name="Lcaron" unicode="&#x13d;" 
d="M198 870q0 -21 -12.5 -49.5t-25.5 -46.5l-12 -18q-5 -6 -25 -6q-15 0 -15 16q0 2 5 18t10 40.5t5 45.5q0 13 -18.5 33.5t-18.5 21.5q0 4 23.5 13.5t35.5 9.5q22 0 35 -25.5t13 -52.5zM190 59v568q0 28 -16 55.5t-45 27.5q-12 0 -26.5 -6t-23.5 -12.5t-9 -9.5
q0 -1 18 -21.5t18 -33.5v-621q0 -6 23 -6h304q29 0 53.5 10t24.5 32q0 12 -9.5 33.5t-13.5 21.5q-1 0 -21.5 -19t-33.5 -19h-243z" />
    <glyph glyph-name="lcaron" unicode="&#x13e;" horiz-adv-x="409" 
d="M339 632q0 -21 -12.5 -49.5t-24.5 -46.5l-13 -18q-5 -6 -25 -6q-15 0 -15 16q0 2 5 18t10 40.5t5 45.5q0 13 -18.5 33.5t-18.5 21.5q0 4 23.5 13.5t35.5 9.5q22 0 35 -25.5t13 -52.5zM180 632q0 78 -49 78q-12 0 -27 -4.5t-24.5 -10t-9.5 -8.5q0 -1 18 -21.5t18 -33.5
v-564q0 -29 14 -53.5t42 -24.5q12 0 25.5 5t21 10t7.5 8q0 1 -18 21.5t-18 33.5v564z" />
    <glyph glyph-name="Ldot" unicode="&#x13f;" 
d="M190 627v-568h243q13 0 33.5 19t21.5 19q4 0 13.5 -21.5t9.5 -33.5q0 -22 -24.5 -32t-53.5 -10h-304q-23 0 -23 6v621q0 13 -18 33.5t-18 21.5q0 3 9 9.5t23.5 12.5t26.5 6q29 0 45 -27.5t16 -55.5zM427 385q0 19 13 32t32 13t32 -13t13 -32t-13 -32t-32 -13t-32 13
t-13 32z" />
    <glyph glyph-name="ldot" unicode="&#x140;" horiz-adv-x="400" 
d="M180 632v-564q0 -13 18 -33.5t18 -21.5q0 -3 -7.5 -8t-21 -10t-25.5 -5q-28 0 -42 24.5t-14 53.5v564q0 13 -18 33.5t-18 21.5q0 3 9.5 8.5t24.5 10t27 4.5q49 0 49 -78zM240 386q0 19 13 32t32 13t32 -13t13 -32t-13 -32t-32 -13t-32 13t-13 32z" />
    <glyph glyph-name="Lslash" unicode="&#x141;" horiz-adv-x="606" 
d="M131 6v244l-61 -33v46l61 36v328q0 13 -18 33.5t-18 21.5q0 3 9 8t23.5 10t26.5 5q29 0 45 -25t16 -53v-278l107 63v-67q0 -12 -5 -21.5t-10 -13.5t-8 -4t-6 3l-8.5 8.5t-11.5 9.5l-58 -31v-232h243q13 0 33.5 18.5t21.5 18.5q4 0 13.5 -23.5t9.5 -35.5q0 -22 -24.5 -32
t-53.5 -10h-304q-23 0 -23 6z" />
    <glyph glyph-name="lslash" unicode="&#x142;" horiz-adv-x="382" 
d="M131 250l-61 -33v46l61 36v333q0 13 -18 33.5t-18 21.5q0 3 7.5 8t21 10t25.5 5q28 0 42 -24.5t14 -53.5v-293l107 63v-67q0 -12 -5 -21.5t-10 -13.5t-8 -4t-6 3l-8.5 8.5t-11.5 9.5l-58 -31v-218q0 -13 18 -33.5t18 -21.5q0 -3 -7.5 -8t-21 -10t-25.5 -5q-28 0 -42 24.5
t-14 53.5v182z" />
    <glyph glyph-name="Nacute" unicode="&#x143;" horiz-adv-x="701" 
d="M544 6l-364 581v-581q0 -6 -32 -6q-42 0 -42 6v616q0 13 -18 33.5t-18 21.5q0 3 9 8t23.5 10t26.5 5h61l367 -582v576q0 6 36 6q38 0 38 -6v-688q0 -6 -48 -6q-36 0 -39 6zM438 872q0 -44 -56 -78t-103 -34q-14 0 -14 7q0 6 7 9q32 14 55 34t34 37.5t18 33t10.5 24.5
t7.5 9q12 0 26.5 -13t14.5 -29z" />
    <glyph glyph-name="nacute" unicode="&#x144;" horiz-adv-x="584" 
d="M404 217v-149q0 -28 16 -53t45 -25q12 0 24 5t18.5 10t6.5 8q0 1 -18 21.5t-18 33.5v150q0 223 -183 223q-34 0 -61.5 -13.5t-37.5 -27.5l-11 -13q0 14 -14.5 34t-41.5 20q-12 0 -26.5 -5t-23.5 -10t-9 -8q0 -1 18 -21.5t18 -33.5v-358q0 -5 37 -5t37 5v300q2 3 5 9
t13.5 21t22.5 26t32 20.5t41 9.5q110 0 110 -174zM378 603q0 -44 -56 -78t-103 -34q-14 0 -14 7q0 6 7 9q32 14 55 34t34 37.5t18 33t10.5 24.5t7.5 9q12 0 26.5 -13t14.5 -29z" />
    <glyph glyph-name="uni0145" unicode="&#x145;" horiz-adv-x="701" 
d="M373 -108q0 -21 -12.5 -49.5t-24.5 -46.5l-13 -18q-5 -6 -25 -6q-15 0 -15 16q0 2 5 18t10 40.5t5 45.5q0 13 -18.5 33.5t-18.5 21.5q0 4 23.5 13.5t35.5 9.5q22 0 35 -25.5t13 -52.5zM544 6l-364 581v-581q0 -6 -32 -6q-42 0 -42 6v616q0 13 -18 33.5t-18 21.5q0 3 9 8
t23.5 10t26.5 5h61l367 -582v576q0 6 36 6q38 0 38 -6v-688q0 -6 -48 -6q-36 0 -39 6z" />
    <glyph glyph-name="uni0146" unicode="&#x146;" horiz-adv-x="584" 
d="M363 -108q0 -21 -12.5 -49.5t-24.5 -46.5l-13 -18q-5 -6 -25 -6q-15 0 -15 16q0 2 5 18t10 40.5t5 45.5q0 13 -18.5 33.5t-18.5 21.5q0 4 23.5 13.5t35.5 9.5q22 0 35 -25.5t13 -52.5zM404 68v149q0 174 -110 174q-34 0 -62.5 -21.5t-39.5 -43.5l-12 -21v-300
q0 -5 -37 -5t-37 5v358q0 13 -18 33.5t-18 21.5q0 3 9 8t23.5 10t26.5 5q27 0 41.5 -20t14.5 -34q4 6 11.5 15t36 24t62.5 15q183 0 183 -223v-150q0 -13 18 -33.5t18 -21.5q0 -3 -6.5 -8t-18.5 -10t-24 -5q-29 0 -45 25t-16 53z" />
    <glyph glyph-name="Ncaron" unicode="&#x147;" horiz-adv-x="701" 
d="M544 6l-364 581v-581q0 -6 -32 -6q-42 0 -42 6v616q0 13 -18 33.5t-18 21.5q0 3 9 8t23.5 10t26.5 5h61l367 -582v576q0 6 36 6q38 0 38 -6v-688q0 -6 -48 -6q-36 0 -39 6zM383 792q-7 -15 -17 -23.5t-15 -8.5t-15 8.5t-17 23.5q-26 55 -83 96q-7 6 -7 9q0 7 14 7
q11 0 22 -3t18 -5.5t19 -11.5t15 -11.5t17.5 -16.5t16.5 -15q4 3 14.5 13t14.5 13.5t13.5 11.5t15 11t14.5 7t17.5 5.5t18.5 1.5q14 0 14 -7q0 -3 -7 -9q-57 -41 -83 -96z" />
    <glyph glyph-name="ncaron" unicode="&#x148;" horiz-adv-x="584" 
d="M404 217v-149q0 -28 16 -53t45 -25q12 0 24 5t18.5 10t6.5 8q0 1 -18 21.5t-18 33.5v150q0 223 -183 223q-34 0 -61.5 -13.5t-37.5 -27.5l-11 -13q0 14 -14.5 34t-41.5 20q-12 0 -26.5 -5t-23.5 -10t-9 -8q0 -1 18 -21.5t18 -33.5v-358q0 -5 37 -5t37 5v300q2 3 5 9
t13.5 21t22.5 26t32 20.5t41 9.5q110 0 110 -174zM324 523q-7 -15 -17 -23.5t-15 -8.5t-15 8.5t-17 23.5q-26 55 -83 96q-7 6 -7 9q0 7 14 7q11 0 22 -3t18 -5.5t19 -11.5t15 -11.5t17.5 -16.5t16.5 -15q4 3 14.5 13t14.5 13.5t13.5 11.5t15 11t14.5 7t17.5 5.5t18.5 1.5
q14 0 14 -7q0 -3 -7 -9q-57 -41 -83 -96z" />
    <glyph glyph-name="napostrophe" unicode="&#x149;" horiz-adv-x="584" 
d="M187 623q0 -21 -12.5 -49.5t-24.5 -46.5l-13 -18q-5 -6 -25 -6q-15 0 -15 16q0 2 5 18t10 40.5t5 45.5q0 13 -18.5 33.5t-18.5 21.5q0 4 23.5 13.5t35.5 9.5q22 0 35 -25.5t13 -52.5zM404 217v-149q0 -28 16 -53t45 -25q12 0 24 5t18.5 10t6.5 8q0 1 -18 21.5t-18 33.5
v150q0 223 -183 223q-34 0 -61.5 -13.5t-37.5 -27.5l-11 -13q0 14 -14.5 34t-41.5 20q-12 0 -26.5 -5t-23.5 -10t-9 -8q0 -1 18 -21.5t18 -33.5v-358q0 -5 37 -5t37 5v300q2 3 5 9t13.5 21t22.5 26t32 20.5t41 9.5q110 0 110 -174z" />
    <glyph glyph-name="Eng" unicode="&#x14a;" horiz-adv-x="703" 
d="M544 -32v38l-364 581v-581q0 -6 -32 -6q-42 0 -42 6v616q0 13 -18 33.5t-18 21.5q0 3 9 8t23.5 10t26.5 5h61l367 -582v576q0 6 36 6q38 0 38 -6v-726q0 -112 -50.5 -165.5t-123.5 -53.5q-48 0 -90 15t-61.5 31t-19.5 24q0 9 25 27t37 18q5 0 23.5 -15t45.5 -30.5
t53 -15.5q18 0 31 5t21 17.5t12.5 24t6.5 34t2.5 38.5t0.5 46z" />
    <glyph glyph-name="eng" unicode="&#x14b;" horiz-adv-x="548" 
d="M394 -31v248q0 22 -0.5 35t-3 37t-9 39t-17 30.5t-28.5 23.5t-42 8q-34 0 -60 -20.5t-35 -41.5l-9 -20v-303q0 -6 -42 -6t-42 6v361q0 13 -18 33.5t-18 21.5q0 3 9 8t23.5 10t26.5 5q27 0 44 -24.5t17 -39.5q1 3 3.5 7t11.5 15t20 19.5t29.5 15.5t40.5 7q95 0 139 -61
t44 -165v-249q0 -112 -49 -165.5t-122 -53.5q-27 0 -52.5 12.5t-25.5 34.5q0 12 9.5 28t13.5 16q2 0 12 -9.5t25.5 -18.5t30.5 -9q18 0 31 5t21 17.5t12.5 24t6.5 34t2.5 38.5t0.5 46z" />
    <glyph glyph-name="Omacron" unicode="&#x14c;" horiz-adv-x="774" 
d="M404 47q110 0 162.5 78t52.5 212q0 144 -69.5 230t-179.5 86t-162.5 -78t-52.5 -212q0 -144 69.5 -230t179.5 -86zM383 -10q-84 0 -146 28.5t-97.5 80.5t-52.5 117.5t-17 146.5q0 91 29.5 161t77.5 109t102.5 58t111.5 19q84 0 146 -28.5t97.5 -80.5t52.5 -117.5
t17 -146.5q0 -91 -29.5 -161t-77.5 -109t-102.5 -58t-111.5 -19zM259 780v49h256v-49h-256z" />
    <glyph glyph-name="omacron" unicode="&#x14d;" horiz-adv-x="539" 
d="M272 444q103 0 150 -64.5t47 -170.5q0 -58 -18.5 -102t-49 -68.5t-64.5 -36.5t-70 -12q-103 0 -150 64.5t-47 170.5q0 58 18.5 102t49 68.5t64.5 36.5t70 12zM265 390q-114 0 -114 -165q0 -81 34 -133t89 -52q115 0 115 169q0 80 -34 130.5t-90 50.5zM140 511v49h256v-49
h-256z" />
    <glyph glyph-name="Obreve" unicode="&#x14e;" horiz-adv-x="774" 
d="M404 47q110 0 162.5 78t52.5 212q0 144 -69.5 230t-179.5 86t-162.5 -78t-52.5 -212q0 -144 69.5 -230t179.5 -86zM383 -10q-84 0 -146 28.5t-97.5 80.5t-52.5 117.5t-17 146.5q0 91 29.5 161t77.5 109t102.5 58t111.5 19q84 0 146 -28.5t97.5 -80.5t52.5 -117.5
t17 -146.5q0 -91 -29.5 -161t-77.5 -109t-102.5 -58t-111.5 -19zM387 759q-34 0 -59.5 8.5t-38 21t-18.5 23t-6 16.5q0 10 15.5 25.5t26.5 15.5q5 0 13 -16.5t24.5 -32.5t42.5 -16t42.5 16t24.5 32.5t13 16.5q11 0 26.5 -15.5t15.5 -25.5q0 -6 -6 -16.5t-18.5 -23t-38 -21
t-59.5 -8.5z" />
    <glyph glyph-name="obreve" unicode="&#x14f;" horiz-adv-x="539" 
d="M272 444q103 0 150 -64.5t47 -170.5q0 -58 -18.5 -102t-49 -68.5t-64.5 -36.5t-70 -12q-103 0 -150 64.5t-47 170.5q0 58 18.5 102t49 68.5t64.5 36.5t70 12zM265 390q-114 0 -114 -165q0 -81 34 -133t89 -52q115 0 115 169q0 80 -34 130.5t-90 50.5zM268 490
q-34 0 -59.5 8.5t-38 21t-18.5 23t-6 16.5q0 10 15.5 25.5t26.5 15.5q5 0 13 -16t24.5 -32.5t42.5 -16.5t42.5 16.5t24.5 32.5t13 16q11 0 26.5 -15.5t15.5 -25.5q0 -6 -6 -16.5t-18.5 -23t-38 -21t-59.5 -8.5z" />
    <glyph glyph-name="Ohungarumlaut" unicode="&#x150;" horiz-adv-x="774" 
d="M404 47q110 0 162.5 78t52.5 212q0 144 -69.5 230t-179.5 86t-162.5 -78t-52.5 -212q0 -144 69.5 -230t179.5 -86zM383 -10q-84 0 -146 28.5t-97.5 80.5t-52.5 117.5t-17 146.5q0 91 29.5 161t77.5 109t102.5 58t111.5 19q84 0 146 -28.5t97.5 -80.5t52.5 -117.5
t17 -146.5q0 -91 -29.5 -161t-77.5 -109t-102.5 -58t-111.5 -19zM396 879q0 -44 -56 -78t-103 -34q-14 0 -14 7q0 6 7 9q32 14 55 34t34 37.5t18 33t10.5 24.5t7.5 9q12 0 26.5 -13t14.5 -29zM550 879q0 -44 -56 -78t-103 -34q-14 0 -14 7q0 6 7 9q32 14 55 34t34 37.5
t18 33t10.5 24.5t7.5 9q12 0 26.5 -13t14.5 -29z" />
    <glyph glyph-name="ohungarumlaut" unicode="&#x151;" horiz-adv-x="539" 
d="M272 444q103 0 150 -64.5t47 -170.5q0 -58 -18.5 -102t-49 -68.5t-64.5 -36.5t-70 -12q-103 0 -150 64.5t-47 170.5q0 58 18.5 102t49 68.5t64.5 36.5t70 12zM265 390q-114 0 -114 -165q0 -81 34 -133t89 -52q115 0 115 169q0 80 -34 130.5t-90 50.5zM278 610
q0 -44 -56 -78t-103 -34q-14 0 -14 7q0 6 7 9q32 14 55 34t34 37.5t18 33t10.5 24.5t7.5 9q12 0 26.5 -13t14.5 -29zM432 610q0 -44 -56 -78t-103 -34q-14 0 -14 7q0 6 7 9q32 14 55 34t34 37.5t18 33t10.5 24.5t7.5 9q12 0 26.5 -13t14.5 -29z" />
    <glyph glyph-name="OE" unicode="&#x152;" horiz-adv-x="730" 
d="M582 0h-199q-164 0 -238.5 98t-74.5 265q0 91 29.5 159.5t78 105.5t102 54.5t111.5 17.5h191q29 0 53.5 -10t24.5 -32q0 -12 -9.5 -35.5t-13.5 -23.5q-1 0 -21.5 18.5t-33.5 18.5h-173v-262h95q13 0 38.5 3.5t26.5 3.5q13 0 13 -19q0 -52 -78 -52h-95v-246h173
q13 0 33.5 18.5t21.5 18.5q4 0 13.5 -23.5t9.5 -35.5q0 -22 -24.5 -32t-53.5 -10zM325 72v567q-170 -27 -170 -276q0 -121 52 -193t118 -98z" />
    <glyph glyph-name="oe" unicode="&#x153;" horiz-adv-x="839" 
d="M469 249h221q0 23 -0.5 36t-6.5 36t-16 35.5t-31.5 23t-52.5 10.5q-53 0 -83.5 -38.5t-30.5 -102.5zM428 370q29 37 71.5 55.5t86.5 18.5q83 0 133 -49.5t50 -145.5q0 -34 -9 -40.5t-62 -6.5h-229q0 -60 31 -108.5t82 -48.5q30 0 55 11.5t38 26t24 26t15 11.5
q10 0 26 -20t16 -29q0 -6 -5 -15t-18 -21t-32 -21.5t-50.5 -16.5t-69.5 -7q-105 0 -156 74q-29 -37 -71.5 -55.5t-86.5 -18.5q-103 0 -150 64.5t-47 170.5q0 58 18.5 102t49 68.5t64.5 36.5t70 12q105 0 156 -74zM265 390q-61 0 -85.5 -43t-24.5 -122q0 -78 33 -129.5
t86 -51.5q61 0 85.5 43t24.5 122q0 78 -33 129.5t-86 51.5z" />
    <glyph glyph-name="Racute" unicode="&#x154;" horiz-adv-x="687" 
d="M273 374h-83v276h54q170 0 170 -143q0 -64 -39 -98.5t-102 -34.5zM224 325q34 -67 78.5 -135.5t105 -129t104.5 -60.5q73 0 89 1t16 5q0 8 -5.5 16t-10.5 8q-74 0 -162.5 99.5t-134.5 198.5q51 2 91 22t61 48.5t31.5 56.5t10.5 53q0 95 -67 143.5t-186 48.5h-116
q-13 0 -27 -4t-23 -8.5t-9 -7.5q0 -1 18 -20.5t18 -32.5v-622q0 -6 42 -6t42 6v320h34zM376 872q0 -44 -56 -78t-103 -34q-14 0 -14 7q0 6 7 9q32 14 55 34t34 37.5t18 33t10.5 24.5t7.5 9q12 0 26.5 -13t14.5 -29z" />
    <glyph glyph-name="racute" unicode="&#x155;" horiz-adv-x="483" 
d="M295 442q-22 0 -41.5 -6.5t-32.5 -16t-22.5 -19.5t-14.5 -16l-4 -7q0 17 -12 40.5t-39 23.5q-12 0 -26.5 -5t-23.5 -10t-9 -8q0 -1 18 -21.5t18 -33.5v-358q0 -5 37 -5t37 5v303q2 3 5 8.5t13.5 20t23 25t32.5 19.5t41 9q26 0 36.5 -15t12.5 -30t7 -15q12 0 37 18t25 27
q0 26 -30 46.5t-88 20.5zM328 603q0 -44 -56 -78t-103 -34q-14 0 -14 7q0 6 7 9q32 14 55 34t34 37.5t18 33t10.5 24.5t7.5 9q12 0 26.5 -13t14.5 -29z" />
    <glyph glyph-name="uni0156" unicode="&#x156;" horiz-adv-x="687" 
d="M273 374q63 0 102 34.5t39 98.5q0 143 -170 143h-54v-276h83zM224 325h-34v-320q0 -6 -42 -6t-42 6v622q0 13 -18 32.5t-18 20.5q0 3 9 7.5t23 8.5t27 4h116q119 0 186 -48.5t67 -143.5q0 -25 -10.5 -53t-31.5 -56.5t-61 -48.5t-91 -22q46 -99 134.5 -198.5t162.5 -99.5
q5 0 10.5 -8t5.5 -16q0 -4 -16 -5t-89 -1q-44 0 -104.5 60.5t-105 129t-78.5 135.5zM365 -108q0 -21 -12.5 -49.5t-24.5 -46.5l-13 -18q-5 -6 -25 -6q-15 0 -15 16q0 2 5 18t10 40.5t5 45.5q0 13 -18.5 33.5t-18.5 21.5q0 4 23.5 13.5t35.5 9.5q22 0 35 -25.5t13 -52.5z" />
    <glyph glyph-name="uni0157" unicode="&#x157;" horiz-adv-x="483" 
d="M197 -108q0 -21 -12.5 -49.5t-24.5 -46.5l-13 -18q-5 -6 -25 -6q-15 0 -15 16q0 2 5 18t10 40.5t5 45.5q0 13 -18.5 33.5t-18.5 21.5q0 4 23.5 13.5t35.5 9.5q22 0 35 -25.5t13 -52.5zM295 444q58 0 88 -21.5t30 -47.5q0 -9 -25 -27t-37 -18q-5 0 -7 9.5t-4 21t-13.5 21
t-31.5 9.5q-34 0 -60 -20.5t-35 -41.5l-10 -21v-303q0 -6 -42 -6t-42 6v361q0 13 -18 33.5t-18 21.5q0 3 9 8t23.5 10t26.5 5q27 0 44 -24.5t17 -39.5q1 3 3.5 7t11.5 15t20 19.5t29.5 15.5t40.5 7z" />
    <glyph glyph-name="Rcaron" unicode="&#x158;" horiz-adv-x="687" 
d="M273 374h-83v276h54q170 0 170 -143q0 -64 -39 -98.5t-102 -34.5zM224 325q34 -67 78.5 -135.5t105 -129t104.5 -60.5q73 0 89 1t16 5q0 8 -5.5 16t-10.5 8q-74 0 -162.5 99.5t-134.5 198.5q51 2 91 22t61 48.5t31.5 56.5t10.5 53q0 95 -67 143.5t-186 48.5h-116
q-13 0 -27 -4t-23 -8.5t-9 -7.5q0 -1 18 -20.5t18 -32.5v-622q0 -6 42 -6t42 6v320h34zM301 782q-7 -15 -17 -23.5t-15 -8.5t-15 8.5t-17 23.5q-26 55 -83 96q-7 6 -7 9q0 7 14 7q11 0 22 -3t18 -5.5t19 -11.5t15 -11.5t17.5 -16.5t16.5 -15q4 3 14.5 13t14.5 13.5
t13.5 11.5t15 11t14.5 7t17.5 5.5t18.5 1.5q14 0 14 -7q0 -3 -7 -9q-57 -41 -83 -96z" />
    <glyph glyph-name="rcaron" unicode="&#x159;" horiz-adv-x="483" 
d="M295 442q-22 0 -41.5 -6.5t-32.5 -16t-22.5 -19.5t-14.5 -16l-4 -7q0 17 -12 40.5t-39 23.5q-12 0 -26.5 -5t-23.5 -10t-9 -8q0 -1 18 -21.5t18 -33.5v-358q0 -5 37 -5t37 5v303q2 3 5 8.5t13.5 20t23 25t32.5 19.5t41 9q26 0 36.5 -15t12.5 -30t7 -15q12 0 37 18t25 27
q0 26 -30 46.5t-88 20.5zM273 523q-7 -15 -17 -23.5t-15 -8.5t-15 8.5t-17 23.5q-26 55 -83 96q-7 6 -7 9q0 7 14 7q11 0 22 -3t18 -5.5t19 -11.5t15 -11.5t17.5 -16.5t16.5 -15q4 3 14.5 13t14.5 13.5t13.5 11.5t15 11t14.5 7t17.5 5.5t18.5 1.5q14 0 14 -7q0 -3 -7 -9
q-57 -41 -83 -96z" />
    <glyph glyph-name="Sacute" unicode="&#x15a;" horiz-adv-x="638" 
d="M568 194q0 43 -30.5 75.5t-79 52.5t-98.5 36.5t-98.5 38.5t-70.5 48q-27 31 -27 57q0 58 41.5 106t105.5 48q45 0 83 -18.5t57.5 -40t35 -40t21.5 -18.5q16 0 38 22.5t22 38.5q0 6 -10 18.5t-31.5 28.5t-50 30t-70.5 23.5t-88 9.5q-45 0 -85 -10.5t-77 -33.5t-58.5 -66.5
t-21.5 -102.5q0 -52 44 -89t99.5 -54t121.5 -43t97 -54q41 -37 41 -78q0 -66 -52.5 -102t-116.5 -36q-38 0 -72.5 17t-54.5 37.5t-36.5 37.5t-22.5 17q-16 0 -35 -16.5t-19 -33.5q0 -6 8 -18t26 -28t43.5 -30t65.5 -23.5t86 -9.5q51 0 96 10.5t85.5 32.5t64 63t23.5 97z
M429 872q0 -44 -56 -78t-103 -34q-14 0 -14 7q0 6 7 9q32 14 55 34t34 37.5t18 33t10.5 24.5t7.5 9q12 0 26.5 -13t14.5 -29z" />
    <glyph glyph-name="sacute" unicode="&#x15b;" horiz-adv-x="454" 
d="M306 114q0 -74 -81 -74q-22 0 -45 16.5t-38.5 33t-19.5 16.5q-10 0 -31 -18t-21 -28q0 -4 6 -12t19 -17.5t29.5 -18.5t40.5 -15t49 -6q170 0 170 134q0 38 -36.5 64t-81 37.5t-81 32t-36.5 48.5q0 40 22 61.5t58 21.5q22 0 45 -15t38.5 -30.5t19.5 -15.5q10 0 31 18
t21 28q0 7 -16 22t-51.5 29.5t-76.5 14.5q-21 0 -42.5 -4t-44.5 -14.5t-40 -26.5t-28 -42.5t-11 -60.5t24 -57.5t58 -35.5t68 -22.5t58 -26t24 -37.5zM304 603q0 -44 -56 -78t-103 -34q-14 0 -14 7q0 6 7 9q32 14 55 34t34 37.5t18 33t10.5 24.5t7.5 9q12 0 26.5 -13
t14.5 -29z" />
    <glyph glyph-name="Scircumflex" unicode="&#x15c;" horiz-adv-x="638" 
d="M568 194q0 -56 -23.5 -97t-64 -63t-85.5 -32.5t-96 -10.5q-46 0 -86 9.5t-65.5 23.5t-43.5 30t-26 28t-8 18q0 17 19 33.5t35 16.5q6 0 22.5 -17t36.5 -37.5t54.5 -37.5t72.5 -17q64 0 116.5 36t52.5 102q0 41 -41 78q-31 28 -97 54t-121.5 43t-99.5 54t-44 89
q0 59 21.5 102.5t58.5 66.5t77 33.5t85 10.5q46 0 88 -9.5t70.5 -23.5t50 -30t31.5 -28.5t10 -18.5q0 -16 -22 -38.5t-38 -22.5q-6 0 -21.5 18.5t-35 40t-57.5 40t-83 18.5q-64 0 -105.5 -48t-41.5 -106q0 -26 27 -57q22 -26 70.5 -48t98.5 -38.5t98.5 -36.5t79 -52.5
t30.5 -75.5zM374 872q26 -55 83 -96q7 -6 7 -9q0 -7 -14 -7q-11 0 -22 3t-18 5.5t-19 11.5t-15 11.5t-17.5 16.5t-16.5 15q-4 -3 -14.5 -13t-14.5 -13.5t-13.5 -11.5t-15 -11t-14.5 -7t-17.5 -5.5t-18.5 -1.5q-14 0 -14 7q0 3 7 9q57 41 83 96q7 15 17 23.5t15 8.5t15 -8.5
t17 -23.5z" />
    <glyph glyph-name="scircumflex" unicode="&#x15d;" horiz-adv-x="454" 
d="M306 114q0 22 -24 37.5t-58 26t-68 22.5t-58 35.5t-24 57.5t11 60.5t28 42.5t40 26.5t44.5 14.5t42.5 4q41 0 76.5 -14.5t51.5 -29.5t16 -22q0 -10 -21 -28t-31 -18q-4 0 -19.5 15.5t-38.5 30.5t-45 15q-36 0 -58 -21.5t-22 -61.5q0 -28 36.5 -48.5t81 -32t81 -37.5
t36.5 -64q0 -134 -170 -134q-25 0 -49 6t-40.5 15t-29.5 18.5t-19 17.5t-6 12q0 10 21 28t31 18q4 0 19.5 -16.5t38.5 -33t45 -16.5q81 0 81 74zM249 603q26 -55 83 -96q7 -6 7 -9q0 -7 -14 -7q-11 0 -22 3t-18 5.5t-19 11.5t-15 11.5t-17.5 16.5t-16.5 15q-4 -3 -14.5 -13
t-14.5 -13.5t-13.5 -11.5t-15 -11t-14.5 -7t-17.5 -5.5t-18.5 -1.5q-14 0 -14 7q0 3 7 9q57 41 83 96q7 15 17 23.5t15 8.5t15 -8.5t17 -23.5z" />
    <glyph glyph-name="Scedilla" unicode="&#x15e;" horiz-adv-x="638" 
d="M568 194q0 -56 -23.5 -97t-64 -63t-85.5 -32.5t-96 -10.5q-46 0 -86 9.5t-65.5 23.5t-43.5 30t-26 28t-8 18q0 17 19 33.5t35 16.5q6 0 22.5 -17t36.5 -37.5t54.5 -37.5t72.5 -17q64 0 116.5 36t52.5 102q0 41 -41 78q-31 28 -97 54t-121.5 43t-99.5 54t-44 89
q0 59 21.5 102.5t58.5 66.5t77 33.5t85 10.5q46 0 88 -9.5t70.5 -23.5t50 -30t31.5 -28.5t10 -18.5q0 -16 -22 -38.5t-38 -22.5q-6 0 -21.5 18.5t-35 40t-57.5 40t-83 18.5q-64 0 -105.5 -48t-41.5 -106q0 -26 27 -57q22 -26 70.5 -48t98.5 -38.5t98.5 -36.5t79 -52.5
t30.5 -75.5zM303 0h42q-45 -14 -45 -40q0 -8 8 -14.5t25 -6.5q18 0 31.5 -1t33 -6.5t32 -15t21.5 -28.5t9 -46q0 -34 -29.5 -63t-74.5 -29q-43 0 -75.5 15.5t-44 30.5t-11.5 24t24 17t38 8q5 0 12.5 -10.5t23.5 -20.5t42 -10q15 0 30.5 9t15.5 27q0 43 -53 43
q-122 0 -122 51q0 27 17 43.5t33 19.5z" />
    <glyph glyph-name="scedilla" unicode="&#x15f;" horiz-adv-x="454" 
d="M306 114q0 22 -24 37.5t-58 26t-68 22.5t-58 35.5t-24 57.5t11 60.5t28 42.5t40 26.5t44.5 14.5t42.5 4q41 0 76.5 -14.5t51.5 -29.5t16 -22q0 -10 -21 -28t-31 -18q-4 0 -19.5 15.5t-38.5 30.5t-45 15q-36 0 -58 -21.5t-22 -61.5q0 -28 36.5 -48.5t81 -32t81 -37.5
t36.5 -64q0 -134 -170 -134q-25 0 -49 6t-40.5 15t-29.5 18.5t-19 17.5t-6 12q0 10 21 28t31 18q4 0 19.5 -16.5t38.5 -33t45 -16.5q81 0 81 74zM202 0h42q-45 -14 -45 -40q0 -8 8 -14.5t25 -6.5q18 0 31.5 -1t33 -6.5t32 -15t21.5 -28.5t9 -46q0 -34 -29.5 -63t-74.5 -29
q-43 0 -75.5 15.5t-44 30.5t-11.5 24t24 17t38 8q5 0 12.5 -10.5t23.5 -20.5t42 -10q15 0 30.5 9t15.5 27q0 43 -53 43q-122 0 -122 51q0 27 16.5 43.5t33.5 19.5z" />
    <glyph glyph-name="Scaron" unicode="&#x160;" horiz-adv-x="638" 
d="M568 194q0 43 -30.5 75.5t-79 52.5t-98.5 36.5t-98.5 38.5t-70.5 48q-27 31 -27 57q0 58 41.5 106t105.5 48q45 0 83 -18.5t57.5 -40t35 -40t21.5 -18.5q16 0 38 22.5t22 38.5q0 6 -10 18.5t-31.5 28.5t-50 30t-70.5 23.5t-88 9.5q-45 0 -85 -10.5t-77 -33.5t-58.5 -66.5
t-21.5 -102.5q0 -52 44 -89t99.5 -54t121.5 -43t97 -54q41 -37 41 -78q0 -66 -52.5 -102t-116.5 -36q-38 0 -72.5 17t-54.5 37.5t-36.5 37.5t-22.5 17q-16 0 -35 -16.5t-19 -33.5q0 -6 8 -18t26 -28t43.5 -30t65.5 -23.5t86 -9.5q51 0 96 10.5t85.5 32.5t64 63t23.5 97z
M374 792q-7 -15 -17 -23.5t-15 -8.5t-15 8.5t-17 23.5q-26 55 -83 96q-7 6 -7 9q0 7 14 7q11 0 22 -3t18 -5.5t19 -11.5t15 -11.5t17.5 -16.5t16.5 -15q4 3 14.5 13t14.5 13.5t13.5 11.5t15 11t14.5 7t17.5 5.5t18.5 1.5q14 0 14 -7q0 -3 -7 -9q-57 -41 -83 -96z" />
    <glyph glyph-name="scaron" unicode="&#x161;" horiz-adv-x="454" 
d="M306 114q0 -74 -81 -74q-22 0 -45 16.5t-38.5 33t-19.5 16.5q-10 0 -31 -18t-21 -28q0 -4 6 -12t19 -17.5t29.5 -18.5t40.5 -15t49 -6q170 0 170 134q0 38 -36.5 64t-81 37.5t-81 32t-36.5 48.5q0 40 22 61.5t58 21.5q22 0 45 -15t38.5 -30.5t19.5 -15.5q10 0 31 18
t21 28q0 7 -16 22t-51.5 29.5t-76.5 14.5q-21 0 -42.5 -4t-44.5 -14.5t-40 -26.5t-28 -42.5t-11 -60.5t24 -57.5t58 -35.5t68 -22.5t58 -26t24 -37.5zM249 523q-7 -15 -17 -23.5t-15 -8.5t-15 8.5t-17 23.5q-26 55 -83 96q-7 6 -7 9q0 7 14 7q11 0 22 -3t18 -5.5t19 -11.5
t15 -11.5t17.5 -16.5t16.5 -15q4 3 14.5 13t14.5 13.5t13.5 11.5t15 11t14.5 7t17.5 5.5t18.5 1.5q14 0 14 -7q0 -3 -7 -9q-57 -41 -83 -96z" />
    <glyph glyph-name="uni0162" unicode="&#x162;" horiz-adv-x="695" 
d="M395 636v-630q0 -6 -42 -6t-42 6v630h-163q-13 -1 -33.5 -19t-21.5 -18q-4 0 -13.5 23.5t-9.5 35.5q0 22 24.5 32t53.5 10h477l-17 -64h-213zM401 -108q0 -21 -12.5 -49.5t-24.5 -46.5l-13 -18q-5 -6 -25 -6q-15 0 -15 16q0 2 5 18t10 40.5t5 45.5q0 13 -18.5 33.5
t-18.5 21.5q0 4 23.5 13.5t35.5 9.5q22 0 35 -25.5t13 -52.5z" />
    <glyph glyph-name="uni0163" unicode="&#x163;" horiz-adv-x="489" 
d="M339 -108q0 -21 -12.5 -49.5t-24.5 -46.5l-13 -18q-5 -6 -25 -6q-15 0 -15 16q0 2 5 18t10 40.5t5 45.5q0 13 -18.5 33.5t-18.5 21.5q0 4 23.5 13.5t35.5 9.5q22 0 35 -25.5t13 -52.5zM80 431h78v70q0 13 -19 33.5t-19 21.5q0 3 9 8.5t24 10t27 4.5q28 0 40 -24t12 -54
v-70h179l-17 -54h-162v-169q0 -165 45 -165q26 0 42.5 15t24.5 30.5t13 15.5q12 0 37 -18t25 -27q0 -5 -3.5 -12.5t-13 -17.5t-24.5 -18.5t-41.5 -14.5t-59.5 -6q-73 0 -96 46t-23 172v169h-10q-13 -1 -33.5 -6.5t-21.5 -5.5q-5 0 -14 13t-9 25v18q0 7 1.5 8.5t8.5 1.5z" />
    <glyph glyph-name="Tcaron" unicode="&#x164;" horiz-adv-x="695" 
d="M148 641h163v-635q0 -6 42 -6t42 6v635h213l17 59h-545q-7 0 -8.5 -1.5t-1.5 -8.5v-18q0 -12 9.5 -27.5t13.5 -15.5q1 0 21.5 5.5t33.5 6.5zM378 792q-7 -15 -17 -23.5t-15 -8.5t-15 8.5t-17 23.5q-26 55 -83 96q-7 6 -7 9q0 7 14 7q11 0 22 -3t18 -5.5t19 -11.5
t15 -11.5t17.5 -16.5t16.5 -15q4 3 14.5 13t14.5 13.5t13.5 11.5t15 11t14.5 7t17.5 5.5t18.5 1.5q14 0 14 -7q0 -3 -7 -9q-57 -41 -83 -96z" />
    <glyph glyph-name="tcaron" unicode="&#x165;" horiz-adv-x="629" 
d="M559 551q0 -21 -12.5 -49.5t-24.5 -46.5l-13 -18q-5 -6 -25 -6q-15 0 -15 16q0 2 5 18t10 40.5t5 45.5q0 13 -18.5 33.5t-18.5 21.5q0 4 23.5 13.5t35.5 9.5q22 0 35 -25.5t13 -52.5zM158 431h-78q-7 0 -8.5 -1.5t-1.5 -8.5v-18q0 -12 9 -25t14 -13q1 0 21.5 5.5
t33.5 6.5h10v-169q0 -126 23 -172t96 -46q33 0 59.5 6t41.5 14.5t24.5 18.5t13 17.5t3.5 12.5q0 9 -25 27t-37 18q-5 0 -13 -15t-24.5 -30.5t-42.5 -15.5q-45 0 -45 165v169h162l17 54h-179v70q0 30 -12 54t-40 24q-12 0 -27 -4.5t-24 -10t-9 -8.5q0 -1 19 -21.5t19 -33.5
v-70z" />
    <glyph glyph-name="Tbar" unicode="&#x166;" horiz-adv-x="695" 
d="M148 636q-13 -1 -33.5 -6.5t-21.5 -5.5q-4 0 -13.5 18t-9.5 30v18q0 7 1.5 8.5t8.5 1.5h545l-17 -64h-213v-205h139l-17 -54h-122v-371q0 -6 -42 -6t-42 6v371h-59q-13 -1 -33.5 -6.5t-21.5 -5.5q-5 0 -14 13t-9 25v18q0 7 1.5 8.5t8.5 1.5h68h59v205h-163z" />
    <glyph glyph-name="tbar" unicode="&#x167;" horiz-adv-x="489" 
d="M158 262v115h-10q-13 -1 -33.5 -6.5t-21.5 -5.5q-5 0 -14 13t-9 25v18q0 7 1.5 8.5t8.5 1.5h78v70q0 13 -19 33.5t-19 21.5q0 3 9 8.5t24 10t27 4.5q28 0 41 -24.5t13 -53.5v-70h177l-17 -54h-160v-115h177l-17 -54h-160q0 -165 43 -165q26 0 42.5 15t24.5 30.5t13 15.5
q12 0 37 -18t25 -27q0 -5 -3.5 -12.5t-13 -17.5t-24.5 -18.5t-41.5 -14.5t-59.5 -6q-73 0 -96 46t-23 172h-10q-13 -1 -33.5 -6.5t-21.5 -5.5q-5 0 -14 13t-9 25v18q0 7 1.5 8.5t8.5 1.5h78z" />
    <glyph glyph-name="Utilde" unicode="&#x168;" horiz-adv-x="701" 
d="M547 336v358q0 6 42 6t42 -6v-361q0 -179 -67.5 -261t-183.5 -82q-67 0 -117 19.5t-79.5 51.5t-47.5 82t-24 101.5t-6 118.5v264q0 13 -18 33.5t-18 21.5q0 3 9 8t23.5 10t26.5 5q29 0 45 -25t16 -53v-264q0 -146 46.5 -231t143.5 -85q91 0 129 76t38 213zM420 760
q-33 0 -54.5 14t-40 27.5t-42.5 13.5q-18 0 -25 -8t-6.5 -17t-2 -17t-12.5 -8q-14 0 -14 42q0 18 16.5 37t44.5 19q29 0 49.5 -8.5t29.5 -19t24 -19t34 -8.5q16 0 22.5 6t6.5 14t3.5 14t13.5 6q13 0 13 -42q0 -16 -16 -31t-44 -15z" />
    <glyph glyph-name="utilde" unicode="&#x169;" horiz-adv-x="584" 
d="M180 363v-146q0 -177 110 -177q34 0 62.5 21.5t39.5 42.5l12 22v303q0 6 37 6t37 -6v-361q0 -13 18 -33.5t18 -21.5q0 -3 -9 -8t-23.5 -10t-26.5 -5q-27 0 -41.5 20t-14.5 34q-4 -6 -11.5 -15t-36 -24t-62.5 -15q-101 0 -142 59.5t-41 166.5v147q0 13 -18 33.5t-18 21.5
q0 3 9 8t23.5 10t26.5 5q28 0 39.5 -24t11.5 -54zM342 491q-33 0 -54.5 13.5t-40 27.5t-42.5 14q-18 0 -25 -8t-6.5 -17t-2 -17t-12.5 -8q-14 0 -14 42q0 18 16.5 37t44.5 19q37 0 59 -14t38 -27.5t40 -13.5q16 0 22.5 6.5t6.5 13.5t3.5 13.5t13.5 6.5q13 0 13 -42
q0 -16 -16 -31t-44 -15z" />
    <glyph glyph-name="Umacron" unicode="&#x16a;" horiz-adv-x="701" 
d="M547 694v-358q0 -137 -38 -213t-129 -76q-97 0 -143.5 85t-46.5 231v264q0 28 -16 53t-45 25q-12 0 -26.5 -5t-23.5 -10t-9 -8q0 -1 18 -21.5t18 -33.5v-264q0 -67 6 -118.5t24 -101.5t47.5 -82t79.5 -51.5t117 -19.5q116 0 183.5 82t67.5 261v361q0 6 -42 6t-42 -6z
M223 780v49h256v-49h-256z" />
    <glyph glyph-name="umacron" unicode="&#x16b;" horiz-adv-x="584" 
d="M180 217v146q0 30 -11.5 54t-39.5 24q-12 0 -26.5 -5t-23.5 -10t-9 -8q0 -1 18 -21.5t18 -33.5v-147q0 -107 41 -166.5t142 -59.5q34 0 61.5 13.5t37.5 26.5l11 14q0 -14 14.5 -34t41.5 -20q12 0 26.5 5t23.5 10t9 8q0 1 -18 21.5t-18 33.5v361q0 6 -37 6t-37 -6v-303
q-2 -3 -5 -9t-13.5 -21t-22.5 -26t-32 -20.5t-41 -9.5q-110 0 -110 177zM146 511v49h256v-49h-256z" />
    <glyph glyph-name="Ubreve" unicode="&#x16c;" horiz-adv-x="701" 
d="M547 694v-358q0 -137 -38 -213t-129 -76q-97 0 -143.5 85t-46.5 231v264q0 28 -16 53t-45 25q-12 0 -26.5 -5t-23.5 -10t-9 -8q0 -1 18 -21.5t18 -33.5v-264q0 -67 6 -118.5t24 -101.5t47.5 -82t79.5 -51.5t117 -19.5q116 0 183.5 82t67.5 261v361q0 6 -42 6t-42 -6z
M351 759q-34 0 -59.5 8.5t-38 21t-18.5 23t-6 16.5q0 10 15.5 25.5t26.5 15.5q5 0 13 -16.5t24.5 -32.5t42.5 -16t42.5 16t24.5 32.5t13 16.5q11 0 26.5 -15.5t15.5 -25.5q0 -6 -6 -16.5t-18.5 -23t-38 -21t-59.5 -8.5z" />
    <glyph glyph-name="ubreve" unicode="&#x16d;" horiz-adv-x="584" 
d="M180 217v146q0 30 -11.5 54t-39.5 24q-12 0 -26.5 -5t-23.5 -10t-9 -8q0 -1 18 -21.5t18 -33.5v-147q0 -107 41 -166.5t142 -59.5q34 0 61.5 13.5t37.5 26.5l11 14q0 -14 14.5 -34t41.5 -20q12 0 26.5 5t23.5 10t9 8q0 1 -18 21.5t-18 33.5v361q0 6 -37 6t-37 -6v-303
q-2 -3 -5 -9t-13.5 -21t-22.5 -26t-32 -20.5t-41 -9.5q-110 0 -110 177zM274 490q-34 0 -59.5 8.5t-38 21t-18.5 23t-6 16.5q0 10 15.5 25.5t26.5 15.5q5 0 13 -16t24.5 -32.5t42.5 -16.5t42.5 16.5t24.5 32.5t13 16q11 0 26.5 -15.5t15.5 -25.5q0 -6 -6 -16.5t-18.5 -23
t-38 -21t-59.5 -8.5z" />
    <glyph glyph-name="Uring" unicode="&#x16e;" horiz-adv-x="701" 
d="M547 694v-358q0 -137 -38 -213t-129 -76q-97 0 -143.5 85t-46.5 231v264q0 28 -16 53t-45 25q-12 0 -26.5 -5t-23.5 -10t-9 -8q0 -1 18 -21.5t18 -33.5v-264q0 -67 6 -118.5t24 -101.5t47.5 -82t79.5 -51.5t117 -19.5q116 0 183.5 82t67.5 261v361q0 6 -42 6t-42 -6z
M269 838q0 32 24.5 55t57.5 23t57.5 -23t24.5 -55t-24.5 -55t-57.5 -23t-57.5 23t-24.5 55zM309 838q0 -16 12.5 -27.5t29.5 -11.5t29 11.5t12 27.5t-12 27t-29 11t-29.5 -11t-12.5 -27z" />
    <glyph glyph-name="uring" unicode="&#x16f;" horiz-adv-x="584" 
d="M180 217v146q0 30 -11.5 54t-39.5 24q-12 0 -26.5 -5t-23.5 -10t-9 -8q0 -1 18 -21.5t18 -33.5v-147q0 -107 41 -166.5t142 -59.5q34 0 61.5 13.5t37.5 26.5l11 14q0 -14 14.5 -34t41.5 -20q12 0 26.5 5t23.5 10t9 8q0 1 -18 21.5t-18 33.5v361q0 6 -37 6t-37 -6v-303
q-2 -3 -5 -9t-13.5 -21t-22.5 -26t-32 -20.5t-41 -9.5q-110 0 -110 177zM192 569q0 32 24.5 55t57.5 23t57.5 -23t24.5 -55t-24.5 -55t-57.5 -23t-57.5 23t-24.5 55zM232 569q0 -16 12.5 -27.5t29.5 -11.5t29 11.5t12 27.5t-12 27t-29 11t-29.5 -11t-12.5 -27z" />
    <glyph glyph-name="Uhungarumlaut" unicode="&#x170;" horiz-adv-x="701" 
d="M547 694v-358q0 -137 -38 -213t-129 -76q-97 0 -143.5 85t-46.5 231v264q0 28 -16 53t-45 25q-12 0 -26.5 -5t-23.5 -10t-9 -8q0 -1 18 -21.5t18 -33.5v-264q0 -67 6 -118.5t24 -101.5t47.5 -82t79.5 -51.5t117 -19.5q116 0 183.5 82t67.5 261v361q0 6 -42 6t-42 -6z
M361 879q0 -44 -56 -78t-103 -34q-14 0 -14 7q0 6 7 9q32 14 55 34t34 37.5t18 33t10.5 24.5t7.5 9q12 0 26.5 -13t14.5 -29zM515 879q0 -44 -56 -78t-103 -34q-14 0 -14 7q0 6 7 9q32 14 55 34t34 37.5t18 33t10.5 24.5t7.5 9q12 0 26.5 -13t14.5 -29z" />
    <glyph glyph-name="uhungarumlaut" unicode="&#x171;" horiz-adv-x="584" 
d="M180 217v146q0 30 -11.5 54t-39.5 24q-12 0 -26.5 -5t-23.5 -10t-9 -8q0 -1 18 -21.5t18 -33.5v-147q0 -107 41 -166.5t142 -59.5q34 0 61.5 13.5t37.5 26.5l11 14q0 -14 14.5 -34t41.5 -20q12 0 26.5 5t23.5 10t9 8q0 1 -18 21.5t-18 33.5v361q0 6 -37 6t-37 -6v-303
q-2 -3 -5 -9t-13.5 -21t-22.5 -26t-32 -20.5t-41 -9.5q-110 0 -110 177zM293 610q0 -44 -56 -78t-103 -34q-14 0 -14 7q0 6 7 9q32 14 55 34t34 37.5t18 33t10.5 24.5t7.5 9q12 0 26.5 -13t14.5 -29zM447 610q0 -44 -56 -78t-103 -34q-14 0 -14 7q0 6 7 9q32 14 55 34
t34 37.5t18 33t10.5 24.5t7.5 9q12 0 26.5 -13t14.5 -29z" />
    <glyph glyph-name="Uogonek" unicode="&#x172;" horiz-adv-x="701" 
d="M547 336v358q0 6 42 6t42 -6v-361q0 -179 -67.5 -261t-183.5 -82q-67 0 -117 19.5t-79.5 51.5t-47.5 82t-24 101.5t-6 118.5v264q0 13 -18 33.5t-18 21.5q0 3 9 8t23.5 10t26.5 5q29 0 45 -25t16 -53v-264q0 -146 46.5 -231t143.5 -85q91 0 129 76t38 213zM420 -250
q-39 0 -88.5 41.5t-49.5 87.5q0 21 9.5 42t20 32.5t26.5 27t20 19.5h46q-52 -65 -52 -121q0 -18 30 -35t60 -28.5t30 -14.5q0 -11 -18 -31t-34 -20z" />
    <glyph glyph-name="uogonek" unicode="&#x173;" horiz-adv-x="624" 
d="M180 363v-146q0 -177 110 -177q34 0 62.5 21.5t39.5 42.5l12 22v303q0 6 37 6t37 -6v-361q0 -13 18 -33.5t18 -21.5q0 -3 -9 -8t-23.5 -10t-26.5 -5q-27 0 -41.5 20t-14.5 34q-4 -6 -11.5 -15t-36 -24t-62.5 -15q-101 0 -142 59.5t-41 166.5v147q0 13 -18 33.5t-18 21.5
q0 3 9 8t23.5 10t26.5 5q28 0 39.5 -24t11.5 -54zM502 -250q-39 0 -88.5 41.5t-49.5 87.5q0 21 9.5 42t20 32.5t26.5 27t20 19.5h46q-52 -65 -52 -121q0 -18 30 -35t60 -28.5t30 -14.5q0 -11 -18 -31t-34 -20z" />
    <glyph glyph-name="Wcircumflex" unicode="&#x174;" horiz-adv-x="1129" 
d="M570 530l-195 -525q-3 -5 -23 -5q-19 0 -21 5l-225 627q-5 11 -14 23.5t-15.5 21t-6.5 10.5q0 3 10.5 8.5t27 10t28.5 4.5q14 0 27.5 -19.5t20.5 -38.5l6 -20l168 -468l166 456q0 18 -8 33t-15.5 23.5t-7.5 10.5q0 3 12.5 8.5t30 10t30.5 4.5q14 0 28 -19.5t22 -38.5
l7 -20l158 -468l195 530q2 6 38 6q45 0 45 -6l-261 -689q-3 -5 -23 -5q-19 0 -21 5zM600 872q26 -55 83 -96q7 -6 7 -9q0 -7 -14 -7q-11 0 -22 3t-18 5.5t-19 11.5t-15 11.5t-17.5 16.5t-16.5 15q-4 -3 -14.5 -13t-14.5 -13.5t-13.5 -11.5t-15 -11t-14.5 -7t-17.5 -5.5
t-18.5 -1.5q-14 0 -14 7q0 3 7 9q57 41 83 96q7 15 17 23.5t15 8.5t15 -8.5t17 -23.5z" />
    <glyph glyph-name="wcircumflex" unicode="&#x175;" horiz-adv-x="832" 
d="M418 266l-113 -261q-2 -5 -20 -5q-22 0 -24 5l-155 358q-5 11 -14 23.5t-15.5 21t-6.5 10.5q0 3 9 8t23.5 10t26.5 5q14 0 29 -19.5t24 -39.5l8 -19l98 -249l94 226q-5 11 -16.5 29.5t-20.5 32.5t-9 16q0 3 9 8t23.5 10t26.5 5q14 0 29 -19.5t24 -39.5l8 -19l98 -249
l134 317q2 6 36 6q38 0 38 -6l-191 -426q-3 -5 -27 -5q-15 0 -17 5zM443 603q26 -55 83 -96q7 -6 7 -9q0 -7 -14 -7q-11 0 -22 3t-18 5.5t-19 11.5t-15 11.5t-17.5 16.5t-16.5 15q-4 -3 -14.5 -13t-14.5 -13.5t-13.5 -11.5t-15 -11t-14.5 -7t-17.5 -5.5t-18.5 -1.5
q-14 0 -14 7q0 3 7 9q57 41 83 96q7 15 17 23.5t15 8.5t15 -8.5t17 -23.5z" />
    <glyph glyph-name="Ycircumflex" unicode="&#x176;" horiz-adv-x="699" 
d="M629 691l-241 -344v-341q0 -6 -42 -6t-42 6v341l-152 239q-5 9 -25.5 33t-38.5 45t-18 23q0 3 10 8.5t26 10t28 4.5q14 0 33 -19.5t31 -38.5l13 -20l135 -213l193 272q6 9 41 9q32 0 40.5 -1.5t8.5 -7.5zM381 872q26 -55 83 -96q7 -6 7 -9q0 -7 -14 -7q-11 0 -22 3
t-18 5.5t-19 11.5t-15 11.5t-17.5 16.5t-16.5 15q-4 -3 -14.5 -13t-14.5 -13.5t-13.5 -11.5t-15 -11t-14.5 -7t-17.5 -5.5t-18.5 -1.5q-14 0 -14 7q0 3 7 9q57 41 83 96q7 15 17 23.5t15 8.5t15 -8.5t17 -23.5z" />
    <glyph glyph-name="ycircumflex" unicode="&#x177;" horiz-adv-x="615" 
d="M458 425q2 6 31 6q53 0 53 -6q-28 -44 -69 -135.5t-80 -178.5t-82.5 -172t-90 -137t-89.5 -52q-30 0 -55.5 14.5t-25.5 27.5q0 19 5 32.5t10 18.5t8 5l20 -14q20 -13 36 -13q27 0 65 51.5t63 105t25 68.5l-137 317q-5 11 -14 23.5t-15.5 21t-6.5 10.5q0 3 9 8t23.5 10
t26.5 5q14 0 29 -19.5t23 -39.5l9 -19l99 -239zM330 603q26 -55 83 -96q7 -6 7 -9q0 -7 -14 -7q-11 0 -22 3t-18 5.5t-19 11.5t-15 11.5t-17.5 16.5t-16.5 15q-4 -3 -14.5 -13t-14.5 -13.5t-13.5 -11.5t-15 -11t-14.5 -7t-17.5 -5.5t-18.5 -1.5q-14 0 -14 7q0 3 7 9
q57 41 83 96q7 15 17 23.5t15 8.5t15 -8.5t17 -23.5z" />
    <glyph glyph-name="Ydieresis" unicode="&#x178;" horiz-adv-x="699" 
d="M388 347l241 344q0 6 -8.5 7.5t-40.5 1.5q-35 0 -41 -9l-193 -272l-135 213q-5 9 -13.5 22t-29 34.5t-34.5 21.5q-12 0 -28 -4.5t-26 -10t-10 -8.5q0 -2 18 -23t38.5 -45t25.5 -33l152 -239v-341q0 -6 42 -6t42 6v341zM234 822q0 19 13 32t32 13t32 -13t13 -32t-13 -32
t-32 -13t-32 13t-13 32zM374 822q0 19 13 32t32 13t32 -13t13 -32t-13 -32t-32 -13t-32 13t-13 32z" />
    <glyph glyph-name="Zacute" unicode="&#x179;" horiz-adv-x="712" 
d="M180 59h364q13 0 33.5 16t21.5 16q4 0 13.5 -16t9.5 -28q0 -22 -25.5 -34.5t-52.5 -12.5h-427q-47 0 -47 23q0 11 5.5 23t9 18t16.5 22t14 18l420 537h-368q-13 0 -33.5 -16t-21.5 -16q-4 0 -13.5 16t-9.5 28q0 22 25.5 34.5t52.5 12.5h427q48 0 48 -23q0 -10 -10.5 -30
t-18.5 -29zM452 872q0 -44 -56 -78t-103 -34q-14 0 -14 7q0 6 7 9q32 14 55 34t34 37.5t18 33t10.5 24.5t7.5 9q12 0 26.5 -13t14.5 -29z" />
    <glyph glyph-name="zacute" unicode="&#x17a;" horiz-adv-x="493" 
d="M95 76l233 301h-180q-13 0 -33.5 -18.5t-21.5 -18.5q-4 0 -13.5 16t-9.5 28q0 22 25.5 34.5t52.5 12.5h258q17 0 17 -25q0 -20 -25 -51l-233 -301h180q13 0 33.5 18.5t21.5 18.5q4 0 13.5 -16t9.5 -28q0 -22 -25.5 -34.5t-52.5 -12.5h-258q-17 0 -17 25q0 23 25 51z
M333 603q0 -44 -56 -78t-103 -34q-14 0 -14 7q0 6 7 9q32 14 55 34t34 37.5t18 33t10.5 24.5t7.5 9q12 0 26.5 -13t14.5 -29z" />
    <glyph glyph-name="Zdotaccent" unicode="&#x17b;" horiz-adv-x="712" 
d="M180 59h364q13 0 33.5 16t21.5 16q4 0 13.5 -16t9.5 -28q0 -22 -25.5 -34.5t-52.5 -12.5h-427q-47 0 -47 23q0 11 5.5 23t9 18t16.5 22t14 18l420 537h-368q-13 0 -33.5 -16t-21.5 -16q-4 0 -13.5 16t-9.5 28q0 22 25.5 34.5t52.5 12.5h427q48 0 48 -23q0 -10 -10.5 -30
t-18.5 -29zM320 805q0 19 13 32t32 13t32 -13t13 -32t-13 -32t-32 -13t-32 13t-13 32z" />
    <glyph glyph-name="zdotaccent" unicode="&#x17c;" horiz-adv-x="493" 
d="M95 76l233 301h-180q-13 0 -33.5 -18.5t-21.5 -18.5q-4 0 -13.5 16t-9.5 28q0 22 25.5 34.5t52.5 12.5h258q17 0 17 -25q0 -20 -25 -51l-233 -301h180q13 0 33.5 18.5t21.5 18.5q4 0 13.5 -16t9.5 -28q0 -22 -25.5 -34.5t-52.5 -12.5h-258q-17 0 -17 25q0 23 25 51z
M201 536q0 19 13 32t32 13t32 -13t13 -32t-13 -32t-32 -13t-32 13t-13 32z" />
    <glyph glyph-name="Zcaron" unicode="&#x17d;" horiz-adv-x="712" 
d="M180 59h364q13 0 33.5 16t21.5 16q4 0 13.5 -16t9.5 -28q0 -22 -25.5 -34.5t-52.5 -12.5h-427q-47 0 -47 23q0 11 5.5 23t9 18t16.5 22t14 18l420 537h-368q-13 0 -33.5 -16t-21.5 -16q-4 0 -13.5 16t-9.5 28q0 22 25.5 34.5t52.5 12.5h427q48 0 48 -23q0 -10 -10.5 -30
t-18.5 -29zM397 792q-7 -15 -17 -23.5t-15 -8.5t-15 8.5t-17 23.5q-26 55 -83 96q-7 6 -7 9q0 7 14 7q11 0 22 -3t18 -5.5t19 -11.5t15 -11.5t17.5 -16.5t16.5 -15q4 3 14.5 13t14.5 13.5t13.5 11.5t15 11t14.5 7t17.5 5.5t18.5 1.5q14 0 14 -7q0 -3 -7 -9q-57 -41 -83 -96z
" />
    <glyph glyph-name="zcaron" unicode="&#x17e;" horiz-adv-x="493" 
d="M95 76l233 301h-180q-13 0 -33.5 -18.5t-21.5 -18.5q-4 0 -13.5 16t-9.5 28q0 22 25.5 34.5t52.5 12.5h258q17 0 17 -25q0 -20 -25 -51l-233 -301h180q13 0 33.5 18.5t21.5 18.5q4 0 13.5 -16t9.5 -28q0 -22 -25.5 -34.5t-52.5 -12.5h-258q-17 0 -17 25q0 23 25 51z
M278 523q-7 -15 -17 -23.5t-15 -8.5t-15 8.5t-17 23.5q-26 55 -83 96q-7 6 -7 9q0 7 14 7q11 0 22 -3t18 -5.5t19 -11.5t15 -11.5t17.5 -16.5t16.5 -15q4 3 14.5 13t14.5 13.5t13.5 11.5t15 11t14.5 7t17.5 5.5t18.5 1.5q14 0 14 -7q0 -3 -7 -9q-57 -41 -83 -96z" />
    <glyph glyph-name="longs" unicode="&#x17f;" horiz-adv-x="528" 
d="M158 5v372h-10q-13 -1 -33.5 -19t-21.5 -18q-4 0 -13.5 18.5t-9.5 30.5q0 22 24.5 32t53.5 10h10v61q0 113 48.5 166t121.5 53q48 0 85 -15.5t51.5 -30.5t14.5 -24t-25 -27t-37 -18q-5 0 -18.5 15t-35.5 30.5t-48 15.5q-50 0 -65.5 -41t-15.5 -124v-487q0 -6 -40 -6
q-36 0 -36 6z" />
    <glyph glyph-name="florin" unicode="&#x192;" horiz-adv-x="656" 
d="M343 377v-372q0 -112 -49.5 -165.5t-122.5 -53.5q-48 0 -85 15.5t-51.5 30.5t-14.5 24t25 27t37 18q5 0 18.5 -15t35.5 -30.5t48 -15.5t43 11.5t24.5 36.5t9.5 50t2 67v372h-64q-13 -1 -33.5 -19t-21.5 -18q-4 0 -13.5 18.5t-9.5 30.5q0 22 24.5 32t53.5 10h64v61
q0 112 49.5 165.5t122.5 53.5q48 0 85 -15.5t51.5 -30.5t14.5 -24t-25 -27t-37 -18q-5 0 -18.5 15t-35.5 30.5t-48 15.5t-43 -11.5t-24.5 -36.5t-9.5 -50t-2 -67v-61h175l-17 -54h-158z" />
    <glyph glyph-name="AEacute" unicode="&#x1fc;" horiz-adv-x="730" 
d="M325 250v249l-86 -249h86zM348 700h234q29 0 53.5 -10t24.5 -32q0 -12 -9.5 -35.5t-13.5 -23.5q-1 0 -21.5 18.5t-33.5 18.5h-173v-262h95q13 0 38.5 3.5t26.5 3.5q13 0 13 -19q0 -52 -78 -52h-95v-246h173q13 0 33.5 18.5t21.5 18.5q4 0 13.5 -23.5t9.5 -35.5
q0 -22 -24.5 -32t-53.5 -10h-257v201h-103l-67 -195q-2 -6 -38 -6q-47 0 -47 6l244 645q-2 4 -13.5 15t-11.5 14t9 7.5t23 8.5t27 4zM593 882q0 -44 -56 -78t-103 -34q-14 0 -14 7q0 6 7 9q32 14 55 34t34 37.5t18 33t10.5 24.5t7.5 9q12 0 26.5 -13t14.5 -29z" />
    <glyph glyph-name="aeacute" unicode="&#x1fd;" horiz-adv-x="775" 
d="M405 249h221q0 23 -0.5 36t-6.5 36t-16 35.5t-31.5 23t-52.5 10.5q-53 0 -83.5 -38.5t-30.5 -102.5zM381 388q55 56 141 56q82 0 132.5 -51.5t50.5 -142.5q0 -36 -9 -42t-62 -6h-229q0 -60 31 -108.5t82 -48.5q30 0 55 11.5t38 26t24 26t15 11.5q10 0 26 -20t16 -29
q0 -6 -5 -15t-18 -21t-32 -21.5t-50.5 -16.5t-69.5 -7q-97 0 -145 59q-7 -7 -20.5 -16.5t-52 -26t-74.5 -16.5q-65 0 -110 34.5t-45 92.5q0 33 16 55t45.5 34t58 18.5t68.5 13t61 12.5v56q0 20 -4 38.5t-19.5 35.5t-40.5 17q-30 0 -56 -10.5t-42.5 -25t-28 -29t-18 -25
t-7.5 -10.5q-3 0 -8.5 11.5t-10 28.5t-4.5 29q30 34 70 55t64 25.5t41 4.5q98 0 126 -63zM319 85l1 120q-23 -6 -53 -11.5t-46.5 -9.5t-33.5 -11t-24.5 -20.5t-7.5 -35.5q0 -32 15.5 -49t33 -20.5t45.5 -3.5q17 0 30.5 4t20.5 10.5t11.5 12.5t6.5 10zM605 603q0 -44 -56 -78
t-103 -34q-14 0 -14 7q0 6 7 9q32 14 55 34t34 37.5t18 33t10.5 24.5t7.5 9q12 0 26.5 -13t14.5 -29z" />
    <glyph glyph-name="Oslashacute" unicode="&#x1fe;" horiz-adv-x="774" 
d="M519 593l-227 -513q53 -33 112 -33q110 0 162.5 78t52.5 212q0 164 -100 256zM254 109l217 518q-47 26 -101 26q-110 0 -162.5 -78t-52.5 -212q0 -162 99 -254zM260 9l-26 -59h-46l32 77q-150 83 -150 336q0 91 29.5 161t77.5 109t102.5 58t111.5 19q50 0 96 -11
q-5 6 -11.5 12.5l-10 10t-3.5 5.5q0 3 9 8t23.5 10t26.5 5h67l-35 -78q151 -85 151 -335q0 -91 -29.5 -161t-77.5 -109t-102.5 -58t-111.5 -19q-68 0 -123 19zM473 882q0 -44 -56 -78t-103 -34q-14 0 -14 7q0 6 7 9q32 14 55 34t34 37.5t18 33t10.5 24.5t7.5 9
q12 0 26.5 -13t14.5 -29z" />
    <glyph glyph-name="oslashacute" unicode="&#x1ff;" horiz-adv-x="539" 
d="M429 480l-33 -74q73 -59 73 -197q0 -58 -18.5 -102t-49 -68.5t-64.5 -36.5t-70 -12q-26 0 -53 5l-20 -45h-51l26 61q-99 52 -99 214q0 58 18.5 102t49 68.5t64.5 36.5t70 12q27 0 47 -4q-16 16 -16 17q0 3 9 8t23.5 10t26.5 5h67zM198 82l121 291q-25 17 -54 17
q-61 0 -85.5 -43t-24.5 -122q0 -90 43 -143zM360 324l-121 -273q19 -7 35 -7q61 0 85.5 43t24.5 122q0 69 -24 115zM356 603q0 -44 -56 -78t-103 -34q-14 0 -14 7q0 6 7 9q32 14 55 34t34 37.5t18 33t10.5 24.5t7.5 9q12 0 26.5 -13t14.5 -29z" />
    <glyph glyph-name="uni0218" unicode="&#x218;" horiz-adv-x="638" 
d="M365 -108q0 -21 -12.5 -49.5t-24.5 -46.5l-13 -18q-5 -6 -25 -6q-15 0 -15 16q0 2 5 18t10 40.5t5 45.5q0 13 -18.5 33.5t-18.5 21.5q0 4 23.5 13.5t35.5 9.5q22 0 35 -25.5t13 -52.5zM568 194q0 -56 -23.5 -97t-64 -63t-85.5 -32.5t-96 -10.5q-46 0 -86 9.5t-65.5 23.5
t-43.5 30t-26 28t-8 18q0 17 19 33.5t35 16.5q6 0 22.5 -17t36.5 -37.5t54.5 -37.5t72.5 -17q64 0 116.5 36t52.5 102q0 41 -41 78q-31 28 -97 54t-121.5 43t-99.5 54t-44 89q0 59 21.5 102.5t58.5 66.5t77 33.5t85 10.5q46 0 88 -9.5t70.5 -23.5t50 -30t31.5 -28.5
t10 -18.5q0 -16 -22 -38.5t-38 -22.5q-6 0 -21.5 18.5t-35 40t-57.5 40t-83 18.5q-64 0 -105.5 -48t-41.5 -106q0 -26 27 -57q22 -26 70.5 -48t98.5 -38.5t98.5 -36.5t79 -52.5t30.5 -75.5z" />
    <glyph glyph-name="uni0219" unicode="&#x219;" horiz-adv-x="454" 
d="M285 -108q0 -21 -12.5 -49.5t-24.5 -46.5l-13 -18q-5 -6 -25 -6q-15 0 -15 16q0 2 5 18t10 40.5t5 45.5q0 13 -18.5 33.5t-18.5 21.5q0 4 23.5 13.5t35.5 9.5q22 0 35 -25.5t13 -52.5zM306 114q0 22 -24 37.5t-58 26t-68 22.5t-58 35.5t-24 57.5t11 60.5t28 42.5t40 26.5
t44.5 14.5t42.5 4q41 0 76.5 -14.5t51.5 -29.5t16 -22q0 -10 -21 -28t-31 -18q-4 0 -19.5 15.5t-38.5 30.5t-45 15q-36 0 -58 -21.5t-22 -61.5q0 -28 36.5 -48.5t81 -32t81 -37.5t36.5 -64q0 -134 -170 -134q-25 0 -49 6t-40.5 15t-29.5 18.5t-19 17.5t-6 12q0 10 21 28
t31 18q4 0 19.5 -16.5t38.5 -33t45 -16.5q81 0 81 74z" />
    <glyph glyph-name="uni021A" unicode="&#x21a;" horiz-adv-x="695" 
d="M401 -108q0 -21 -12.5 -49.5t-24.5 -46.5l-13 -18q-5 -6 -25 -6q-15 0 -15 16q0 2 5 18t10 40.5t5 45.5q0 13 -18.5 33.5t-18.5 21.5q0 4 23.5 13.5t35.5 9.5q22 0 35 -25.5t13 -52.5zM148 641q-13 -1 -33.5 -6.5t-21.5 -5.5q-4 0 -13.5 15.5t-9.5 27.5v18q0 7 1.5 8.5
t8.5 1.5h545l-17 -59h-213v-635q0 -6 -42 -6t-42 6v635h-163z" />
    <glyph glyph-name="uni021B" unicode="&#x21b;" horiz-adv-x="489" 
d="M339 -108q0 -21 -12.5 -49.5t-24.5 -46.5l-13 -18q-5 -6 -25 -6q-15 0 -15 16q0 2 5 18t10 40.5t5 45.5q0 13 -18.5 33.5t-18.5 21.5q0 4 23.5 13.5t35.5 9.5q22 0 35 -25.5t13 -52.5zM80 431h78v70q0 13 -19 33.5t-19 21.5q0 3 9 8.5t24 10t27 4.5q28 0 40 -24t12 -54
v-70h179l-17 -54h-162v-169q0 -165 45 -165q26 0 42.5 15t24.5 30.5t13 15.5q12 0 37 -18t25 -27q0 -5 -3.5 -12.5t-13 -17.5t-24.5 -18.5t-41.5 -14.5t-59.5 -6q-73 0 -96 46t-23 172v169h-10q-13 -1 -33.5 -6.5t-21.5 -5.5q-5 0 -14 13t-9 25v18q0 7 1.5 8.5t8.5 1.5z" />
    <glyph glyph-name="circumflex" unicode="&#x2c6;" horiz-adv-x="384" 
d="M224 603q26 -55 83 -96q7 -6 7 -9q0 -7 -14 -7q-11 0 -22 3t-18 5.5t-19 11.5t-15 11.5t-17.5 16.5t-16.5 15q-4 -3 -14.5 -13t-14.5 -13.5t-13.5 -11.5t-15 -11t-14.5 -7t-17.5 -5.5t-18.5 -1.5q-14 0 -14 7q0 3 7 9q57 41 83 96q7 15 17 23.5t15 8.5t15 -8.5t17 -23.5z
" />
    <glyph glyph-name="caron" unicode="&#x2c7;" horiz-adv-x="384" 
d="M224 523q-7 -15 -17 -23.5t-15 -8.5t-15 8.5t-17 23.5q-26 55 -83 96q-7 6 -7 9q0 7 14 7q11 0 22 -3t18 -5.5t19 -11.5t15 -11.5t17.5 -16.5t16.5 -15q4 3 14.5 13t14.5 13.5t13.5 11.5t15 11t14.5 7t17.5 5.5t18.5 1.5q14 0 14 -7q0 -3 -7 -9q-57 -41 -83 -96z" />
    <glyph glyph-name="uni02C9" unicode="&#x2c9;" horiz-adv-x="396" 
d="M70 577v49h256v-49h-256z" />
    <glyph glyph-name="breve" unicode="&#x2d8;" horiz-adv-x="384" 
d="M192 490q-34 0 -59.5 8.5t-38 21t-18.5 23t-6 16.5q0 10 15.5 25.5t26.5 15.5q5 0 13 -16t24.5 -32.5t42.5 -16.5t42.5 16.5t24.5 32.5t13 16q11 0 26.5 -15.5t15.5 -25.5q0 -6 -6 -16.5t-18.5 -23t-38 -21t-59.5 -8.5z" />
    <glyph glyph-name="dotaccent" unicode="&#x2d9;" horiz-adv-x="230" 
d="M70 536q0 19 13 32t32 13t32 -13t13 -32t-13 -32t-32 -13t-32 13t-13 32z" />
    <glyph glyph-name="ring" unicode="&#x2da;" horiz-adv-x="304" 
d="M70 569q0 32 24.5 55t57.5 23t57.5 -23t24.5 -55t-24.5 -55t-57.5 -23t-57.5 23t-24.5 55zM110 569q0 -16 12.5 -27.5t29.5 -11.5t29 11.5t12 27.5t-12 27t-29 11t-29.5 -11t-12.5 -27z" />
    <glyph glyph-name="ogonek" unicode="&#x2db;" horiz-adv-x="330" 
d="M208 -250q-39 0 -88.5 41.5t-49.5 87.5q0 21 9.5 42t20 32.5t26.5 27t20 19.5h46q-52 -65 -52 -121q0 -18 30 -35t60 -28.5t30 -14.5q0 -11 -18 -31t-34 -20z" />
    <glyph glyph-name="tilde" unicode="&#x2dc;" horiz-adv-x="396" 
d="M267 491q-33 0 -54.5 13.5t-40 27.5t-42.5 14q-18 0 -25 -8t-6.5 -17t-2 -17t-12.5 -8q-14 0 -14 42q0 18 16.5 37t44.5 19q37 0 59 -14t38 -27.5t40 -13.5q16 0 22.5 6.5t6.5 13.5t3.5 13.5t13.5 6.5q13 0 13 -42q0 -16 -16 -31t-44 -15z" />
    <glyph glyph-name="hungarumlaut" unicode="&#x2dd;" horiz-adv-x="467" 
d="M243 610q0 -44 -56 -78t-103 -34q-14 0 -14 7q0 6 7 9q32 14 55 34t34 37.5t18 33t10.5 24.5t7.5 9q12 0 26.5 -13t14.5 -29zM397 610q0 -44 -56 -78t-103 -34q-14 0 -14 7q0 6 7 9q32 14 55 34t34 37.5t18 33t10.5 24.5t7.5 9q12 0 26.5 -13t14.5 -29z" />
    <glyph glyph-name="uni0394" unicode="&#x394;" horiz-adv-x="707" 
d="M172 49h341l-163 517zM70 0l246 651q-2 4 -13.5 15t-11.5 14t9 7.5t23 8.5t27 4q25 0 27 -5l225 -627q5 -11 14 -23.5t15.5 -21t6.5 -10.5q0 -4 -19.5 -8.5t-39.5 -4.5h-509z" />
    <glyph glyph-name="uni03A9" unicode="&#x3a9;" horiz-adv-x="663" 
d="M330 653q-76 0 -125.5 -86t-49.5 -204q0 -140 36.5 -223t100.5 -83v-57h-222v57h99q-52 51 -75.5 134.5t-23.5 171.5q0 170 73 258.5t188 88.5q113 0 186 -88.5t73 -258.5q0 -88 -23.5 -171.5t-75.5 -134.5h99v-57h-222v57q64 0 100.5 83t36.5 223q0 118 -49.5 204
t-125.5 86z" />
    <glyph glyph-name="uni03BC" unicode="&#x3bc;" horiz-adv-x="584" 
d="M190 15v-265h-84v616q0 13 -18 33.5t-18 21.5q0 3 9 8t23.5 10t26.5 5q29 0 45 -25t16 -53v-149q0 -22 0.5 -35t3 -37t9 -39t17 -30.5t28.5 -23.5t42 -8q34 0 60 20.5t35 41.5l9 20v303q0 6 42 6t42 -6v-361q0 -13 18 -33.5t18 -21.5q0 -3 -9 -8t-23.5 -10t-26.5 -5
q-27 0 -44 24.5t-17 39.5q-1 -3 -3.5 -7t-11.5 -15t-20 -19.5t-29.5 -15.5t-40.5 -7q-58 0 -99 25z" />
    <glyph glyph-name="pi" unicode="&#x3c0;" horiz-adv-x="721" 
d="M206 377h-58q-13 -1 -33.5 -19t-21.5 -18q-4 0 -13.5 16t-9.5 28q0 22 25.5 34.5t52.5 12.5h503l-17 -54h-138v-169q0 -81 8.5 -123t32.5 -42q15 0 24.5 10.5t14.5 20.5t11 10q14 0 38 -8t24 -17q0 -8 -13.5 -23.5t-41 -30.5t-57.5 -15q-73 0 -97 46.5t-24 171.5v169
h-126v-309q0 -13 18 -33.5t18 -21.5q0 -3 -9 -8t-23.5 -10t-26.5 -5q-29 0 -45 25t-16 53v309z" />
    <glyph glyph-name="uni0401" unicode="&#x401;" 
d="M355 325h-165v-266h243q13 0 33.5 16t21.5 16q4 0 13.5 -18.5t9.5 -30.5q0 -22 -24.5 -32t-53.5 -10h-327v627q0 13 -18 32.5t-18 20.5q0 3 9 7.5t23 8.5t27 4h304q29 0 53.5 -10t24.5 -32q0 -12 -9.5 -30.5t-13.5 -18.5q-1 0 -21.5 16t-33.5 16h-243v-257h165
q13 0 38.5 3.5t26.5 3.5q13 0 13 -19q0 -29 -19.5 -38t-58.5 -9zM175 822q0 19 13 32t32 13t32 -13t13 -32t-13 -32t-32 -13t-32 13t-13 32zM315 822q0 19 13 32t32 13t32 -13t13 -32t-13 -32t-32 -13t-32 13t-13 32z" />
    <glyph glyph-name="uni0402" unicode="&#x402;" horiz-adv-x="763" 
d="M395 636v-236q4 5 12.5 12.5t38.5 19.5t64 12q95 0 139 -61t44 -165q0 -101 -62.5 -159.5t-188.5 -58.5q-6 0 -6 24q0 25 6 26q167 0 167 167q0 22 -0.5 35t-3 37t-9 39t-17 30.5t-28.5 23.5t-42 8q-34 0 -62.5 -15.5t-40.5 -30.5l-11 -16v-322q0 -6 -42 -6t-42 6v630
h-163q-13 -1 -33.5 -19t-21.5 -18q-4 0 -13.5 23.5t-9.5 35.5q0 22 24.5 32t53.5 10h477l-17 -64h-213z" />
    <glyph glyph-name="uni0403" unicode="&#x403;" 
d="M106 6v621q0 13 -18 32.5t-18 20.5q0 3 9 7.5t23 8.5t27 4h304q29 0 53.5 -10t24.5 -32q0 -12 -9.5 -31t-13.5 -19q-1 0 -21.5 18.5t-33.5 18.5h-243v-639q0 -6 -42 -6t-42 6zM378 872q0 -44 -56 -78t-103 -34q-14 0 -14 7q0 6 7 9q32 14 55 34t34 37.5t18 33t10.5 24.5
t7.5 9q12 0 26.5 -13t14.5 -29z" />
    <glyph glyph-name="uni0404" unicode="&#x404;" horiz-adv-x="712" 
d="M165 363h241q5 0 5 -32t-5 -32h-237q14 -114 71 -182.5t145 -68.5q51 0 92 17t60 37t34.5 37t22.5 17q17 0 31.5 -21t14.5 -37q0 -10 -6 -22t-24 -27.5t-45 -28t-74.5 -21.5t-107.5 -9q-84 0 -146 28.5t-97.5 80.5t-52.5 117.5t-17 146.5q0 91 29.5 161t77.5 109
t102.5 58t111.5 19q48 0 90.5 -7.5t71 -18.5t49.5 -24t30.5 -23.5t9.5 -17.5q0 -14 -29.5 -32.5t-48.5 -18.5q-7 0 -32 21t-67.5 42.5t-94.5 21.5q-205 0 -205 -290z" />
    <glyph glyph-name="uni0405" unicode="&#x405;" horiz-adv-x="638" 
d="M568 194q0 -56 -23.5 -97t-64 -63t-85.5 -32.5t-96 -10.5q-46 0 -86 9.5t-65.5 23.5t-43.5 30t-26 28t-8 18q0 17 19 33.5t35 16.5q6 0 22.5 -17t36.5 -37.5t54.5 -37.5t72.5 -17q63 0 113.5 36t50.5 102q0 45 -41 77t-99.5 51.5t-117 40t-99.5 58t-41 91.5
q0 59 21.5 102.5t58.5 66.5t77 33.5t85 10.5q46 0 88 -9.5t70.5 -23.5t50 -30t31.5 -28.5t10 -18.5q0 -16 -22 -38.5t-38 -22.5q-6 0 -21.5 18.5t-35 40t-57.5 40t-83 18.5q-63 0 -102.5 -47.5t-39.5 -106.5q0 -41 41 -70.5t100 -49t117.5 -40.5t99.5 -58.5t41 -89.5z" />
    <glyph glyph-name="uni0406" unicode="&#x406;" horiz-adv-x="287" 
d="M106 78v554q0 13 -18 33.5t-18 21.5q0 3 7.5 8t21 10t25.5 5h37q13 0 26.5 -5t21 -10t7.5 -8q0 -1 -18 -21.5t-18 -33.5v-554q0 -13 18 -33.5t18 -21.5q0 -3 -7.5 -8t-21 -10t-26.5 -5h-37q-12 0 -25.5 5t-21 10t-7.5 8q0 1 18 21.5t18 33.5z" />
    <glyph glyph-name="uni0407" unicode="&#x407;" horiz-adv-x="372" 
d="M148 78q0 -13 -18 -33.5t-18 -21.5q0 -3 7.5 -8t21 -10t25.5 -5h37q13 0 26.5 5t21 10t7.5 8q0 1 -18 21.5t-18 33.5v554q0 13 18 33.5t18 21.5q0 3 -7.5 8t-21 10t-26.5 5h-37q-12 0 -25.5 -5t-21 -10t-7.5 -8q0 -1 18 -21.5t18 -33.5v-554zM70 822q0 19 13 32t32 13
t32 -13t13 -32t-13 -32t-32 -13t-32 13t-13 32zM210 822q0 19 13 32t32 13t32 -13t13 -32t-13 -32t-32 -13t-32 13t-13 32z" />
    <glyph glyph-name="uni0408" unicode="&#x408;" horiz-adv-x="477" 
d="M328 209v414q0 13 -18 33.5t-18 21.5q0 3 9 8t23.5 10t26.5 5q28 0 42.5 -25t14.5 -53v-414q0 -113 -47.5 -166t-119.5 -53q-48 0 -90 15t-61.5 31t-19.5 24q0 9 25 27t37 18q5 0 23.5 -15t45.5 -30.5t53 -15.5q18 0 31 5t21 17.5t12.5 24t6.5 34t2.5 38.5t0.5 46z" />
    <glyph glyph-name="uni0409" unicode="&#x409;" horiz-adv-x="1067" 
d="M595 6v639h-279v-214q0 -107 -8 -185t-27 -137.5t-52 -89t-81 -29.5q-27 0 -52.5 12.5t-25.5 34.5q0 12 9.5 28t13.5 16q2 0 12 -6.5t25.5 -13.5t30.5 -7q17 0 33.5 44t28.5 133t12 200v196q0 13 -18 32.5t-18 20.5q0 3 9 7.5t23 8.5t27 4h421v-325l83 -1q58 0 105 -18
t74 -46t41.5 -58.5t14.5 -59.5q0 -94 -71.5 -143t-191.5 -49h-97q-42 0 -42 6zM762 326h-83v-276h54q82 0 131 34t49 109q0 63 -43.5 98t-107.5 35z" />
    <glyph glyph-name="uni040A" unicode="&#x40a;" horiz-adv-x="1018" 
d="M631 694v-319l83 -1q58 0 105 -18t74 -46t41.5 -58.5t14.5 -59.5q0 -94 -71.5 -143t-191.5 -49h-97q-42 0 -42 6v314h-357v-314q0 -6 -42 -6t-42 6v626q0 13 -18 33.5t-18 21.5q0 3 7.5 8t21 10t25.5 5q29 0 47.5 -25.5t18.5 -52.5v-253h357v315q0 6 42 6t42 -6zM714 326
h-83v-276h54q82 0 131 34t49 109q0 63 -43.5 98t-107.5 35z" />
    <glyph glyph-name="uni040B" unicode="&#x40b;" horiz-adv-x="799" 
d="M395 636v-236q4 5 12.5 12.5t38.5 19.5t64 12q95 0 139 -61t44 -165v-150q0 -13 18 -33.5t18 -21.5q0 -3 -9 -8t-23.5 -10t-26.5 -5q-29 0 -45 25t-16 53v149q0 22 -0.5 35t-3 37t-9 39t-17 30.5t-28.5 23.5t-42 8q-34 0 -62.5 -15.5t-40.5 -30.5l-11 -16v-322
q0 -6 -42 -6t-42 6v630h-163q-13 -1 -33.5 -19t-21.5 -18q-4 0 -13.5 23.5t-9.5 35.5q0 22 24.5 32t53.5 10h477l-17 -64h-213z" />
    <glyph glyph-name="uni040C" unicode="&#x40c;" horiz-adv-x="649" 
d="M106 632v-626q0 -6 37 -6q42 0 42 6v277q57 0 103 -16.5t75 -43t50 -56.5t31 -62.5t14.5 -54.5t4.5 -37q0 -13 61 -13q55 0 55 8q0 3 -1 5q-4 13 -11 34.5t-34 76t-59 96.5t-85.5 76.5t-113.5 34.5l273 356q1 2 1 5q0 8 -55 8q-49 0 -61 -13l-223 -356h-25v301
q0 28 -16 53t-45 25q-12 0 -25.5 -5t-21 -10t-7.5 -8q0 -1 18 -21.5t18 -33.5zM378 872q0 -44 -56 -78t-103 -34q-14 0 -14 7q0 6 7 9q32 14 55 34t34 37.5t18 33t10.5 24.5t7.5 9q12 0 26.5 -13t14.5 -29z" />
    <glyph glyph-name="uni040E" unicode="&#x40e;" horiz-adv-x="703" 
d="M551 694q2 6 31 6q53 0 53 -6q-28 -44 -71.5 -138.5t-85 -186t-88 -181t-95 -144.5t-91.5 -55q-30 0 -55.5 14.5t-25.5 27.5q0 19 5 32.5t10 18.5t8 5l20 -13q20 -14 36 -14q25 0 64 49.5t39 65.5l-199 457q-5 11 -14 23.5t-15.5 21t-6.5 10.5q0 3 9 8t23.5 10t26.5 5
q14 0 29 -19.5t24 -38.5l8 -20l161 -379zM351 759q-34 0 -59.5 8.5t-38 21t-18.5 23t-6 16.5q0 10 15.5 25.5t26.5 15.5q5 0 13 -16.5t24.5 -32.5t42.5 -16t42.5 16t24.5 32.5t13 16.5q11 0 26.5 -15.5t15.5 -25.5q0 -6 -6 -16.5t-18.5 -23t-38 -21t-59.5 -8.5z" />
    <glyph glyph-name="uni040F" unicode="&#x40f;" horiz-adv-x="727" 
d="M598 0h-211q0 -13 13 -33.5t13 -21.5q0 -3 -7.5 -8t-21 -10t-25.5 -5q-46 0 -46 78h-217v632q0 13 -13 33.5t-13 21.5q0 3 7.5 8t21 10t25.5 5q28 0 42 -24.5t14 -53.5v-577h357v639q0 6 42 6t42 -6v-621q0 -13 18 -32.5t18 -20.5q0 -3 -9 -7.5t-23 -8.5t-27 -4z" />
    <glyph glyph-name="uni0410" unicode="&#x410;" horiz-adv-x="706" 
d="M239 250h209l-100 316zM70 6l244 645q-2 4 -13.5 15t-11.5 14t9 7.5t23 8.5t27 4q25 0 27 -5l225 -627q5 -11 14 -23.5t15.5 -21t6.5 -10.5q0 -3 -9 -8t-23.5 -10t-26.5 -5q-19 0 -37 19.5t-26 38.5l-8 20l-42 133h-242l-67 -195q-2 -6 -38 -6q-47 0 -47 6z" />
    <glyph glyph-name="uni0411" unicode="&#x411;" horiz-adv-x="578" 
d="M273 326h-83v-276h54q82 0 131 34t49 109q0 63 -43.5 98t-107.5 35zM106 6v621q0 13 -18 32.5t-18 20.5q0 3 9 7.5t23 8.5t27 4h294q29 0 53.5 -10t24.5 -32q0 -12 -9.5 -31t-13.5 -19q-1 0 -21.5 18.5t-33.5 18.5h-233v-270l83 -1q58 0 105 -18t74 -46t41.5 -58.5
t14.5 -59.5q0 -94 -71.5 -143t-191.5 -49h-97q-42 0 -42 6z" />
    <glyph glyph-name="uni0412" unicode="&#x412;" horiz-adv-x="618" 
d="M190 320v-265q0 -15 67 -15q207 0 207 137q0 143 -170 143h-104zM392 359q71 -21 113.5 -67.5t42.5 -113.5q0 -43 -12.5 -75.5t-36.5 -52.5t-49.5 -32.5t-62.5 -18.5t-64.5 -7.5t-65.5 -1.5q-41 0 -76.5 2.5t-55 5.5t-19.5 7v622q0 13 -18 32.5t-18 20.5q0 3 9 7.5
t23 8.5t27 4h116q119 0 186 -48.5t67 -143.5q0 -100 -106 -149zM273 374q71 10 106 40t35 93q0 143 -170 143h-54v-276h83z" />
    <glyph glyph-name="uni0413" unicode="&#x413;" 
d="M106 6v621q0 13 -18 32.5t-18 20.5q0 3 9 7.5t23 8.5t27 4h304q29 0 53.5 -10t24.5 -32q0 -12 -9.5 -31t-13.5 -19q-1 0 -21.5 18.5t-33.5 18.5h-243v-639q0 -6 -42 -6t-42 6z" />
    <glyph glyph-name="uni0414" unicode="&#x414;" horiz-adv-x="748" 
d="M547 0h-346q-18 0 -40 -24.5t-38.5 -49t-22.5 -24.5q-10 0 -20 36.5t-10 60.5q0 6 12.5 25t27.5 31q128 97 128 572q0 13 -18 32.5t-18 20.5q0 3 9 7.5t23 8.5t27 4h371v-627q0 -13 23 -42.5t23 -31.5q0 -24 -10 -60.5t-20 -36.5q-6 0 -22.5 24.5t-38.5 49t-40 24.5z
M211 55h337v590h-229q0 -126 -11 -233t-27 -170t-32 -108t-27 -62z" />
    <glyph glyph-name="uni0415" unicode="&#x415;" 
d="M355 310h-165v-246h243q13 0 33.5 18.5t21.5 18.5q4 0 13.5 -23.5t9.5 -35.5q0 -22 -24.5 -32t-53.5 -10h-327v627q0 13 -18 32.5t-18 20.5q0 3 9 7.5t23 8.5t27 4h304q29 0 53.5 -10t24.5 -32q0 -12 -9.5 -35.5t-13.5 -23.5q-1 0 -21.5 18.5t-33.5 18.5h-243v-262h165
q13 0 38.5 3.5t26.5 3.5q13 0 13 -19q0 -52 -78 -52z" />
    <glyph glyph-name="uni0416" unicode="&#x416;" horiz-adv-x="1007" 
d="M439 331h25v301q0 13 -18 33.5t-18 21.5q0 3 7.5 8t21 10t25.5 5h43q12 0 25.5 -5t21 -10t7.5 -8q0 -1 -18 -21.5t-18 -33.5v-301h25l223 356q12 13 61 13q55 0 55 -8q0 -3 -1 -5l-273 -356q60 0 113 -33t86 -79.5t58 -93t36 -79.5l10 -33q1 -2 1 -5q0 -8 -55 -8
q-61 0 -61 13q0 15 -4.5 37t-14.5 54.5t-31 62.5t-50 56.5t-75 43t-103 16.5v-277q0 -6 -42 -6q-37 0 -37 6v277q-57 0 -103 -16.5t-75 -43t-50 -56.5t-31 -62.5t-14.5 -54.5t-4.5 -37q0 -13 -61 -13q-55 0 -55 8q0 3 1 5q4 13 11 34.5t34 76t59 96.5t85.5 76.5t113.5 34.5
l-273 356q-1 2 -1 5q0 8 55 8q49 0 61 -13z" />
    <glyph glyph-name="uni0417" unicode="&#x417;" horiz-adv-x="565" 
d="M260 51q61 0 106 36t45 106q0 47 -31 84t-86 37q-25 0 -43.5 11t-18.5 29q0 37 7 37q62 0 109.5 45t47.5 97q0 44 -36 80t-89 36q-33 0 -59.5 -14.5t-39 -32.5t-22 -32.5t-12.5 -14.5q-10 0 -31 18t-21 28q0 5 4.5 16t18 27.5t34 30.5t58 24.5t84.5 10.5q79 0 134.5 -52
t55.5 -117q0 -42 -15 -76t-38 -54t-40 -30.5t-32 -15.5q44 0 94.5 -48.5t50.5 -123.5q0 -87 -61.5 -145t-174.5 -58q-42 0 -76.5 10.5t-54.5 24.5t-34 30.5t-19 27.5t-5 16q0 10 21 28t31 18q5 0 14.5 -14.5t21.5 -32.5t39 -32.5t63 -14.5z" />
    <glyph glyph-name="uni0418" unicode="&#x418;" horiz-adv-x="737" 
d="M631 694v-616q0 -13 18 -33.5t18 -21.5q0 -3 -9 -8t-23.5 -10t-26.5 -5q-51 0 -51 6v576l-363 -576q-4 -6 -48 -6q-40 0 -40 6v616q0 13 -18 33.5t-18 21.5q0 3 9 8t23.5 10t26.5 5q51 0 51 -6v-581l364 581q3 6 39 6q48 0 48 -6z" />
    <glyph glyph-name="uni0419" unicode="&#x419;" horiz-adv-x="737" 
d="M631 78v616q0 6 -48 6q-36 0 -39 -6l-364 -581v581q0 6 -51 6q-12 0 -26.5 -5t-23.5 -10t-9 -8q0 -1 18 -21.5t18 -33.5v-616q0 -6 40 -6q44 0 48 6l363 576v-576q0 -6 51 -6q12 0 26.5 5t23.5 10t9 8q0 1 -18 21.5t-18 33.5zM351 750q-34 0 -59.5 8.5t-38 21t-18.5 23
t-6 16.5q0 10 15.5 25.5t26.5 15.5q5 0 13 -16t24.5 -32.5t42.5 -16.5t42.5 16.5t24.5 32.5t13 16q11 0 26.5 -15.5t15.5 -25.5q0 -6 -6 -16.5t-18.5 -23t-38 -21t-59.5 -8.5z" />
    <glyph glyph-name="uni041A" unicode="&#x41a;" horiz-adv-x="649" 
d="M106 632q0 13 -18 33.5t-18 21.5q0 3 7.5 8t21 10t25.5 5q29 0 45 -25t16 -53v-301h25l223 356q12 13 61 13q55 0 55 -8q0 -3 -1 -5l-273 -356q60 0 113 -33t86 -79.5t58 -93t36 -79.5l10 -33q1 -2 1 -5q0 -8 -55 -8q-61 0 -61 13q0 15 -4.5 37t-14.5 54.5t-31 62.5
t-50 56.5t-75 43t-103 16.5v-277q0 -6 -42 -6q-37 0 -37 6v626z" />
    <glyph glyph-name="uni041B" unicode="&#x41b;" horiz-adv-x="775" 
d="M316 645v-214q0 -107 -8 -185t-27 -137.5t-52 -89t-81 -29.5q-27 0 -52.5 12.5t-25.5 34.5q0 12 9.5 28t13.5 16q2 0 12 -6.5t25.5 -13.5t30.5 -7q17 0 33.5 44t28.5 133t12 200v196q0 13 -18 32.5t-18 20.5q0 3 9 7.5t23 8.5t27 4h421v-632q0 -13 13 -33.5t13 -21.5
q0 -3 -7.5 -8t-21 -10t-25.5 -5q-28 0 -42 24.5t-14 53.5v577h-279z" />
    <glyph glyph-name="uni041C" unicode="&#x41c;" horiz-adv-x="866" 
d="M150 608q1 7 -19.5 38.5t-20.5 33.5q0 3 8.5 7.5t23 8.5t27.5 4l13 -1l237 -532l237 532q4 1 13 1l6 -1l85 -631q4 -18 13 -31.5t16 -19t7 -7.5q0 -4 -19 -7t-40 -3q-54 0 -60 60l-40 420l-212 -480q-2 -1 -6 -1l-6 1l-212 480l-47 -474q0 -6 -42 -6t-42 6z" />
    <glyph glyph-name="uni041D" unicode="&#x41d;" horiz-adv-x="737" 
d="M190 379h357v315q0 6 42 6t42 -6v-626q0 -13 18 -33.5t18 -21.5q0 -3 -7.5 -8t-21 -10t-25.5 -5q-29 0 -47.5 25.5t-18.5 52.5v252h-357v-314q0 -6 -42 -6t-42 6v626q0 13 -18 33.5t-18 21.5q0 3 7.5 8t21 10t25.5 5q29 0 47.5 -25.5t18.5 -52.5v-253z" />
    <glyph glyph-name="uni041E" unicode="&#x41e;" horiz-adv-x="774" 
d="M404 47q110 0 162.5 78t52.5 212q0 136 -73 226t-176 90q-110 0 -162.5 -78t-52.5 -212q0 -136 73 -226t176 -90zM383 -10q-84 0 -146 28.5t-97.5 80.5t-52.5 117.5t-17 146.5q0 91 29.5 161t77.5 109t102.5 58t111.5 19q84 0 146 -28.5t97.5 -80.5t52.5 -117.5
t17 -146.5q0 -91 -29.5 -161t-77.5 -109t-102.5 -58t-111.5 -19z" />
    <glyph glyph-name="uni041F" unicode="&#x41f;" horiz-adv-x="727" 
d="M547 645h-357v-639q0 -6 -42 -6t-42 6v621q0 13 -18 32.5t-18 20.5q0 3 9 7.5t23 8.5t27 4h502v-632q0 -13 13 -33.5t13 -21.5q0 -3 -7.5 -8t-21 -10t-25.5 -5q-28 0 -42 24.5t-14 53.5v577z" />
    <glyph glyph-name="uni0420" unicode="&#x420;" horiz-adv-x="578" 
d="M273 374q64 0 107.5 35t43.5 98q0 75 -49 109t-131 34h-54v-276h83zM106 5v622q0 13 -18 32.5t-18 20.5q0 3 9 7.5t23 8.5t27 4h116q120 0 191.5 -49t71.5 -143q0 -29 -14.5 -59.5t-41.5 -58.5t-74 -46t-105 -18l-83 -1v-320q0 -6 -42 -6t-42 6z" />
    <glyph glyph-name="uni0421" unicode="&#x421;" horiz-adv-x="712" 
d="M70 363q0 91 29.5 161t77.5 109t102.5 58t111.5 19q48 0 90.5 -7.5t71 -18.5t49.5 -24t30.5 -23.5t9.5 -17.5q0 -14 -29.5 -32.5t-48.5 -18.5q-7 0 -32 21t-67.5 42.5t-94.5 21.5q-205 0 -205 -290q0 -140 60 -227.5t160 -87.5q51 0 92 17t60 37t34.5 37t22.5 17
q17 0 31.5 -21t14.5 -37q0 -10 -6 -22t-24 -27.5t-45 -28t-74.5 -21.5t-107.5 -9q-84 0 -146 28.5t-97.5 80.5t-52.5 117.5t-17 146.5z" />
    <glyph glyph-name="uni0422" unicode="&#x422;" horiz-adv-x="695" 
d="M395 636v-630q0 -6 -42 -6t-42 6v630h-163q-13 -1 -33.5 -19t-21.5 -18q-4 0 -13.5 23.5t-9.5 35.5q0 22 24.5 32t53.5 10h477l-17 -64h-213z" />
    <glyph glyph-name="uni0423" unicode="&#x423;" horiz-adv-x="705" 
d="M551 694q2 6 31 6q53 0 53 -6q-28 -44 -71.5 -138.5t-85 -186t-88 -181t-95 -144.5t-91.5 -55q-30 0 -55.5 14.5t-25.5 27.5q0 19 5 32.5t10 18.5t8 5l20 -13q20 -14 36 -14q25 0 64 49.5t39 65.5l-199 457q-5 11 -14 23.5t-15.5 21t-6.5 10.5q0 3 9 8t23.5 10t26.5 5
q14 0 29 -19.5t24 -38.5l8 -20l161 -379z" />
    <glyph glyph-name="uni0424" unicode="&#x424;" horiz-adv-x="774" 
d="M420 563v-431q199 8 199 208q0 91 -55 148.5t-144 74.5zM346 567q-100 -7 -145.5 -58.5t-45.5 -148.5q0 -89 52.5 -145t138.5 -76v428zM346 68v20q-276 18 -276 272q0 52 16 93.5t42.5 68.5t63.5 46t74 28.5t80 14.5v20q0 13 -18 35l-18 21q0 3 7.5 8t21 10t25.5 5
q26 0 41 -23t15 -55v-20q150 -8 217 -78t67 -194q0 -66 -24.5 -114.5t-67.5 -76t-89.5 -41.5t-102.5 -19v-20q1 -13 18.5 -34t17.5 -22q0 -3 -7.5 -8t-21 -10t-25.5 -5q-26 0 -41 22.5t-15 55.5z" />
    <glyph glyph-name="uni0425" unicode="&#x425;" horiz-adv-x="699" 
d="M479 68l-135 213l-191 -275q-4 -6 -45 -6q-38 0 -38 6l233 340l-151 240q-5 9 -25.5 33t-38.5 45t-18 23q0 3 11.5 8.5t28.5 10t29 4.5q26 0 215 -290l185 271q6 9 41 9q32 0 40.5 -1.5t8.5 -7.5l-234 -337l152 -240q6 -10 26.5 -34t38 -44.5t17.5 -22.5q0 -3 -11.5 -8.5
t-28.5 -10t-29 -4.5q-15 0 -35.5 19.5t-32.5 38.5z" />
    <glyph glyph-name="uni0426" unicode="&#x426;" horiz-adv-x="737" 
d="M621 694v-621q0 -13 23 -42.5t23 -31.5q0 -23 -10 -60t-20 -37q-4 0 -22 24.5t-39.5 49t-36.5 24.5h-443v632q0 13 -13 33.5t-13 21.5q0 3 7.5 8t21 10t25.5 5q28 0 42 -24.5t14 -53.5v-577h357v639q0 6 42 6t42 -6z" />
    <glyph glyph-name="uni0427" unicode="&#x427;" horiz-adv-x="584" 
d="M190 632v-154q0 -22 0.5 -35t3 -37t9 -39t17 -30.5t28.5 -23.5t42 -8q34 0 61 15.5t37 31.5l10 15v327q0 6 38 6q42 0 42 -6v-626q0 -13 18 -33.5t18 -21.5q0 -3 -9 -8t-23.5 -10t-26.5 -5q-28 0 -42.5 25t-14.5 53v227q-4 -5 -11 -12.5t-35.5 -19.5t-62.5 -12
q-95 0 -139 61t-44 165v155q0 13 -18 33.5t-18 21.5q0 3 9 8t23.5 10t26.5 5q29 0 45 -25t16 -53z" />
    <glyph glyph-name="uni0428" unicode="&#x428;" horiz-adv-x="1000" 
d="M894 694v-621q0 -13 18 -37.5t18 -25.5q0 -4 -19 -7t-40 -3h-775v632q0 13 -13 33.5t-13 21.5q0 3 7.5 8t21 10t25.5 5q28 0 42 -24.5t14 -53.5v-577h273v639q0 6 42 6t42 -6v-639h273v639q0 6 42 6t42 -6z" />
    <glyph glyph-name="uni0429" unicode="&#x429;" horiz-adv-x="1010" 
d="M537 694v-639h273v639q0 6 42 6t42 -6v-621q0 -13 23 -42.5t23 -31.5q0 -24 -10 -60.5t-20 -36.5q-6 0 -22.5 24.5t-38.5 49t-40 24.5h-713v632q0 13 -13 33.5t-13 21.5q0 3 7.5 8t21 10t25.5 5q28 0 42 -24.5t14 -53.5v-577h273v639q0 6 42 6t42 -6z" />
    <glyph glyph-name="uni042A" unicode="&#x42a;" horiz-adv-x="721" 
d="M403 326h-3h-3h-3h-3h-4h-3h-3h-3h-3h-3h-3h-3h-4h-3h-3h-3h-3h-3h-3h-3h-3h-8v-276h44q82 0 131 34t49 109q0 63 -43.5 98t-107.5 35zM272 700q61 0 61 -6v-319l83 -1q58 0 105 -18t74 -46t41.5 -58.5t14.5 -59.5q0 -94 -71.5 -143t-191.5 -49h-97q-42 0 -42 6v639h-101
q-13 0 -33.5 -18.5t-21.5 -18.5q-4 0 -13.5 19t-9.5 31q0 22 24.5 32t53.5 10h124z" />
    <glyph glyph-name="uni042B" unicode="&#x42b;" horiz-adv-x="756" 
d="M273 326h-83v-276h54q82 0 131 34t49 109q0 63 -43.5 98t-107.5 35zM106 6v621q0 13 -18 32.5t-18 20.5q0 3 9 7.5t23 8.5t27 4q61 0 61 -6v-319l83 -1q58 0 105 -18t74 -46t41.5 -58.5t14.5 -59.5q0 -94 -71.5 -143t-191.5 -49h-97q-42 0 -42 6zM576 78v554
q0 13 -18 33.5t-18 21.5q0 3 7.5 8t21 10t25.5 5h37q13 0 26.5 -5t21 -10t7.5 -8q0 -1 -18 -21.5t-18 -33.5v-554q0 -13 18 -33.5t18 -21.5q0 -3 -7.5 -8t-21 -10t-26.5 -5h-37q-12 0 -25.5 5t-21 10t-7.5 8q0 1 18 21.5t18 33.5z" />
    <glyph glyph-name="uni042C" unicode="&#x42c;" horiz-adv-x="578" 
d="M273 326h-83v-276h54q82 0 131 34t49 109q0 63 -43.5 98t-107.5 35zM106 6v621q0 13 -18 32.5t-18 20.5q0 3 9 7.5t23 8.5t27 4q61 0 61 -6v-319l83 -1q58 0 105 -18t74 -46t41.5 -58.5t14.5 -59.5q0 -94 -71.5 -143t-191.5 -49h-97q-42 0 -42 6z" />
    <glyph glyph-name="uni042D" unicode="&#x42d;" horiz-adv-x="712" 
d="M306 363h241q0 290 -205 290q-52 0 -94.5 -21.5t-67.5 -42.5t-32 -21q-19 0 -48.5 18.5t-29.5 32.5q0 7 9.5 17.5t30.5 23.5t49.5 24t71 18.5t90.5 7.5q57 0 111.5 -19t102.5 -58t77.5 -109t29.5 -161q0 -81 -17 -146.5t-52.5 -117.5t-97.5 -80.5t-146 -28.5
q-60 0 -107.5 9t-74.5 21.5t-45 28t-24 27.5t-6 22q0 16 14.5 37t31.5 21q7 0 22.5 -17t34.5 -37t60 -37t92 -17q88 0 145 68.5t71 182.5h-237q-5 0 -5 32t5 32z" />
    <glyph glyph-name="uni042E" unicode="&#x42e;" horiz-adv-x="1059" 
d="M190 379h165q3 87 33 154t78 104t101 55t109 18q84 0 146 -28.5t97.5 -80.5t52.5 -117.5t17 -146.5q0 -91 -29.5 -161t-77.5 -109t-102.5 -58t-111.5 -19q-153 0 -228 89.5t-84 240.5h-166v-314q0 -6 -42 -6t-42 6v626q0 13 -18 33.5t-18 21.5q0 3 7.5 8t21 10t25.5 5
q29 0 47.5 -25.5t18.5 -52.5v-253zM689 47q110 0 162.5 78t52.5 212q0 136 -73 226t-176 90q-110 0 -162.5 -78t-52.5 -212q0 -136 73 -226t176 -90z" />
    <glyph glyph-name="uni042F" unicode="&#x42f;" horiz-adv-x="687" 
d="M414 374h83v276h-54q-170 0 -170 -143q0 -64 39 -98.5t102 -34.5zM463 325q-34 -67 -78.5 -135.5t-105 -129t-104.5 -60.5q-73 0 -89 1t-16 5q0 8 5.5 16t10.5 8q74 0 162.5 99.5t134.5 198.5q-51 2 -91 22t-61 48.5t-31.5 56.5t-10.5 53q0 95 67 143.5t186 48.5h116
q13 0 27 -4t23 -8.5t9 -7.5q0 -1 -18 -20.5t-18 -32.5v-622q0 -6 -42 -6t-42 6v320h-34z" />
    <glyph glyph-name="uni0430" unicode="&#x430;" horiz-adv-x="499" 
d="M319 250v56q0 30 -19 58t-55 28q-30 0 -55 -10t-40 -24t-25 -27.5t-15.5 -23.5t-6.5 -10q-3 0 -8.5 11.5t-10 28.5t-4.5 29q67 75 175 75q37 0 63.5 -8t40.5 -19.5t22 -31t10 -36t2 -40.5v-239q0 -12 18 -32.5t18 -21.5q0 -6 -17 -14.5t-32 -8.5q-17 0 -33 8t-23 16l-8 8
q-1 -4 -5 -9t-27 -14t-59 -9q-65 0 -110 34.5t-45 92.5q0 33 16 55t45.5 34t58 18.5t68.5 13t61 12.5zM319 85l1 120q-23 -6 -53 -11.5t-46.5 -9.5t-33.5 -11t-24.5 -20.5t-7.5 -35.5q0 -32 15.5 -49t33 -20.5t45.5 -3.5q17 0 30.5 4t20.5 10.5t11.5 12.5t6.5 10z" />
    <glyph glyph-name="uni0431" unicode="&#x431;" horiz-adv-x="539" 
d="M106 358q17 32 61 59t105 27q103 0 150 -64.5t47 -170.5q0 -58 -18.5 -102t-49 -68.5t-64.5 -36.5t-70 -12q-103 0 -150 64.5t-47 170.5q0 96 14 173.5t34 125t50 82.5t54.5 51.5t56.5 25.5t46 10t32 1h8q13 0 33.5 18t21.5 18q3 0 8 -7.5t10 -21t5 -25.5
q0 -28 -24.5 -42t-53.5 -14q-76 0 -134 -42t-86.5 -98.5t-38.5 -121.5zM265 390q-61 0 -85.5 -43t-24.5 -122q0 -78 33 -129.5t86 -51.5q61 0 85.5 43t24.5 122q0 78 -33 129.5t-86 51.5z" />
    <glyph glyph-name="uni0432" unicode="&#x432;" horiz-adv-x="481" 
d="M181 187v-144q27 -6 65 -6q39 0 66.5 16.5t27.5 52.5q0 81 -91 81h-68zM181 237h55q72 0 72 74q0 23 -6.5 39t-18 22.5t-22.5 9t-25 2.5h-55v-147zM129 431h94q74 0 115.5 -30t41.5 -89q0 -62 -66 -92q43 -7 70 -38.5t27 -74.5q0 -32 -12 -54.5t-29 -34.5t-44 -18.5
t-47 -8t-49 -1.5q-41 0 -82.5 3t-41.5 6v359q0 13 -18 32.5t-18 20.5q0 3 9 7.5t23 8.5t27 4z" />
    <glyph glyph-name="uni0433" unicode="&#x433;" horiz-adv-x="502" 
d="M129 431h225q29 0 53.5 -10t24.5 -32q0 -12 -9 -26t-14 -14q-1 0 -21.5 18.5t-33.5 18.5h-174v-380q0 -6 -32 -6q-42 0 -42 6v362q0 13 -18 27.5t-18 15.5q0 3 9 7.5t23 8.5t27 4z" />
    <glyph glyph-name="uni0434" unicode="&#x434;" horiz-adv-x="640" 
d="M238 368q0 13 -18 27.5t-18 15.5q0 3 9 7.5t23 8.5t27 4h263v-358q0 -13 23 -42.5t23 -31.5q0 -23 -10 -60t-20 -37q-4 0 -22 24.5t-39.5 49t-36.5 24.5h-244q-15 0 -36.5 -24.5t-39.5 -49t-22 -24.5q-10 0 -20 37t-10 60q0 8 17.5 22t42 38t49 59.5t42 100.5t17.5 149z
M204 45h246v341h-138q0 -69 -11 -129.5t-27 -97.5t-32 -64t-27 -39z" />
    <glyph glyph-name="uni0435" unicode="&#x435;" horiz-adv-x="525" 
d="M150 249h226q0 23 -0.5 36t-6.5 36t-16 35.5t-31.5 23t-52.5 10.5q-54 0 -86.5 -38.5t-32.5 -102.5zM384 202h-234q0 -60 33.5 -111t84.5 -51q30 0 55 12.5t38 27.5t24 27.5t15 12.5q10 0 26 -20t16 -29q0 -6 -5 -15t-18 -21t-32 -21.5t-50.5 -16.5t-69.5 -7
q-103 0 -150 64.5t-47 170.5q0 58 18.5 101.5t49 67.5t64.5 35.5t70 11.5q82 0 132.5 -50t50.5 -141q0 -36 -9 -42t-62 -6z" />
    <glyph glyph-name="uni0436" unicode="&#x436;" horiz-adv-x="741" 
d="M348 441h45q12 0 24.5 -5t19 -10t6.5 -8q0 -1 -18 -21.5t-18 -33.5v-164h14l144 219q12 13 46 13q40 0 40 -8q0 -3 -44 -59t-88 -110l-44 -55q39 0 73 -19t55.5 -45t37.5 -54.5t23 -46.5t7 -21q0 -9 -7.5 -11t-29.5 -2q-33 0 -48 13q-1 6 -3 16.5t-14 37t-29.5 46.5
t-52.5 36.5t-80 16.5v-160q0 -6 -38 -6q-35 0 -35 6v160q-45 0 -80 -16t-53 -38t-29 -44.5t-14 -38.5l-3 -16q-15 -13 -48 -13h-17t-10.5 1.5t-7.5 4t-2 7.5q0 3 7 21t23 46.5t37.5 54.5t55.5 45t73 19q-176 218 -176 224q0 8 40 8q34 0 46 -13l144 -219h14v164
q0 13 -18 33.5t-18 21.5q0 3 6.5 8t19 10t24.5 5z" />
    <glyph glyph-name="uni0437" unicode="&#x437;" horiz-adv-x="421" 
d="M197 37q92 0 92 77q0 27 -28 48.5t-64 21.5q-14 0 -26 9t-12 20q0 28 5 28q40 0 78 25.5t38 56.5q0 26 -22 43.5t-55 17.5q-26 0 -46.5 -14.5t-31.5 -29t-13 -14.5q-6 0 -19 16t-13 23q0 3 2.5 9.5t11 17t21 19t35.5 15t52 6.5q56 0 96 -26t40 -78q0 -18 -4 -33
t-11.5 -25.5t-14.5 -18t-18.5 -13.5t-18 -8.5t-17.5 -6t-12 -3.5q13 0 29.5 -5t35.5 -16t31.5 -33t12.5 -52q0 -62 -44.5 -93t-120.5 -31q-41 0 -69.5 16t-37.5 30t-9 21q0 6 13 22t19 16q3 0 10.5 -9t16.5 -20t27.5 -20t40.5 -9z" />
    <glyph glyph-name="uni0438" unicode="&#x438;" horiz-adv-x="537" 
d="M431 425v-347q0 -13 18 -33.5t18 -21.5q0 -3 -7.5 -8t-21 -10t-25.5 -5q-46 0 -46 6v317l-183 -317q-4 -6 -43 -6q-35 0 -35 6v347q0 13 -18 33.5t-18 21.5q0 3 9 8t23.5 10t26.5 5q41 0 41 -6v-322l184 322q3 6 34 6q43 0 43 -6z" />
    <glyph glyph-name="uni0439" unicode="&#x439;" horiz-adv-x="537" 
d="M431 78v347q0 6 -43 6q-31 0 -34 -6l-184 -322v322q0 6 -41 6q-12 0 -26.5 -5t-23.5 -10t-9 -8q0 -1 18 -21.5t18 -33.5v-347q0 -6 35 -6q39 0 43 6l183 317v-317q0 -6 46 -6q12 0 25.5 5t21 10t7.5 8q0 1 -18 21.5t-18 33.5zM256 490q-34 0 -59.5 8.5t-38 21t-18.5 23
t-6 16.5q0 10 15.5 25.5t26.5 15.5q5 0 13 -16t24.5 -32.5t42.5 -16.5t42.5 16.5t24.5 32.5t13 16q11 0 26.5 -15.5t15.5 -25.5q0 -6 -6 -16.5t-18.5 -23t-38 -21t-59.5 -8.5z" />
    <glyph glyph-name="uni043A" unicode="&#x43a;" horiz-adv-x="513" 
d="M247 199q39 0 73 -19t55.5 -45t37.5 -54.5t23 -46.5t7 -21q0 -9 -7.5 -11t-29.5 -2q-33 0 -48 13q-1 6 -3 16.5t-14 37t-29.5 46.5t-52.5 36.5t-80 16.5v-160q0 -6 -35 -6q-38 0 -38 6v357q0 13 -18 33.5t-18 21.5q0 3 6.5 8t19 10t24.5 5q29 0 44 -25t15 -53v-164h14
l144 219q12 13 46 13q40 0 40 -8q0 -3 -44 -59t-88 -110z" />
    <glyph glyph-name="uni043B" unicode="&#x43b;" horiz-adv-x="617" 
d="M195 209v159q0 13 -18 27.5t-18 15.5q0 3 9 7.5t23 8.5t27 4h303v-363q0 -13 13 -33.5t13 -21.5q0 -3 -7.5 -8t-21 -10t-25.5 -5q-46 0 -46 78v318h-178v-177q0 -118 -32 -168.5t-99 -50.5q-26 0 -47 12.5t-21 34.5q0 12 9.5 28t13.5 16q2 0 9.5 -9.5t20.5 -18.5t28 -9
q29 0 36.5 39t7.5 126z" />
    </font>
</defs>
</svg>
